<?xml version="1.0" encoding="UTF-8" standalone="no"?>
<!-- Created with Inkscape (http://www.inkscape.org/) -->

<svg
   width="210mm"
   height="297mm"
   viewBox="0 0 210 297"
   version="1.1"
   id="svg1"
   inkscape:version="1.4 (86a8ad7, 2024-10-11)"
   sodipodi:docname="arch_groundfloor.svg"
   xmlns:inkscape="http://www.inkscape.org/namespaces/inkscape"
   xmlns:sodipodi="http://sodipodi.sourceforge.net/DTD/sodipodi-0.dtd"
   xmlns="http://www.w3.org/2000/svg"
   xmlns:svg="http://www.w3.org/2000/svg">
  <sodipodi:namedview
     id="namedview1"
     pagecolor="#ffffff"
     bordercolor="#000000"
     borderopacity="0.25"
     inkscape:showpageshadow="2"
     inkscape:pageopacity="0.0"
     inkscape:pagecheckerboard="0"
     inkscape:deskcolor="#d1d1d1"
     inkscape:document-units="mm"
     inkscape:zoom="0.68862935"
     inkscape:cx="363.04"
     inkscape:cy="572.87712"
     inkscape:window-width="1398"
     inkscape:window-height="981"
     inkscape:window-x="504"
     inkscape:window-y="0"
     inkscape:window-maximized="0"
     inkscape:current-layer="layer1" />
  <defs
     id="defs1">
    <inkscape:path-effect
       effect="bspline"
       id="path-effect138"
       is_visible="true"
       lpeversion="1.3"
       weight="33.333333"
       steps="2"
       helper_size="0"
       apply_no_weight="true"
       apply_with_weight="true"
       only_selected="false"
       uniform="false" />
    <inkscape:path-effect
       effect="bspline"
       id="path-effect113"
       is_visible="true"
       lpeversion="1.3"
       weight="33.333333"
       steps="2"
       helper_size="0"
       apply_no_weight="true"
       apply_with_weight="true"
       only_selected="false"
       uniform="false" />
    <inkscape:path-effect
       effect="bspline"
       id="path-effect112"
       is_visible="true"
       lpeversion="1.3"
       weight="33.333333"
       steps="2"
       helper_size="0"
       apply_no_weight="true"
       apply_with_weight="true"
       only_selected="false"
       uniform="false" />
    <inkscape:path-effect
       effect="bspline"
       id="path-effect111"
       is_visible="true"
       lpeversion="1.3"
       weight="33.333333"
       steps="2"
       helper_size="0"
       apply_no_weight="true"
       apply_with_weight="true"
       only_selected="false"
       uniform="false" />
    <inkscape:path-effect
       effect="bspline"
       id="path-effect110"
       is_visible="true"
       lpeversion="1.3"
       weight="33.333333"
       steps="2"
       helper_size="0"
       apply_no_weight="true"
       apply_with_weight="true"
       only_selected="false"
       uniform="false" />
    <inkscape:path-effect
       effect="bspline"
       id="path-effect109"
       is_visible="true"
       lpeversion="1.3"
       weight="33.333333"
       steps="2"
       helper_size="0"
       apply_no_weight="true"
       apply_with_weight="true"
       only_selected="false"
       uniform="false" />
    <inkscape:path-effect
       effect="bspline"
       id="path-effect108"
       is_visible="true"
       lpeversion="1.3"
       weight="33.333333"
       steps="2"
       helper_size="0"
       apply_no_weight="true"
       apply_with_weight="true"
       only_selected="false"
       uniform="false" />
    <inkscape:path-effect
       effect="bspline"
       id="path-effect107"
       is_visible="true"
       lpeversion="1.3"
       weight="33.333333"
       steps="2"
       helper_size="0"
       apply_no_weight="true"
       apply_with_weight="true"
       only_selected="false"
       uniform="false" />
    <inkscape:path-effect
       effect="bspline"
       id="path-effect98"
       is_visible="true"
       lpeversion="1.3"
       weight="33.333333"
       steps="2"
       helper_size="0"
       apply_no_weight="true"
       apply_with_weight="true"
       only_selected="false"
       uniform="false" />
    <inkscape:path-effect
       effect="bspline"
       id="path-effect97"
       is_visible="true"
       lpeversion="1.3"
       weight="33.333333"
       steps="2"
       helper_size="0"
       apply_no_weight="true"
       apply_with_weight="true"
       only_selected="false"
       uniform="false" />
    <inkscape:path-effect
       effect="bspline"
       id="path-effect96"
       is_visible="true"
       lpeversion="1.3"
       weight="33.333333"
       steps="2"
       helper_size="0"
       apply_no_weight="true"
       apply_with_weight="true"
       only_selected="false"
       uniform="false" />
    <inkscape:path-effect
       effect="bspline"
       id="path-effect95"
       is_visible="true"
       lpeversion="1.3"
       weight="33.333333"
       steps="2"
       helper_size="0"
       apply_no_weight="true"
       apply_with_weight="true"
       only_selected="false"
       uniform="false" />
    <inkscape:path-effect
       effect="bspline"
       id="path-effect94"
       is_visible="true"
       lpeversion="1.3"
       weight="33.333333"
       steps="2"
       helper_size="0"
       apply_no_weight="true"
       apply_with_weight="true"
       only_selected="false"
       uniform="false" />
    <inkscape:path-effect
       effect="bspline"
       id="path-effect93"
       is_visible="true"
       lpeversion="1.3"
       weight="33.333333"
       steps="2"
       helper_size="0"
       apply_no_weight="true"
       apply_with_weight="true"
       only_selected="false"
       uniform="false" />
    <inkscape:path-effect
       effect="bspline"
       id="path-effect92"
       is_visible="true"
       lpeversion="1.3"
       weight="33.333333"
       steps="2"
       helper_size="0"
       apply_no_weight="true"
       apply_with_weight="true"
       only_selected="false"
       uniform="false" />
    <inkscape:path-effect
       effect="bspline"
       id="path-effect91"
       is_visible="true"
       lpeversion="1.3"
       weight="33.333333"
       steps="2"
       helper_size="0"
       apply_no_weight="true"
       apply_with_weight="true"
       only_selected="false"
       uniform="false" />
    <inkscape:path-effect
       effect="bspline"
       id="path-effect90"
       is_visible="true"
       lpeversion="1.3"
       weight="33.333333"
       steps="2"
       helper_size="0"
       apply_no_weight="true"
       apply_with_weight="true"
       only_selected="false"
       uniform="false" />
    <inkscape:path-effect
       effect="bspline"
       id="path-effect89"
       is_visible="true"
       lpeversion="1.3"
       weight="33.333333"
       steps="2"
       helper_size="0"
       apply_no_weight="true"
       apply_with_weight="true"
       only_selected="false"
       uniform="false" />
    <inkscape:path-effect
       effect="bspline"
       id="path-effect87"
       is_visible="true"
       lpeversion="1.3"
       weight="33.333333"
       steps="2"
       helper_size="0"
       apply_no_weight="true"
       apply_with_weight="true"
       only_selected="false"
       uniform="false" />
    <inkscape:path-effect
       effect="bspline"
       id="path-effect86"
       is_visible="true"
       lpeversion="1.3"
       weight="33.333333"
       steps="2"
       helper_size="0"
       apply_no_weight="true"
       apply_with_weight="true"
       only_selected="false"
       uniform="false" />
    <inkscape:path-effect
       effect="bspline"
       id="path-effect85"
       is_visible="true"
       lpeversion="1.3"
       weight="33.333333"
       steps="2"
       helper_size="0"
       apply_no_weight="true"
       apply_with_weight="true"
       only_selected="false"
       uniform="false" />
    <inkscape:path-effect
       effect="bspline"
       id="path-effect84"
       is_visible="true"
       lpeversion="1.3"
       weight="33.333333"
       steps="2"
       helper_size="0"
       apply_no_weight="true"
       apply_with_weight="true"
       only_selected="false"
       uniform="false" />
    <clipPath
       clipPathUnits="userSpaceOnUse"
       id="clipPath71">
      <path
         id="path72"
         style="fill:#ff0000;fill-opacity:1;fill-rule:nonzero;stroke:none;stroke-width:0.277213"
         d="m 3.5757938,202.83865 v 0.0661 h 0.1912693 c -0.067433,-0.0202 -0.1310463,-0.0423 -0.1912693,-0.0661 z" />
    </clipPath>
    <clipPath
       clipPathUnits="userSpaceOnUse"
       id="clipPath77">
      <path
         id="path78"
         style="fill:#ff0000;fill-opacity:1;fill-rule:nonzero;stroke:none;stroke-width:0.277213"
         d="m 10.168827,120.58941 v 94.70104 c 0.212682,-0.066 0.425927,-0.12998 0.641792,-0.17656 -0.01454,-0.0244 -0.01888,-0.049 -0.01094,-0.0733 0.639908,-1.9563 0.945936,-1.64805 2.35342,-1.51888 0.25016,0.0447 0.500938,0.0863 0.751252,0.13026 1.581663,-1.02326 3.170087,-2.03796 4.77367,-3.03522 v 0.001 c 0.433393,-0.26953 0.837546,-0.37612 1.172967,-0.36789 0.635492,0.0156 1.018012,0.44533 0.89067,0.96273 0.239436,-0.1791 0.673555,-0.13836 0.988609,-0.23203 1.440296,0.0126 2.87723,0.0544 4.313933,0.15265 0.381198,0.0261 0.884295,0.0431 1.382095,0.11652 v -90.66038 z m 17.257461,91.03893 c -0.349374,0.008 -0.480603,0.12027 -0.5041,0.2819 0.169313,-0.0495 0.337321,-0.10314 0.5041,-0.15927 z m -7.086763,0.20913 c -0.110425,0.10399 -0.23576,0.20698 -0.39464,0.30581 -1.06044,0.65967 -2.114204,1.327 -3.165161,1.99771 0.338982,0.0559 0.677631,0.1126 1.016837,0.1674 0.170797,-0.0314 0.32624,-0.0462 0.462044,-0.0412 0.751707,-0.30909 1.526878,-0.5683 2.314244,-0.79837 -0.368559,-0.45069 -0.527072,-0.96689 -0.233324,-1.63134 z m 7.086763,1.91222 c -0.122548,0.0358 -0.250116,0.059 -0.373322,0.0931 0.124085,0.0146 0.24878,0.0268 0.373322,0.0387 z m -0.875691,0.21829 c -0.132964,0.0345 -0.266871,0.0667 -0.400401,0.0997 0.137916,0.0251 0.276708,0.0525 0.409041,0.0834 -5.6e-5,-0.0611 -0.003,-0.12217 -0.0086,-0.18318 z m -1.531309,0.38214 c -0.09493,0.0214 -0.187244,0.0491 -0.282295,0.0702 0.0662,0.0952 0.117776,0.19879 0.173985,0.2997 0.01894,-0.10947 0.05572,-0.23185 0.10831,-0.36992 z m -2.632835,0.60094 c -0.0045,10e-4 -0.0088,0.003 -0.01324,0.004 0.0093,0.002 0.0179,0.004 0.02708,0.007 -0.0045,-0.003 -0.0093,-0.007 -0.01383,-0.0102 z m 2.782624,0.39384 c 0.0015,0.0226 -7.4e-5,0.0445 0.0018,0.0672 0.05205,0.004 0.103547,0.0101 0.155553,0.0143 -0.05823,-0.0258 -0.111691,-0.0526 -0.157281,-0.0814 z m -0.871081,2.05469 c -0.144769,0.0405 -0.335847,0.0464 -0.546155,0.0331 -0.04613,0.0382 -0.08252,0.0716 -0.131931,0.11144 -0.256479,0.20687 -0.642007,0.13848 -1.018569,0.0896 -0.07187,0.0138 -0.143653,0.0275 -0.216041,0.0402 -0.214157,0.16606 -0.435585,0.32622 -0.664258,0.48086 0.315506,0.21149 0.642784,0.42356 0.910259,0.54547 0.310536,0.14156 0.649016,0.22868 0.973631,0.34296 1.25204,0.3404 2.531209,0.60613 3.821356,0.80804 v -1.07722 c -0.398808,-0.32209 -0.769024,-0.65647 -1.160293,-1.11283 0.006,-0.0195 0.0097,-0.0402 0.01498,-0.06 -0.660842,-0.0683 -1.321474,-0.13625 -1.982979,-0.2015 z m -9.94774,0.13993 c -0.538585,0.19775 -1.47735,0.53428 -2.276223,0.78921 0.02339,0.24498 0.04323,0.49052 0.06049,0.73578 0.0063,0.30922 0.01171,0.65916 0.01038,1.01971 0.08044,0.0176 0.186323,0.0414 0.275383,0.0611 0.146683,-0.0284 0.274998,-0.0548 0.448791,-0.087 0.09671,-0.0179 0.09901,0.0866 0.08699,0.20558 0.0045,0.001 0.007,0.002 0.01153,0.003 0.260016,0.0582 0.229241,0.42849 0.343937,0.64266 0.105865,0.17335 0.220307,0.35845 0.334723,0.54904 -0.04758,-0.14202 -0.08256,-0.2904 -0.113495,-0.44066 -0.188247,-0.21523 -0.343177,-0.44281 -0.39867,-0.70626 -0.03841,-0.18235 0.253326,-0.20871 0.521383,-0.2473 1.003419,-0.47591 2.011856,-0.94598 3.011918,-1.42882 -0.05886,-0.19615 -0.08291,-0.40256 -0.07144,-0.61875 -0.267815,-0.0265 -0.534975,-0.0575 -0.800796,-0.10075 -0.486098,-0.11197 -0.965979,-0.24266 -1.444892,-0.37603 z m 5.47019,1.72751 c -0.05818,0.0302 -0.113734,0.0627 -0.172259,0.0926 -0.327015,0.33778 -0.636011,0.6933 -1.036427,0.95865 -0.296456,0.19645 -0.699771,0.21688 -1.043915,0.33838 -1.145663,0.40446 -1.597214,0.61511 -2.733656,1.065 -0.280767,0.11115 -0.643819,0.52975 -0.846309,0.32515 -0.0126,-0.0127 -0.02094,-0.0276 -0.03284,-0.0407 0.46304,0.88012 0.752308,1.83325 0.08066,2.58287 0.110289,0.19095 0.201405,0.38467 0.144028,0.57956 -0.115891,0.39363 -0.365886,0.76413 -0.682693,1.07111 -0.0075,0.0601 -0.0098,0.11616 -0.02018,0.1786 -0.243618,0.84811 -0.201325,1.78027 -0.66541,2.57371 -0.114861,0.19637 -0.275251,0.36862 -0.413073,0.55311 -0.270691,0.34972 -0.603358,0.59975 -0.975359,0.78005 h 16.003263 v -8.55409 c -0.0729,-0.0108 -0.160414,-0.023 -0.222959,-0.0326 -1.497585,-0.22817 -2.982324,-0.53724 -4.428001,-0.95204 -0.444522,-0.17123 -0.905156,-0.31342 -1.333702,-0.51392 -0.313373,-0.14661 -0.595583,-0.34035 -0.883181,-0.5236 -0.232758,-0.14831 -0.489122,-0.30753 -0.738,-0.48187 z m -9.651619,6.42969 v 1.16219 c 0.04259,-0.0494 0.08666,-0.0978 0.125595,-0.14909 -0.109458,-0.12199 0.01504,-0.44042 0.169377,-0.73629 -0.100304,-0.0914 -0.196694,-0.18452 -0.294972,-0.27681 z m 0.285752,0.76326 c -0.01035,-0.009 -0.08032,0.0612 -0.107732,0.087 -0.0024,0.0209 0.0029,0.0553 0.0063,0.087 0.01062,-0.0153 0.02383,-0.0292 0.03399,-0.0448 0.05877,-0.0898 0.07362,-0.12373 0.0674,-0.12924 z" />
    </clipPath>
    <clipPath
       clipPathUnits="userSpaceOnUse"
       id="clipPath80">
      <path
         id="path80"
         style="fill:#ff0000;fill-opacity:1;fill-rule:nonzero;stroke:none;stroke-width:0.277213"
         d="m 12.708908,253.15672 c 0.442762,0.3617 0.520094,0.80302 0.332995,1.12861 0.845902,0.0422 1.679153,0.17448 2.532014,0.27884 0.316364,0.0387 0.633221,0.0768 0.950012,0.115 0.144111,-0.2417 0.643058,-0.34908 0.959227,-0.45999 0.242182,-0.0846 0.521389,-0.0145 0.781785,-0.006 1.18364,0.0398 2.361315,0.0867 3.463013,0.51342 -0.05493,0.28627 -0.06856,0.58388 -0.103125,0.87571 0.68136,0.16681 1.358652,0.34105 2.015245,0.56023 1.318739,-0.0288 2.637868,-0.0691 3.95271,-0.16436 v -2.84186 z m -3.2942129,0.82432 c -0.01289,-9e-5 -0.031771,0.002 -0.047239,0.003 v 0.0203 c 0.070341,0.0144 0.1407095,0.0286 0.2114314,0.0417 -0.00997,-0.0388 -0.055195,-0.0644 -0.164192,-0.0651 z m -0.047239,1.96921 v 0.0331 c 0.046794,-0.003 0.1035551,-0.006 0.1520923,-0.009 -0.051649,-0.007 -0.1008088,-0.0167 -0.1520923,-0.0244 z m 5.4932329,1.8191 c 0.277558,1.35614 -0.780036,1.49887 -2.028492,1.46698 -1.235979,-0.15089 -0.289085,0.0275 0.08296,-0.26968 -0.08875,-0.1031 -0.106109,-0.24345 -0.08872,-0.40402 -0.111451,-0.0351 -0.240474,-0.0823 -0.385419,-0.12772 -0.09187,-0.0292 -0.378184,-0.0946 -0.712653,-0.17097 0.01684,0.21709 0.04341,0.42765 0.06625,0.56736 0.02504,0.15304 0.363108,0.0966 0.459162,0.22592 0.217201,0.29242 -2.080599,-1.0491 -1.156258,-0.24068 -0.190978,-0.0316 -0.984193,-0.14538 -1.7300649,-0.27325 v 29.41039 H 27.592784 v -29.50503 c -0.504236,0.5381 -1.363781,0.65572 -2.101084,0.85638 -0.552685,0.1391 -1.111957,0.25652 -1.67188,0.37145 -0.01838,0.18036 -0.04978,0.38795 -0.09621,0.63452 -0.08728,0.46352 -2.467959,0.28591 -2.813734,0.21728 -0.31294,-0.34213 -0.803713,-0.61229 -1.033548,-0.98817 -0.861565,-0.15067 -1.727756,-0.29739 -2.479589,-0.67828 -0.195137,-0.0989 -0.50305,-0.17493 -0.527144,-0.37247 -0.01209,-0.0992 -0.0089,-0.19804 0,-0.29666 -0.260514,-0.0283 -0.508056,-0.13666 -0.765653,-0.18979 -0.444077,-0.0917 -0.843259,-0.16471 -1.243253,-0.23356 z" />
    </clipPath>
    <clipPath
       clipPathUnits="userSpaceOnUse"
       id="clipPath101">
      <path
         id="path101"
         style="fill:#ff0000;fill-opacity:1;fill-rule:nonzero;stroke:none;stroke-width:0.277213"
         d="m 49.252318,286.09591 c 0.09275,0.16271 0.15575,0.30584 0.125017,0.41928 h 3.045333 v -0.41928 z" />
    </clipPath>
    <clipPath
       clipPathUnits="userSpaceOnUse"
       id="clipPath104">
      <path
         id="path105"
         style="fill:#ff0000;fill-opacity:1;fill-rule:nonzero;stroke:none;stroke-width:0.277213"
         d="m 28.253009,274.77373 v 32.52195 h 22.209723 v -32.52195 z m 1.657476,9.44202 c 0.01531,0.0375 0.02826,0.0757 0.04263,0.11347 0.04058,-0.0312 0.07509,-0.029 0.003,0.008 0.240397,0.63477 0.355155,1.29903 0.482783,1.95751 0.0038,0.0335 0.0088,0.0672 0.01324,0.10075 0.06485,-0.26864 0.146824,-0.53549 0.24427,-0.80092 0.920471,-1.13471 1.398877,0.0755 1.613116,0.86299 0.145217,0.006 0.281543,0.0756 0.418258,0.14401 -0.0024,-0.51491 -0.01,-1.0303 -0.0092,-1.54637 0.0012,-0.74904 0.854118,-0.74904 0.856681,0 0.0058,1.66761 0.07571,3.32836 -0.221806,4.9795 -0.06712,0.50789 -0.589535,1.9268 -1.372299,0.84111 -0.09108,-0.12633 -0.029,-1.00828 -0.02419,-1.1225 -0.0067,-0.21676 0.0047,-0.43468 0.02419,-0.65334 -0.0089,0.0247 -0.01841,0.0497 -0.02708,0.0743 -0.126519,0.29635 -0.29302,1.1518 -0.932724,0.99579 -0.004,-10e-4 -0.0076,-0.003 -0.01153,-0.004 -0.07202,0.68383 -0.32255,1.33648 -1.102102,0.35671 -0.06847,-0.15685 -0.120153,-0.31731 -0.162466,-0.47985 -0.02608,0.007 -0.05228,0.0151 -0.07835,0.0219 -0.06007,0.0156 -0.0418,-0.10412 -0.0628,-0.15621 -0.02209,-0.13627 -0.171478,-1.40243 -0.168803,-1.4044 0.0082,-0.008 0.01737,-0.0141 0.02593,-0.0214 -0.0027,-0.0157 -0.0063,-0.0324 -0.0086,-0.0473 -0.0534,-0.33488 -0.06805,-0.66794 -0.05243,-1.00496 2.95e-4,-0.008 0.0012,-0.0145 0.0018,-0.0219 -0.02894,-0.6383 -0.03409,-1.27751 -0.107732,-1.91272 -0.02699,-0.087 -0.352985,-1.20983 -0.22526,-1.24055 0.271157,-0.0653 0.561065,-0.0265 0.841699,-0.0397 z m 0.04551,0.1211 c -8.85e-4,-0.003 -0.0018,-0.005 -0.0029,-0.008 -0.0063,0.005 -0.01221,0.0108 -0.01844,0.0173 0.0063,-0.003 0.01613,-0.007 0.02133,-0.01 z m 17.754642,0.058 c 0.214172,0 0.428054,0.18723 0.428054,0.56176 v 0.086 c 0.05323,-0.0308 0.112962,-0.0609 0.180899,-0.0906 0.279809,-0.12219 0.52151,0.38408 0.656193,0.74545 0.01168,-0.004 0.02363,-0.008 0.03514,-0.0117 0.243556,0.44191 0.573332,0.80569 0.220649,0.99021 0.01431,0.006 0.02817,0.0132 0.04206,0.0204 0.05007,0.026 0.08309,0.44742 0.08699,0.48847 0.0039,0.0416 0.007,0.083 0.01038,0.12468 0.0062,0.003 0.01236,0.007 0.01844,0.0107 -8.85e-4,0.006 -0.0018,0.0109 -0.0029,0.0163 0.0061,-0.001 0.008,-0.007 0.0086,-0.0127 -0.0021,-0.001 -0.0038,-0.002 -0.0058,-0.004 0.0018,-0.0108 0.0037,-0.0213 0.0052,-0.0326 -0.0021,0.0102 0.0018,0.0251 5.9e-4,0.0361 v 5.2e-4 c 0.0051,0.003 0.01053,0.006 0.01554,0.009 0.0055,0.004 -0.0018,0.0506 -0.01324,0.11347 0.01147,0.0313 0.01849,0.0593 -0.0092,0.0621 -8.85e-4,10e-5 -0.0021,-9e-5 -0.0029,0 -0.04129,0.20329 -0.121454,0.53528 -0.194152,0.82686 0.03862,0.20139 0.05775,0.37209 0.01785,0.40046 -0.04316,0.0307 -0.08976,0.056 -0.138842,0.0773 -2.95e-4,0.002 -0.0024,0.009 -0.0029,0.0102 -0.189542,0.52674 -0.289203,1.05814 -1.110744,0.40808 -0.02392,-0.0189 0.0096,-0.52191 0.01729,-0.66098 0.04676,-0.16602 0.07897,-0.34147 0.107735,-0.52003 -0.05418,-0.28631 -0.08724,-0.57822 -0.119835,-0.8691 -0.316892,0.20712 -0.630164,0.24589 -0.67981,-0.34245 v -1.88219 c 0,-0.37453 0.214454,-0.56176 0.428626,-0.56176 z m -16.101198,1.37539 c -0.0015,-0.005 -0.07172,0.0447 -0.09967,0.0606 -0.006,0.016 -0.01139,0.0319 -0.01728,0.0478 0.04195,-0.0301 0.08019,-0.065 0.113495,-0.10227 0.0029,-0.003 0.0037,-0.005 0.0035,-0.006 z m -0.251762,0.51647 c -0.102615,0.35067 -0.171369,0.70437 -0.203943,1.06093 0.0663,-0.0568 0.143972,-0.0999 0.236782,-0.1211 0.07407,-0.0169 0.141325,-0.0224 0.203366,-0.0193 -0.01776,-0.0985 -0.03463,-0.19692 -0.04782,-0.29512 -0.01053,-0.046 -0.110401,-0.36602 -0.188388,-0.62537 z m 0.603189,0.51851 c -0.393752,0.0381 -0.299562,0.0734 -0.06971,0.11652 0.02106,-0.0366 0.04269,-0.0727 0.0651,-0.10838 0.0015,-0.003 0.003,-0.006 0.0046,-0.008 z m 0.316287,3.77609 c -0.04305,0.0545 -0.07388,0.15222 -0.05531,0.11246 0.02195,-0.047 0.03986,-0.0827 0.05531,-0.11246 z" />
    </clipPath>
    <clipPath
       clipPathUnits="userSpaceOnUse"
       id="clipPath106">
      <path
         id="path106"
         style="fill:#ff0000;fill-opacity:1;fill-rule:nonzero;stroke:none;stroke-width:0.277213"
         d="m 26.7217,286.85255 v 0.41928 h 2.674892 c -0.0057,-0.13975 -0.01112,-0.27952 -0.01613,-0.41928 z m 4.501171,0 c -0.02587,0.13929 -0.04566,0.2791 -0.06049,0.41928 h 0.104275 c 0.03808,-0.0194 0.07919,-0.0351 0.123867,-0.0453 0.07407,-0.0169 0.141322,-0.0224 0.203366,-0.0193 -0.01776,-0.0986 -0.03463,-0.19693 -0.04782,-0.29513 -0.0015,-0.006 -0.0138,-0.0454 -0.01788,-0.0595 z m 0.474715,0 c -0.02434,0.0199 0.05074,0.0402 0.164192,0.0626 v -0.0626 z" />
    </clipPath>
    <clipPath
       clipPathUnits="userSpaceOnUse"
       id="clipPath133">
      <path
         id="path134"
         style="fill:#ff0000;fill-opacity:1;fill-rule:nonzero;stroke:none;stroke-width:0.277213"
         d="M 51.812564,133.93371 V 290.48312 H 111.63324 V 135.33505 c -0.28348,0.34855 -0.61135,0.66077 -0.97133,0.94339 -0.006,0.15483 -0.0127,0.30982 -0.0225,0.46457 -0.20638,0.72391 -0.16446,1.88461 -0.60146,2.533 -0.0682,0.10113 -0.18692,0.16761 -0.28057,0.25137 -0.22804,-0.1343 -0.50851,-0.21736 -0.68441,-0.403 -0.12255,-0.12933 -0.10084,-1.5053 -0.0807,-2.19564 -0.64034,-0.18495 -0.64011,-0.72102 -0.41019,-1.3067 0.0124,-0.0815 0.026,-0.16016 0.0392,-0.24272 -0.0549,-0.34145 -0.0619,-0.6828 -0.0639,-0.74697 0.0257,-0.0437 0.0144,-0.11386 -0.0127,-0.18827 -0.0356,0.006 -0.0716,0.0114 -0.10774,0.0147 -0.58893,0.0559 -0.85392,-0.2144 -0.74145,-0.52512 z m 56.528766,0.19234 c -0.008,0.005 0.003,0.0406 0.0461,0.12314 0.0207,-7.8e-4 0.0399,-5.2e-4 0.057,-0.003 -0.0475,-0.0743 -0.0924,-0.12604 -0.10312,-0.12009 z" />
    </clipPath>
    <clipPath
       clipPathUnits="userSpaceOnUse"
       id="clipPath136">
      <path
         id="path137"
         style="fill:#ff0000;fill-opacity:1;fill-rule:nonzero;stroke:none;stroke-width:0.277213"
         d="m 106.74722,134.30873 v 170.91851 h 6.11487 V 134.30873 h -0.39464 c -0.0827,0.0909 -0.18852,0.19417 -0.31053,0.30021 -0.41636,0.61852 -0.89536,1.20398 -1.49501,1.67662 -0.006,0.15246 -0.0128,0.30507 -0.0225,0.45745 -0.20638,0.72391 -0.16446,1.88461 -0.60146,2.533 -0.0682,0.10113 -0.18692,0.16761 -0.28057,0.25137 -0.22804,-0.1343 -0.50851,-0.21736 -0.68441,-0.403 -0.12255,-0.12933 -0.10084,-1.5053 -0.0807,-2.19564 -0.64034,-0.18495 -0.64011,-0.72102 -0.41019,-1.3067 0.0124,-0.0815 0.026,-0.16016 0.0392,-0.24272 -0.0549,-0.34145 -0.0618,-0.6828 -0.0639,-0.74697 0.0257,-0.0437 0.0144,-0.11386 -0.0127,-0.18827 -0.0356,0.006 -0.0716,0.0114 -0.10774,0.0147 -0.31805,0.0302 -0.54116,-0.035 -0.66195,-0.1501 z" />
    </clipPath>
    <clipPath
       clipPathUnits="userSpaceOnUse"
       id="clipPath143">
      <path
         id="path144"
         style="fill:#ff0000;fill-opacity:1;fill-rule:nonzero;stroke:none;stroke-width:0.264583"
         d="m 9.7897462,92.980314 v 0.223379 c 0.1212709,-0.07883 0.2474858,-0.153254 0.3785048,-0.223379 z m 12.5120178,0 c -0.06006,0.02724 -0.124043,0.0522 -0.192999,0.07429 0.02074,0.04115 0.03908,0.08253 0.05589,0.122122 0.386986,0.911628 -0.112657,1.334498 -1.032394,1.645078 -0.998304,0.257126 -1.984385,0.534716 -2.999821,0.737308 -0.908507,0.171504 -1.82894,0.27994 -2.753242,0.313952 -0.771697,1.239054 -1.392113,2.576676 -2.795299,3.382763 -0.130385,0.06147 -0.263452,0.118755 -0.396943,0.171986 0.294671,0.01086 0.58209,0.06567 0.824995,0.231013 0.162994,0.110958 0.293141,0.263912 0.439572,0.395874 -0.09461,0.46533 -0.05303,0.98139 -0.284023,1.39626 -0.09533,0.17122 -0.653553,0.27839 -1.241522,0.34601 0.04652,0.80117 -0.347309,1.38159 -0.946555,1.88779 0.09813,0.40961 0.183625,0.82176 0.22526,1.24309 0.04889,0.29785 0.14011,0.58425 0.207977,0.87622 0.255553,0.0402 0.512383,0.072 0.770263,0.0957 0.02861,-0.2587 0.144963,-0.51747 0.389452,-0.76988 0.67733,-0.69929 1.581294,-0.49889 2.381651,-0.44829 1.282599,0.23462 3.468133,0.53668 2.145444,2.55489 -0.131574,0.20076 -0.662531,0.33029 -1.170086,0.41877 1.462569,1.30355 2.975045,2.62457 3.918721,4.35057 0.234908,0.84067 0.43203,1.11074 0.195302,1.99567 -0.488452,1.82592 -2.463643,2.63109 -4.00917,3.30745 -1.229841,0.56433 -2.457635,1.12963 -3.662347,1.74329 0.03158,0.64449 0.07287,1.28838 0.08526,1.93358 0.0027,0.46044 0.01165,0.92141 0.01729,1.38201 1.702636,-0.78854 3.352809,-1.68973 4.974736,-2.63222 1.136621,-0.66048 1.935429,-0.0748 1.792286,0.66403 0.09919,0.2175 0.16131,0.49157 0.16131,0.82839 v 6.28009 c 0.01392,-0.0524 0.03358,-0.10466 0.04436,-0.15723 0.499613,-0.0396 1.009973,-0.22856 1.499045,-0.11907 0.222062,0.0497 0.331307,0.30705 0.448793,0.51139 0.02086,-0.0247 0.04067,-0.0503 0.06164,-0.0748 0.164416,-0.19242 0.280221,-0.52701 0.532907,-0.54141 1.963068,-0.11215 1.662547,0.32284 1.598137,1.5311 1.032176,-0.0755 2.065747,-0.13114 3.100062,-0.17352 0.740129,-0.73012 1.464191,-1.47666 2.18577,-2.22515 -0.111289,-0.11236 -0.189377,-0.21932 -0.30822,-0.3338 -0.785098,-0.60714 -0.398023,-0.32001 -1.157986,-0.86401 -1.159813,-0.83022 -0.81855,-1.91742 0.07605,-1.94071 0.298196,-0.008 0.657419,0.1024 1.04334,0.3801 0.881328,0.63416 0.419665,0.28717 1.379792,1.04974 0.17987,0.17728 0.331018,0.36686 0.501794,0.54802 0.04724,-0.009 0.09439,-0.0165 0.14057,-0.0173 0.457705,-0.007 0.861802,0.39455 1.17239,1.46444 0.02147,0.0739 0.02599,0.14892 0.02478,0.2244 0.04899,0.0728 0.100614,0.14396 0.147484,0.21778 0.285165,0.15939 0.552606,0.35669 0.790425,0.56888 0.115413,0.10298 -0.124964,0.25998 -0.230445,0.39639 0.0666,0.14251 0.0983,0.30224 0.156703,0.44879 0.867376,0.01 1.734829,0.0254 2.601727,0.0519 2.497264,0.0763 4.727486,0.19994 7.187006,0.52563 0.889632,0.11781 1.76622,0.30101 2.649542,0.45134 1.660231,0.48445 3.765905,0.79169 4.486192,2.4521 0.621212,1.43202 -0.303329,2.48297 -1.201196,3.53134 -0.363471,0.27158 -0.748507,0.54112 -1.148194,0.79888 H 191.92435 V 92.980314 Z m 142.210566,0.374505 c 0.71405,-0.008 1.34779,0.258142 1.99104,0.509346 0.2714,0.09219 0.62716,0.195113 0.87742,0.338378 0.45341,-0.03005 0.90839,-0.0424 1.36308,-0.05241 0.0477,-0.04459 0.16074,-0.03142 0.35086,-0.03104 0.0102,9.9e-5 0.46495,0.003 0.4655,0.0041 2.6e-4,5.22e-4 3e-4,0.001 5.9e-4,0.0016 0.0809,5.21e-4 0.13937,0.01162 0.16938,0.04936 0.0497,-0.02144 0.20811,0.01196 0.38427,0.06869 0.0515,-0.03468 0.10291,-0.06964 0.15439,-0.104312 0.67436,-0.454216 1.31583,0.552562 0.47242,0.630962 -0.0145,0.0013 -0.0288,0.0027 -0.0432,0.0041 -0.004,-0.05585 -0.008,-0.104228 -0.0167,-0.143492 -0.004,0.0018 -0.007,0.0035 -0.0115,0.0051 -0.46607,0.161114 -0.70042,0.192135 -0.80253,0.155706 -0.0119,0.0058 -0.02,0.0092 -0.0323,0.01527 -0.16521,0.08154 -0.0873,0.141315 0.023,0.177585 0.0195,0.0023 0.0388,0.0042 0.0582,0.0071 0.32579,0.04891 0.10022,0.04493 -0.0582,-0.0071 -0.0462,-0.0053 -0.0926,-0.0096 -0.13885,-0.01475 -0.0858,-2.6e-4 -0.74269,0.02747 -0.8031,-0.06564 -0.48007,0.01011 -0.96027,0.02108 -1.43913,0.0519 -0.0576,0.05647 -0.12693,0.115882 -0.21258,0.178601 -0.59431,0.423838 -1.28152,0.656605 -1.86027,0.106349 -0.10698,-0.439418 0.12371,-0.667107 0.46434,-0.79837 -0.47821,-0.189926 -0.95364,-0.36422 -1.50019,-0.325149 -0.84531,0.06043 -0.84593,-0.703245 0,-0.756642 0.0483,-0.003 0.0964,-0.0046 0.14403,-0.0051 z M 20.260019,94.040223 c 0.01531,0.02433 0.03169,0.04901 0.04378,0.07328 0.0048,0.0096 0.04077,0.01946 0.03341,0.0112 -0.03343,-0.0378 -0.05191,-0.0568 -0.0772,-0.08447 z M 166.0275,94.784146 c -0.031,-0.001 0.0123,0.07354 0.0432,0.07226 0.02,-7.81e-4 0.0397,-0.003 0.0593,-0.0061 -0.005,-0.01068 -0.01,-0.02139 -0.0144,-0.03206 -0.0294,-0.01136 -0.056,-0.03291 -0.0881,-0.03409 z M 10.819261,94.891511 c -0.279772,0.217721 -0.502171,0.482454 -0.696523,0.766312 0.274563,0.308728 0.307069,0.707525 0.194152,1.224267 0.291905,0.190835 0.560755,0.475324 0.750674,0.698636 0.03764,0.06181 0.07026,0.114723 0.128474,0.205062 0.02947,-0.0081 0.06351,-0.01428 0.08469,-0.02646 0.07962,-0.04577 0.156868,-0.09533 0.235052,-0.142984 0.693743,-0.480633 1.113376,-1.147208 1.504809,-1.82724 -0.866267,-0.0798 -1.982353,-0.24455 -2.201327,-0.897594 z m 0.472987,3.039804 c 0.100293,0.150558 0.186701,0.273797 0.164768,0.211169 -0.02522,-0.07204 -0.07753,-0.136421 -0.13481,-0.19234 -0.0079,-0.0077 -0.01938,-0.01295 -0.02996,-0.01884 z m -1.214446,1.57791 c -0.095913,0.02558 -0.1921375,0.04715 -0.2880558,0.06462 v 0.325149 c 0.039352,0.04102 0.081188,0.07428 0.1209848,0.113986 0.106481,-0.005 0.212679,-0.0105 0.319166,-0.01579 0.123147,-0.11039 0.275986,-0.203384 0.444758,-0.286477 -0.213446,-0.02225 -0.410223,-0.09763 -0.596853,-0.2015 z m 3.965384,6.151355 c -0.02301,-7e-5 -0.03726,0.15348 -0.0058,0.19845 0.01437,0.0203 0.04051,0.0499 0.0628,0.0763 0.01773,-10e-4 0.03585,-0.003 0.05358,-0.004 -0.02018,-0.0763 -0.05069,-0.16127 -0.100243,-0.26052 -0.0034,-0.007 -0.0071,-0.0102 -0.01038,-0.0102 z m 1.960514,1.24411 c 0.0067,0.0263 0.0099,0.0534 0.01785,0.0794 0.01071,0.035 0.138736,-0.0122 0.106006,-0.0285 -0.04004,-0.0199 -0.08259,-0.0335 -0.123864,-0.0509 z m -4.310476,0.87113 c -0.132659,0.51125 -0.538738,0.76371 -0.975361,0.63198 0.0095,0.0421 0.01746,0.0846 0.02708,0.1267 0.249851,1.09459 0.414683,2.20653 0.578993,3.31662 0.119598,1.00657 0.266367,2.01148 0.497761,2.99909 0.179212,0.70367 0.292203,1.41924 0.38542,2.13764 1.000298,-0.49158 2.012484,-0.95897 3.025746,-1.42424 0.808427,-0.39892 2.95886,-1.05444 3.03208,-2.28876 0.01383,-0.23306 -0.140848,-0.46291 -0.237359,-0.65386 -1.062658,-1.5488 -2.548928,-2.77582 -3.934274,-4.03051 -0.203816,-0.18976 -0.495346,-0.43508 -0.78985,-0.7134 -0.540234,-0.003 -1.077144,-0.0381 -1.610234,-0.10126 z m 5.788779,14.1386 c -1.49078,0.84294 -3.003176,1.64837 -4.562811,2.35542 0.381154,0.34482 0.379921,0.86251 -0.0046,1.20595 0.09077,0.62633 0.165997,1.25381 0.178595,1.88728 -0.0021,0.0343 -0.01431,0.0577 -0.01728,0.0911 1.438149,1.01965 0.72423,2.2264 -0.903923,1.65627 -0.155024,0.0968 -0.332873,0.17717 -0.525415,0.24729 0.237902,0.26186 0.470908,0.52941 0.72936,0.68948 0.166552,0.10315 0.292684,0.21038 0.399823,0.31853 0.351972,-0.10679 0.722764,-0.20252 1.122268,-0.30225 1.312922,-0.32774 2.438306,-0.53168 3.583995,-0.7022 v -1.30568 z m -7.468726,2.2221 c 0.0059,0.0495 0.02012,0.0973 0.02708,0.14655 0.02186,-0.0205 0.0452,-0.0407 0.06971,-0.06 -0.0304,-0.0346 -0.06776,-0.0477 -0.09679,-0.0865 z m 0.353159,4.22795 c -0.05675,0.0192 -0.12038,0.0388 -0.194728,0.0621 -0.004,0.002 -0.007,0.003 -0.01038,0.003 -0.03104,0.01 -0.05248,0.0169 -0.087,0.028 -0.03658,0.009 -0.07293,0.0194 -0.1094602,0.029 0.1702832,0.0249 0.3409022,0.0487 0.5081322,0.0824 0.02127,-0.0303 0.03388,-0.0585 0.05704,-0.089 -0.05621,-0.0246 -0.107832,-0.0834 -0.163617,-0.1155 z m 20.764832,1.91985 c -0.02631,2e-5 -0.05261,5.2e-4 -0.07893,5.2e-4 -0.203942,0.96638 -0.341543,1.94596 -0.485662,2.92379 0.08729,0.0156 0.177238,0.0239 0.254066,0.0682 0.145942,-0.38192 0.251037,-0.75088 0.324927,-0.9846 0.09245,-0.75579 0.07015,-1.40377 -0.01439,-2.00788 z m 1.98471,0.0143 c 0.02761,0.26034 0.04356,0.52638 0.04206,0.80142 -0.0034,0.61874 -0.137093,1.23011 -0.205673,1.84505 -0.104039,0.26533 -0.181262,0.48316 -0.265013,0.71542 0.946691,-0.10198 1.894939,-0.0621 2.824105,0.20812 0.07008,-0.0927 0.15409,-0.20574 0.420562,-0.55616 1.182127,-1.55453 2.960072,-0.50018 1.777886,1.05431 -0.113861,0.14972 -0.119088,0.15814 -0.176867,0.23407 1.270232,0.4873 2.5422,0.97516 3.894521,1.24564 0.521017,0.0732 1.135525,0.20774 1.672458,0.10176 1.15724,-0.2284 2.629089,-1.07975 3.561527,-1.7158 0.246789,-0.24768 1.465672,-1.41492 0.915444,-1.85523 -0.644349,-0.51562 -2.243011,-0.88456 -2.935872,-1.08942 -0.829806,-0.14302 -1.653429,-0.31728 -2.489382,-0.42895 -2.395556,-0.32003 -4.539579,-0.43845 -6.975575,-0.51393 -0.686556,-0.0213 -1.373273,-0.0356 -2.060177,-0.0463 z m -8.646301,0.19692 c -0.458755,0.03 -0.917533,0.0607 -1.375757,0.0977 -0.04342,0.15751 -0.05732,0.20806 -0.09967,0.36179 0.11072,0.11113 0.214989,0.23281 0.328387,0.3399 0.06531,-0.0529 0.134226,-0.10496 0.211431,-0.15469 0.02023,-0.013 0.0392,-0.0163 0.05934,-0.0285 0.396876,-0.26986 0.609154,-0.4097 0.876267,-0.6162 z m -14.033531,0.51189 c 0.0021,0.23382 0.0081,0.46759 0.01843,0.70118 0.0154,-0.0196 0.02944,-0.0427 0.04609,-0.0595 0.106321,-0.10777 0.214909,-0.20398 0.324354,-0.29563 -0.136804,-0.10897 -0.264549,-0.22587 -0.388876,-0.34601 z m 15.974455,0.36789 c -0.08038,0.069 -0.164516,0.13373 -0.246002,0.2015 0.01563,0.015 0.03412,0.0249 0.04955,0.0402 0.09903,-0.0684 0.198968,-0.13705 0.296123,-0.20761 -0.02507,0.003 -0.05048,0.005 -0.07547,0.008 -0.0071,-0.0143 -0.01678,-0.028 -0.02419,-0.0422 z m -9.952925,0.0824 c -0.553384,0.10433 -1.150886,0.22885 -1.860846,0.39384 -0.560631,0.13029 -1.096084,0.33522 -1.652866,0.4778 -0.154322,0.0395 -0.340858,-0.01 -0.475869,0.0672 -0.198777,0.11328 -0.266762,0.71785 -0.288058,0.81974 -0.02867,0.32557 -0.06019,0.75856 -0.100818,1.20798 0.02333,0.0124 0.04178,0.0161 0.06568,0.0295 0.0635,0.0899 0.117923,0.18218 0.169377,0.2758 0.430447,-0.52149 0.933146,-0.329 1.526699,0.006 0.04247,0.0339 0.0782,0.0688 0.116377,0.1033 0.176838,0.061 0.358769,0.13888 0.540969,0.19997 0.03275,-0.0917 0.06798,-0.18231 0.111767,-0.26918 0.136314,-0.27043 0.439036,-0.48049 0.619321,-0.71848 0.02705,-0.0357 0.05225,-0.073 0.07835,-0.1094 -0.271189,-0.58331 0.666145,-1.76407 0.835363,-2.09387 0.104889,-0.1301 0.213579,-0.25667 0.314559,-0.39028 z m 12.335151,0.60654 -0.160735,0.19997 c -0.303963,0.37684 -0.627527,0.5778 -0.921205,0.64623 -0.03794,0.0286 -0.07708,0.0546 -0.115224,0.0829 0.289902,0.39815 0.382222,0.99211 0.414801,1.52092 0.102431,0.0418 0.205411,0.0792 0.308223,0.11347 0.02286,-0.008 0.06243,-0.0222 0.08526,-0.03 0.159089,-0.83799 0.268469,-1.68678 0.388876,-2.53351 z m 5.382045,3.50284 c -0.277467,-0.007 -0.482382,0.14944 -0.706889,0.4142 0.123807,0.0836 0.214407,0.15929 0.289206,0.23203 h 0.360072 c -0.008,-0.0722 -0.01729,-0.14321 -0.02133,-0.22135 -0.0031,-0.0599 0.0874,-0.22367 0.202795,-0.41165 -0.04286,-0.008 -0.08423,-0.0122 -0.123867,-0.0132 z m 0.588789,0.26511 c -0.03421,0.0257 -0.06596,0.047 -0.103703,0.0784 0.01625,-0.007 0.03448,-0.004 0.07086,0.0163 0.04998,0.0275 0.117277,0.14428 0.139417,0.0962 0.01826,-0.0397 -0.03757,-0.11733 -0.106578,-0.19082 z m -9.288093,0.24475 c -0.04413,0.0457 -0.09098,0.0883 -0.133657,0.13586 h 0.179171 c -0.0169,-0.0452 -0.03174,-0.0905 -0.04551,-0.13586 z" />
    </clipPath>
  </defs>
  <g
     inkscape:label="Layer 1"
     inkscape:groupmode="layer"
     id="layer1"
     transform="matrix(0.89698464,0,0,1.0155753,20.984373,-46.018544)">
    <path
       style="fill:#ffffff;stroke:#ffffff;stroke-width:0.352819"
       d="m 111.45708,290.48068 c -2.06686,-156.3693 -2.06686,-156.3693 -2.06686,-156.3693 l -57.576666,0.38898 c 0,0 0,0 0,0 v 0"
       id="path1"
       clip-path="url(#clipPath133)" />
    <path
       style="fill:#ffffff;stroke:#000000;stroke-width:0.4"
       d="m 34.963777,136.01293 c -24.9741265,0 -24.9741265,0 -24.9741265,0 V 93.749028 C 131.40233,94.517464 153.30272,94.517464 153.30272,94.517464 c 0,0 38.42173,0 38.42173,-0.768434 0,-0.768435 0,-0.768435 0,-0.768435"
       id="path2"
       clip-path="url(#clipPath143)" />
    <path
       style="fill:#ffffff;stroke:#000000;stroke-width:0.4"
       d="m 191.72445,93.749028 c 0.38421,3.842173 0.38421,3.842173 0.38421,3.842173 1e-5,35.347999 0.38422,35.732219 1e-5,35.347999 -0.38422,-0.38422 -0.38422,-0.38422 -0.38422,-0.38422"
       id="path4" />
    <path
       style="fill:#ffffff;stroke:#000000;stroke-width:0.4"
       d="m 192.10866,132.9392 c -28.04786,0.76843 -34.19534,0.76843 -34.19534,0.76843 0,0 0.76844,-0.38422 0,0 -0.76843,0.38422 -0.76843,0.38422 -0.76843,0.38422 2.68952,105.65977 3.45796,152.53428 3.45796,152.53428"
       id="path6" />
    <path
       style="fill:#ffffff;stroke:#000000;stroke-width:0.463575;stroke-dasharray:none"
       d="m 52.496062,134.03844 c 0.144169,170.28536 -0.04807,151.27087 -0.04807,151.27087 l -0.04807,0.42253"
       id="path45" />
    <rect
       style="fill:#ffffff;stroke:#000000;stroke-width:0.422342"
       id="rect46"
       width="29.127296"
       height="18.442244"
       x="6.5898061"
       y="101.4284" />
    <rect
       style="fill:#ffffff;stroke:#000000;stroke-width:0.422342;stroke-linecap:butt;stroke-miterlimit:4"
       id="rect47"
       width="32.125694"
       height="21.131746"
       x="-0.69199979"
       y="230.93625"
       ry="0.38421351" />
    <path
       style="fill:#ffffff;stroke:#000000;stroke-width:0.419094;stroke-linecap:butt;stroke-miterlimit:4"
       d="m 22.010037,93.73836 c 0.428343,7.94482 0.428343,7.94482 0.428343,7.94482"
       id="path60" />
    <path
       style="fill:#ffffff;stroke:#000000;stroke-width:0.565816;stroke-linecap:butt;stroke-miterlimit:4"
       d="m 26.715396,120.59073 c 0.427996,95.93148 0.427996,96.62163 0.427996,95.93148 0,-0.69015 0,-0.69015 0,-0.69015 v 0 c -16.69186,0.69015 -16.69186,0.69015 -16.69186,0.69015 0,13.80308 0,13.80308 0,13.80308"
       id="path61"
       clip-path="url(#clipPath77)" />
    <path
       style="fill:#ffffff;stroke:#000000;stroke-width:0.329897;stroke-linecap:butt;stroke-miterlimit:4"
       d="m 26.968907,287.95133 c 0.458854,-30.4179 0.458854,-30.63673 0.458854,-30.4179 0,0.21884 0,0.21884 0,0.21884 v 0 C 9.5325111,257.53343 9.5325111,257.53343 9.5325111,257.53343 c 0,-4.37667 0,-4.37667 0,-4.37667"
       id="path61-8"
       clip-path="url(#clipPath80)" />
    <rect
       style="fill:#ffffff;stroke:#000000;stroke-width:0.674435;stroke-linecap:butt;stroke-miterlimit:4;stroke-dasharray:none"
       id="rect62"
       width="37.040749"
       height="139.3725"
       x="142.05872"
       y="140.00865"
       ry="0.78299165" />
    <rect
       style="fill:#ffffff;stroke:#000000;stroke-width:0.462051;stroke-linecap:butt;stroke-miterlimit:4;stroke-dasharray:none"
       id="rect63"
       width="51.401192"
       height="23.834461"
       x="55.420818"
       y="125.89597"
       ry="0.1891624" />
    <rect
       style="fill:#ffffff;stroke:#000000;stroke-width:0.462051;stroke-linecap:butt;stroke-miterlimit:4;stroke-dasharray:none"
       id="rect64"
       width="29.98403"
       height="18.537909"
       x="174.92859"
       y="98.65657"
       ry="0" />
    <text
       xml:space="preserve"
       style="font-size:15.0455px;text-align:start;writing-mode:lr-tb;direction:ltr;text-anchor:start;fill:#ffffff;stroke:#000000;stroke-width:0.99325274;stroke-linecap:butt;stroke-miterlimit:4;stroke-dasharray:none"
       x="223.93608"
       y="-127.74829"
       id="text65"
       transform="matrix(0,0.82487758,-1.2123011,0,0,0)"><tspan
         sodipodi:role="line"
         id="tspan65"
         style="stroke-width:0.99325274;stroke-dasharray:none"
         x="223.93608"
         y="-127.74829">AR-001</tspan></text>
    <text
       xml:space="preserve"
       style="font-size:5.91388183px;text-align:start;writing-mode:lr-tb;direction:ltr;text-anchor:start;fill:#ffffff;stroke:#000000;stroke-width:0.462051;stroke-linecap:butt;stroke-miterlimit:4;stroke-dasharray:none"
       x="64.563889"
       y="147.64705"
       id="text66"
       transform="scale(1.0640537,0.93980216)"><tspan
         sodipodi:role="line"
         id="tspan66"
         style="stroke-width:0.462051;font-size:5.91388183px"
         x="64.563889"
         y="147.64705">AR-002</tspan></text>
    <text
       xml:space="preserve"
       style="font-size:5.91387px;text-align:start;writing-mode:lr-tb;direction:ltr;text-anchor:start;fill:#ffffff;stroke:#000000;stroke-width:0.462051;stroke-linecap:butt;stroke-miterlimit:4;stroke-dasharray:none"
       x="-143.1172"
       y="1.9372606"
       id="text67"
       transform="matrix(0,-0.93980212,1.0640538,0,0,0)"><tspan
         sodipodi:role="line"
         id="tspan67"
         style="stroke-width:0.462051"
         x="-143.1172"
         y="1.9372606">GENTS WASHROOM</tspan></text>
    <rect
       style="fill:#ffffff;stroke:#000000;stroke-width:0.36461176;stroke-linecap:butt;stroke-miterlimit:4;stroke-dasharray:none"
       id="rect67"
       width="21.845507"
       height="32.157608"
       x="28.43519"
       y="274.95593"
       clip-path="url(#clipPath104)" />
    <path
       style="fill:#ffffff;stroke:#000000;stroke-width:0.364613;stroke-linecap:butt;stroke-miterlimit:4;stroke-dasharray:none"
       d="m 27.150156,258.30965 c -8.566865,0 -8.566865,-1.13497 -8.566865,-1.13497 l -0.428344,-5.29655"
       id="path81" />
    <rect
       style="fill:#ffffff;stroke:#ffffff;stroke-width:0.364613;stroke-linecap:butt;stroke-miterlimit:4;stroke-dasharray:none"
       id="rect83"
       width="9.8518953"
       height="1.891624"
       x="19.011633"
       y="257.17468" />
    <path
       style="fill:#ff0000;stroke:#ffffff;stroke-width:0.364613;stroke-linecap:butt;stroke-miterlimit:4;stroke-dasharray:none"
       d="m 18.583291,257.17468 c 2.712839,-0.12611 5.425682,-0.25222 8.138522,-0.37833"
       id="path84"
       inkscape:path-effect="#path-effect84"
       inkscape:original-d="m 18.583291,257.17468 c 2.712839,-0.12611 5.425682,-0.25222 8.138522,-0.37833" />
    <path
       style="fill:#ffffff;stroke:#000000;stroke-width:0.31432049;stroke-linecap:butt;stroke-miterlimit:4;stroke-dasharray:none"
       d="m 19.011634,256.79635 c 2.71284,0.12611 5.425682,0.25222 6.853494,0.37833 1.427812,0.12611 1.570588,0.25221 1.64198,1.2611 0.07139,1.00888 0.07139,2.90047 0.07139,4.7921"
       id="path87"
       inkscape:path-effect="#path-effect87"
       inkscape:original-d="m 19.011634,256.79635 c 2.71284,0.12611 5.425682,0.25222 8.138522,0.37833 0.142783,0.12611 0.285562,0.25221 0.428343,0.37832 0,1.89166 0,3.78325 0,5.67488 m -0.428343,-4.16158 c 0,0 0,0 0,0 z" />
    <path
       style="fill:#ffffff;stroke:#000000;stroke-width:0.62864097;stroke-linecap:butt;stroke-miterlimit:4;stroke-dasharray:none;paint-order:stroke fill markers"
       d="m 26.721813,210.64073 c 0,4.53989 0,9.07979 0,13.61969"
       id="path89"
       inkscape:path-effect="#path-effect89"
       inkscape:original-d="m 26.721813,210.64073 c 0,4.53989 0,9.07979 0,13.61969" />
    <path
       style="fill:#ffffff;stroke:#000000;stroke-width:0.62864097;stroke-linecap:butt;stroke-miterlimit:4;stroke-dasharray:none;paint-order:stroke fill markers"
       d="m 26.721813,223.8821 c -2.998403,0 -5.996806,0 -7.496008,0.0631 -1.499201,0.0631 -1.499201,0.18916 -1.499201,1.38721 0,1.19805 0,3.46796 0,5.73791"
       id="path90"
       inkscape:path-effect="#path-effect90"
       inkscape:original-d="m 26.721813,223.8821 c -2.998403,0 -5.996806,0 -8.995209,0 0,0.12611 0,0.25221 0,0.37832 0,2.26999 0,4.5399 0,6.80985" />
    <path
       style="fill:#ffffff;stroke:#000000;stroke-width:0.314321;stroke-linecap:butt;stroke-miterlimit:4;stroke-dasharray:none;paint-order:stroke fill markers"
       d="M 238.32339,200.04763 Z"
       id="path91"
       inkscape:original-d="M 238.32339,200.04763 Z"
       inkscape:path-effect="#path-effect91" />
    <path
       style="fill:#ffffff;stroke:#000000;stroke-width:0.94296146;stroke-linecap:butt;stroke-miterlimit:4;stroke-dasharray:none;paint-order:stroke fill markers"
       d="M 25.00844,225.01707 Z"
       id="path92"
       inkscape:path-effect="#path-effect92"
       inkscape:original-d="M 25.00844,225.01707 Z" />
    <path
       style="fill:#ffffff;stroke:#000000;stroke-width:0.628642;stroke-linecap:butt;stroke-miterlimit:4;stroke-dasharray:none;paint-order:stroke fill markers"
       d="M 26.721813,287.44066 Z"
       id="path93"
       inkscape:path-effect="#path-effect93"
       inkscape:original-d="M 26.721813,287.44066 Z" />
    <path
       style="fill:#ffffff;stroke:#000000;stroke-width:0.628642;stroke-linecap:butt;stroke-miterlimit:4;stroke-dasharray:none;paint-order:stroke fill markers"
       d="M 28.006843,287.81899 Z"
       id="path94"
       inkscape:path-effect="#path-effect94"
       inkscape:original-d="M 28.006843,287.81899 Z" />
    <path
       style="fill:#ffffff;stroke:#000000;stroke-width:0.419094;stroke-linecap:butt;stroke-miterlimit:4;stroke-dasharray:none;paint-order:stroke fill markers"
       d="m 26.721813,287.06234 c 1.713373,0 3.426746,0 5.140119,0"
       id="path96"
       inkscape:path-effect="#path-effect96"
       inkscape:original-d="m 26.721813,287.06234 c 1.713373,0 3.426746,0 5.140119,0"
       clip-path="url(#clipPath106)" />
    <path
       style="fill:#ffffff;stroke:#000000;stroke-width:0.419094;stroke-linecap:butt;stroke-miterlimit:4;stroke-dasharray:none;paint-order:stroke fill markers"
       d="m 52.422409,286.30569 c -1.713373,0 -3.426746,0 -5.140119,0"
       id="path97"
       inkscape:path-effect="#path-effect97"
       inkscape:original-d="m 52.422409,286.30569 c -1.713373,0 -3.426746,0 -5.140119,0"
       clip-path="url(#clipPath101)" />
    <path
       style="fill:#ffffff;stroke:#000000;stroke-width:0.419094;stroke-linecap:butt;stroke-miterlimit:4;stroke-dasharray:none;paint-order:stroke fill markers"
       d="m 160.36491,286.68401 c 0.14278,5.92709 0.28557,11.85418 0.42835,17.78127"
       id="path98"
       inkscape:path-effect="#path-effect98"
       inkscape:original-d="m 160.36491,286.68401 c 0.14279,5.92709 0.28557,11.85418 0.42835,17.78127" />
    <path
       style="fill:#ffffff;stroke:#000000;stroke-width:0.419094;stroke-linecap:butt;stroke-miterlimit:4;stroke-dasharray:none;paint-order:stroke fill markers"
       d="m 52.993533,133.84079 c 0.571125,0 1.713373,0 2.284497,0 0.571125,0 -2.855621,0 -2.284497,0 z"
       id="path107"
       inkscape:path-effect="#path-effect107"
       inkscape:original-d="m 52.422409,133.84079 c 1.142249,0 2.284497,0 3.426746,0 z" />
    <path
       style="fill:#ffffff;stroke:#000000;stroke-width:0.419094;stroke-linecap:butt;stroke-miterlimit:4;stroke-dasharray:none;paint-order:stroke fill markers"
       d="m 7.8747089,231.07027 c 0,7.18817 0,14.37634 0,17.84431 0,3.46798 0,3.21577 0,2.96355"
       id="path108"
       inkscape:path-effect="#path-effect108"
       inkscape:original-d="m 7.8747089,231.07027 c 0,7.18817 0,14.37634 0,21.56451 0,-0.25222 0,-0.50443 0,-0.75665" />
    <path
       style="fill:#ffffff;stroke:#000000;stroke-width:0.419094;stroke-linecap:butt;stroke-miterlimit:4;stroke-dasharray:none;paint-order:stroke fill markers"
       d="m 21.15335,230.69194 c 0,7.06207 0,14.12413 0,21.18619"
       id="path109"
       inkscape:path-effect="#path-effect109"
       inkscape:original-d="m 21.15335,230.69194 c 0,7.06207 0,14.12413 0,21.18619" />
    <path
       style="fill:#ffffff;stroke:#000000;stroke-width:0.419094;stroke-linecap:butt;stroke-miterlimit:4;stroke-dasharray:none;paint-order:stroke fill markers"
       d="m 184.35214,98.656582 c -0.14278,6.053198 -0.28557,12.106398 -0.42835,18.159588"
       id="path110"
       inkscape:path-effect="#path-effect110"
       inkscape:original-d="m 184.35214,98.656582 c -0.14278,6.053198 -0.28556,12.106398 -0.42835,18.159588" />
    <path
       style="fill:#ffffff;stroke:#000000;stroke-width:0.419094;stroke-linecap:butt;stroke-miterlimit:4;stroke-dasharray:none;paint-order:stroke fill markers"
       d="m 195.91741,98.656582 c 0.14278,6.179308 0.28556,12.358608 0.42834,18.537918"
       id="path111"
       inkscape:path-effect="#path-effect111"
       inkscape:original-d="m 195.91741,98.656582 c 0.14278,6.179308 0.28556,12.358608 0.42834,18.537918" />
    <path
       style="fill:#ffffff;stroke:#000000;stroke-width:0.94296146;stroke-linecap:butt;stroke-miterlimit:4;stroke-dasharray:none;paint-order:stroke fill markers"
       d="m 106.822,135.35409 c 1.57059,-0.25222 3.14119,-0.50443 3.7837,-0.56749 0.64251,-0.0631 0.35695,0.0631 0.42835,22.25855 0.0714,22.1955 0.49973,66.45862 0.78529,94.83311 0.28557,28.37448 0.42835,40.85895 0.57113,53.34367"
       id="path113"
       inkscape:path-effect="#path-effect113"
       inkscape:original-d="m 106.822,135.35409 c 1.57059,-0.25222 3.14119,-0.50443 4.71178,-0.75665 -0.28557,0.12611 -0.57113,0.25221 -0.85669,0.37832 0.42835,44.26489 0.85669,88.52801 1.28503,132.79201 0.14279,12.48497 0.28557,24.96944 0.42835,37.45416"
       clip-path="url(#clipPath136)" />
    <path
       style="fill:#ffffff;stroke:#000000;stroke-width:0.94296;stroke-linecap:butt;stroke-miterlimit:4;stroke-dasharray:none;paint-order:stroke fill markers"
       d="m 108.53538,134.97576 c 0.99947,0.12611 1.99893,0.25222 2.9984,0.37833"
       id="path138"
       inkscape:path-effect="#path-effect138"
       inkscape:original-d="m 108.53538,134.97576 c 0.99947,0.12611 1.99893,0.25222 2.9984,0.37833" />
    <text
       xml:space="preserve"
       style="font-size:5.91387px;text-align:start;writing-mode:lr-tb;direction:ltr;text-anchor:start;fill:#000000;stroke:#000000;stroke-width:0.523867;stroke-linecap:butt;stroke-miterlimit:4;stroke-dasharray:none;paint-order:stroke fill markers"
       x="-266.02951"
       y="-4.7741084"
       id="text139"
       transform="matrix(0,-0.93980212,1.0640538,0,0,0)"><tspan
         sodipodi:role="line"
         id="tspan139"
         style="fill:#000000;stroke-width:0.523867;stroke-dasharray:none"
         x="-266.02951"
         y="-4.7741084">STAIRS</tspan></text>
    <text
       xml:space="preserve"
       style="font-size:5.91387px;text-align:start;writing-mode:lr-tb;direction:ltr;text-anchor:start;fill:#000000;stroke:#000000;stroke-width:0.523866;stroke-linecap:butt;stroke-miterlimit:4;stroke-dasharray:none;paint-order:stroke fill markers"
       x="105.07396"
       y="-156.78004"
       id="text140"
       transform="matrix(0,0.93980211,-1.0640538,0,0,0)"><tspan
         sodipodi:role="line"
         id="tspan140"
         style="stroke-width:0.523867"
         x="105.07396"
         y="-156.78004">STAIRS</tspan></text>
    <text
       xml:space="preserve"
       style="font-size:5.91387px;text-align:start;writing-mode:lr-tb;direction:ltr;text-anchor:start;fill:#000000;stroke:#000000;stroke-width:0.523866;stroke-linecap:butt;stroke-miterlimit:4;stroke-dasharray:none;paint-order:stroke fill markers"
       x="-321.27643"
       y="40.006287"
       id="text141"
       transform="matrix(0,-0.93980212,1.0640538,0,0,0)"><tspan
         sodipodi:role="line"
         id="tspan141"
         style="stroke-width:0.523867"
         x="-321.27643"
         y="40.006287">AR-003</tspan></text>
    <rect
       style="fill:#ffffff;stroke:#000000;stroke-width:1.04773495;stroke-linecap:butt;stroke-miterlimit:4;stroke-dasharray:none;paint-order:stroke fill markers"
       id="rect144"
       width="7.2818356"
       height="4.9182224"
       x="164.22"
       y="91.468407" />
    <text
       xml:space="preserve"
       style="font-size:5.91387px;text-align:start;writing-mode:lr-tb;direction:ltr;text-anchor:start;fill:#000000;stroke:#000000;stroke-width:0.523867;stroke-linecap:butt;stroke-miterlimit:4;stroke-dasharray:none;paint-order:stroke fill markers"
       x="129.77827"
       y="93.301727"
       id="text144"
       transform="scale(1.0640537,0.93980218)"><tspan
         sodipodi:role="line"
         id="tspan144"
         style="fill:#000000;stroke-width:0.523867;stroke-dasharray:none"
         x="129.77827"
         y="93.301727">WEATHER STATION</tspan></text>
  </g>
</svg>
