<?xml version="1.0" encoding="UTF-8" standalone="no"?>
<!-- Created with Inkscape (http://www.inkscape.org/) -->

<svg
   width="210mm"
   height="297mm"
   viewBox="0 0 210 297"
   version="1.1"
   id="svg1"
   inkscape:version="1.4 (86a8ad7, 2024-10-11)"
   sodipodi:docname="arch_002.svg"
   xmlns:inkscape="http://www.inkscape.org/namespaces/inkscape"
   xmlns:sodipodi="http://sodipodi.sourceforge.net/DTD/sodipodi-0.dtd"
   xmlns="http://www.w3.org/2000/svg"
   xmlns:svg="http://www.w3.org/2000/svg">
  <sodipodi:namedview
     id="namedview1"
     pagecolor="#ffffff"
     bordercolor="#000000"
     borderopacity="0.25"
     inkscape:showpageshadow="2"
     inkscape:pageopacity="0.0"
     inkscape:pagecheckerboard="0"
     inkscape:deskcolor="#d1d1d1"
     inkscape:document-units="mm"
     inkscape:zoom="0.68862935"
     inkscape:cx="396.43968"
     inkscape:cy="561.25984"
     inkscape:window-width="1920"
     inkscape:window-height="991"
     inkscape:window-x="-9"
     inkscape:window-y="-9"
     inkscape:window-maximized="1"
     inkscape:current-layer="g37"
     showguides="false" />
  <defs
     id="defs1">
    <clipPath
       clipPathUnits="userSpaceOnUse"
       id="clipPath133">
      <path
         id="path134"
         style="fill:#ff0000;fill-opacity:1;fill-rule:nonzero;stroke:none;stroke-width:0.277213"
         d="M 51.812564,133.93371 V 290.48312 H 111.63324 V 135.33505 c -0.28348,0.34855 -0.61135,0.66077 -0.97133,0.94339 -0.006,0.15483 -0.0127,0.30982 -0.0225,0.46457 -0.20638,0.72391 -0.16446,1.88461 -0.60146,2.533 -0.0682,0.10113 -0.18692,0.16761 -0.28057,0.25137 -0.22804,-0.1343 -0.50851,-0.21736 -0.68441,-0.403 -0.12255,-0.12933 -0.10084,-1.5053 -0.0807,-2.19564 -0.64034,-0.18495 -0.64011,-0.72102 -0.41019,-1.3067 0.0124,-0.0815 0.026,-0.16016 0.0392,-0.24272 -0.0549,-0.34145 -0.0619,-0.6828 -0.0639,-0.74697 0.0257,-0.0437 0.0144,-0.11386 -0.0127,-0.18827 -0.0356,0.006 -0.0716,0.0114 -0.10774,0.0147 -0.58893,0.0559 -0.85392,-0.2144 -0.74145,-0.52512 z m 56.528766,0.19234 c -0.008,0.005 0.003,0.0406 0.0461,0.12314 0.0207,-7.8e-4 0.0399,-5.2e-4 0.057,-0.003 -0.0475,-0.0743 -0.0924,-0.12604 -0.10312,-0.12009 z" />
    </clipPath>
    <clipPath
       clipPathUnits="userSpaceOnUse"
       id="clipPath92">
      <path
         id="path93"
         style="fill:#ff0000;fill-opacity:1;fill-rule:nonzero;stroke:none;stroke-width:0.264583"
         d="m 9.789498,92.980258 v 0.223571 c 0.1212708,-0.07883 0.248026,-0.153446 0.379045,-0.223571 z m 12.512228,0 c -0.06006,0.02724 -0.124307,0.05227 -0.193263,0.07436 0.02075,0.04115 0.0393,0.08254 0.05611,0.122127 0.386987,0.911628 -0.112647,1.334684 -1.032401,1.645264 -0.998292,0.257126 -1.984504,0.534601 -2.99994,0.737193 -0.908507,0.171504 -1.828762,0.279677 -2.753064,0.313689 -0.771697,1.239054 -1.392272,2.577022 -2.795458,3.383109 -0.130385,0.06147 -0.26301,0.118634 -0.396501,0.171864 0.294671,0.01087 0.581892,0.06561 0.824797,0.230956 0.162994,0.110959 0.293087,0.263953 0.439518,0.39593 -0.09461,0.46533 -0.05329,0.98121 -0.284284,1.39608 -0.09533,0.17122 -0.653279,0.27857 -1.241248,0.34619 0.04652,0.80117 -0.347119,1.38135 -0.946365,1.88755 0.09813,0.40961 0.183423,0.8221 0.225058,1.24343 0.04889,0.29785 0.140358,0.58409 0.208225,0.87606 0.255553,0.0402 0.512055,0.0718 0.769935,0.0955 0.02861,-0.2587 0.145155,-0.51729 0.389644,-0.7697 0.67733,-0.69929 1.581143,-0.49872 2.3815,-0.44812 1.282599,0.23462 3.467909,0.5366 2.14522,2.55481 -0.131574,0.20076 -0.661998,0.3301 -1.169553,0.41858 1.462569,1.30355 2.974578,2.62477 3.918254,4.35077 0.234908,0.84067 0.432484,1.11046 0.195756,1.99539 -0.488452,1.82592 -2.463747,2.63141 -4.009274,3.30777 -1.229841,0.56433 -2.457936,1.1296 -3.662648,1.74326 0.03158,0.64449 0.07302,1.28814 0.08541,1.93334 0.0027,0.46044 0.01182,0.9217 0.01746,1.3823 1.702636,-0.78854 3.352416,-1.69013 4.974343,-2.63262 1.136621,-0.66048 1.935503,-0.0745 1.79236,0.66431 0.09919,0.2175 0.161468,0.49148 0.161468,0.8283 v 6.28017 c 0.01392,-0.0524 0.03348,-0.10452 0.04426,-0.15709 0.499613,-0.0396 1.010274,-0.22866 1.499346,-0.11917 0.222064,0.0497 0.331383,0.30682 0.448869,0.51116 0.02088,-0.0247 0.04013,-0.0504 0.0611,-0.0749 0.164415,-0.19242 0.280347,-0.52679 0.533032,-0.54119 1.963067,-0.11215 1.662883,0.32275 1.598472,1.53101 1.032177,-0.0755 2.065376,-0.13096 3.099692,-0.17334 0.740129,-0.73012 1.464164,-1.47688 2.185744,-2.22537 -0.111291,-0.11236 -0.18913,-0.21939 -0.307973,-0.33387 -0.7851,-0.60714 -0.398369,-0.31976 -1.158333,-0.86376 -1.159814,-0.83022 -0.818545,-1.91744 0.07606,-1.94073 0.298196,-0.008 0.6577,0.10247 1.043621,0.38017 0.881328,0.63416 0.419522,0.28683 1.37965,1.0494 0.17987,0.17728 0.331083,0.36694 0.501859,0.5481 0.04724,-0.009 0.09472,-0.0164 0.140896,-0.0172 0.457705,-0.007 0.861459,0.39465 1.172046,1.46454 0.02148,0.0739 0.02614,0.14913 0.02493,0.22455 0.04899,0.0728 0.10026,0.14386 0.14713,0.21768 0.285164,0.15939 0.552688,0.35657 0.790508,0.56877 0.115412,0.10292 -0.124566,0.26006 -0.230044,0.39641 0.0666,0.14251 0.09808,0.30207 0.156479,0.44862 0.867376,0.01 1.734673,0.0257 2.601571,0.0522 2.497263,0.0763 4.727373,0.19975 7.186892,0.52544 0.889634,0.11776 1.766251,0.30129 2.649578,0.45156 1.66023,0.48451 3.76591,0.79149 4.486195,2.4519 0.621219,1.43208 -0.302856,2.48291 -1.200722,3.53134 -0.363478,0.27152 -0.748671,0.54098 -1.148358,0.79874 H 191.92439 v -35.96436 c -0.27324,-0.0459 -0.57904,-0.10525 -0.96507,-0.19205 -0.33326,-0.07494 -0.32772,-1.18311 -0.34413,-1.412832 0.003,-0.292939 -0.0106,-0.585186 -0.0293,-0.877047 -0.74716,-0.08363 -1.51487,-0.247277 -2.05919,-0.347175 -0.6301,-0.07931 -1.2629,-0.141827 -1.89522,-0.206828 -1.21852,0.324035 -2.39878,0.733229 -3.64644,0.988341 -1.68826,0.346191 -3.4116,0.558891 -5.14641,0.699767 -2.57529,0.137262 -5.15215,-0.08212 -7.71993,-0.233913 -0.98812,-0.08762 -1.96792,-0.181043 -2.91578,-0.349637 -0.57883,0.04658 -1.159,0.07997 -1.74311,0.0719 -0.97638,-0.08566 -1.98542,-0.154547 -1.9613,-1.404458 -1.19053,-0.599642 -2.36878,-1.249816 -3.22189,-2.14756 -0.54369,-0.821326 -0.58655,-1.309329 -0.33291,-1.857016 z m 143.297114,0 c -0.003,0.01313 -0.006,0.01145 -0.009,0.02413 0.0294,0.148942 0.0654,0.298199 0.0923,0.445171 0.003,0.01405 0.0114,0.09694 0.0162,0.133946 0.0582,0.01956 0.11855,0.03157 0.17643,0.0522 0.11412,-0.0069 0.22817,-0.01447 0.34227,-0.02167 0.47015,-0.01674 0.94223,-0.02469 1.41456,-0.02462 -0.0282,-0.03409 -0.0479,-0.05701 -0.0773,-0.09258 -0.009,-0.01072 0.005,-0.02392 -0.001,-0.03496 -0.4427,-0.130714 -0.87159,-0.285175 -1.27553,-0.481613 z m 8.67128,0 c 0.003,5.55e-4 0.007,4.29e-4 0.01,9.83e-4 2.2e-4,-1.6e-4 3.2e-4,-8.32e-4 6.4e-4,-9.83e-4 z M 20.259994,94.040003 c 0.01531,0.02433 0.03155,0.0491 0.04364,0.07337 0.0048,0.0096 0.04103,0.01959 0.03367,0.01133 -0.03343,-0.0378 -0.05202,-0.05703 -0.07731,-0.0847 z m -9.440591,0.85144 c -0.279772,0.217721 -0.502018,0.48239 -0.69637,0.766248 0.274563,0.308728 0.306803,0.70748 0.193886,1.224222 0.291905,0.190835 0.56069,0.47547 0.750609,0.698782 0.03764,0.06181 0.07021,0.114519 0.128427,0.204858 0.02947,-0.0081 0.06361,-0.01392 0.08479,-0.0261 0.07962,-0.04577 0.156849,-0.09565 0.235033,-0.143302 0.693743,-0.480633 1.113525,-1.146945 1.504958,-1.826977 -0.866267,-0.0798 -1.982355,-0.244687 -2.201329,-0.897731 z m 168.160727,0.09947 c -0.17696,0.05772 -0.35954,0.113569 -0.58042,0.150688 -0.11493,0.01932 -0.2294,0.04162 -0.34413,0.06205 -0.40914,0.613319 -1.2977,0.807184 -2.64272,0.982923 -0.23869,0.0064 -0.48051,0.0091 -0.72317,0.0094 -0.0667,0.173034 -0.15072,0.342969 -0.22818,0.514114 1.05998,0.04459 2.12042,0.06357 3.17949,0 0.95311,-0.08267 1.90287,-0.186804 2.84471,-0.32403 -1.16257,-0.296977 -1.62381,-0.895662 -1.50558,-1.395101 z M 11.291963,97.931317 c 0.100293,0.150558 0.187142,0.273888 0.165209,0.21126 -0.02522,-0.07204 -0.07738,-0.136628 -0.134661,-0.192547 -0.0079,-0.0077 -0.01997,-0.01282 -0.03055,-0.01871 z m -1.214441,1.577798 c -0.095913,0.02558 -0.1921056,0.04704 -0.288024,0.06451 v 0.325509 c 0.039352,0.04102 0.081148,0.07405 0.1209452,0.113756 0.1064808,-0.005 0.2127088,-0.0105 0.3191958,-0.01576 0.123147,-0.110389 0.276357,-0.203511 0.445129,-0.286604 -0.213446,-0.02226 -0.410616,-0.09754 -0.597246,-0.201412 z m 3.965635,6.152135 c -0.02291,7.6e-4 -0.03704,0.15311 -0.0056,0.19797 0.01437,0.0203 0.04005,0.0499 0.06234,0.0763 0.01773,-10e-4 0.03589,-0.003 0.05362,-0.004 -0.02018,-0.0763 -0.0502,-0.16126 -0.09975,-0.26051 -0.0034,-0.007 -0.0073,-0.01 -0.0106,-0.01 z m 1.960685,1.24343 c 0.0067,0.0263 0.0095,0.0533 0.01746,0.0793 0.01071,0.035 0.138713,-0.0121 0.105983,-0.0286 -0.04004,-0.0199 -0.08216,-0.0333 -0.123439,-0.0507 z m -4.310391,0.87114 c -0.132659,0.51125 -0.539044,0.76354 -0.975667,0.63181 0.0095,0.0421 0.01781,0.085 0.02743,0.12705 0.249851,1.09459 0.414233,2.20654 0.578543,3.31663 0.119598,1.00657 0.266726,2.01139 0.49812,2.999 0.179212,0.70367 0.292062,1.41931 0.385279,2.13771 1.000298,-0.49158 2.012241,-0.95938 3.025503,-1.42465 0.808427,-0.39892 2.95914,-1.05408 3.03236,-2.2884 0.01383,-0.23306 -0.141015,-0.46302 -0.237526,-0.65397 -1.062658,-1.5488 -2.549117,-2.77598 -3.934463,-4.03067 -0.203816,-0.18976 -0.494758,-0.43475 -0.789262,-0.71307 -0.540234,-0.003 -1.077233,-0.0383 -1.610317,-0.10144 z m 5.788542,14.13864 c -1.49078,0.84294 -3.003245,1.64832 -4.56288,2.35537 0.381154,0.34482 0.380337,0.86256 -0.0044,1.206 0.09077,0.62633 0.165708,1.25359 0.1783,1.88706 -0.0021,0.0343 -0.01386,0.0577 -0.01683,0.0911 1.438149,1.01965 0.72418,2.22672 -0.903973,1.65659 -0.155024,0.0968 -0.333009,0.17709 -0.525551,0.24721 0.237902,0.26186 0.47096,0.52935 0.729412,0.68942 0.166552,0.10315 0.29248,0.21047 0.399619,0.31862 0.351972,-0.10679 0.722669,-0.20263 1.122173,-0.30236 1.312922,-0.32774 2.438406,-0.53171 3.584095,-0.70223 v -1.30548 z m -7.468684,2.22192 c 0.0059,0.0495 0.01985,0.0975 0.02681,0.14675 0.02186,-0.0205 0.04531,-0.0408 0.06982,-0.0601 -0.0304,-0.0346 -0.0676,-0.0479 -0.09663,-0.0867 z m 0.352861,4.22814 c -0.05675,0.0192 -0.120162,0.0387 -0.19451,0.062 -0.004,0.002 -0.0072,0.003 -0.0106,0.003 -0.03104,0.01 -0.05214,0.017 -0.08666,0.0281 -0.03658,0.009 -0.07319,0.0194 -0.1097237,0.029 0.1702837,0.0249 0.3408657,0.0485 0.5080957,0.0822 0.02127,-0.0303 0.03421,-0.0586 0.05735,-0.0891 -0.05621,-0.0246 -0.108177,-0.0831 -0.163962,-0.11524 z m 20.765187,1.91956 c -0.0263,2e-5 -0.05286,0.001 -0.07918,0.001 -0.203943,0.96638 -0.341533,1.94582 -0.48565,2.92365 0.08729,0.0156 0.177531,0.0237 0.254358,0.068 0.145943,-0.38192 0.250917,-0.75068 0.324807,-0.9844 0.09245,-0.75579 0.07015,-1.4036 -0.01433,-2.00771 z m 1.984373,0.0148 c 0.02761,0.26034 0.0439,0.52624 0.0424,0.80122 -0.0034,0.6188 -0.137152,1.23031 -0.205734,1.84519 -0.104039,0.26533 -0.181205,0.48279 -0.264955,0.71505 0.94669,-0.10198 1.89497,-0.0619 2.824133,0.20829 0.07008,-0.0927 0.153721,-0.20554 0.420192,-0.55597 1.182126,-1.55447 2.960207,-0.50017 1.77802,1.05434 -0.11386,0.14966 -0.11929,0.15797 -0.177051,0.2339 1.270214,0.48735 2.542241,0.97493 3.894562,1.24541 0.521017,0.0732 1.135728,0.20785 1.67266,0.10193 1.157241,-0.2284 2.629213,-1.07963 3.561651,-1.71568 0.246789,-0.24768 1.465425,-1.41529 0.915195,-1.85554 -0.644348,-0.51562 -2.242868,-0.88447 -2.935727,-1.08929 -0.829807,-0.14305 -1.653403,-0.31725 -2.489354,-0.42892 -2.395559,-0.32003 -4.539556,-0.43821 -6.975553,-0.51363 -0.686555,-0.0213 -1.373516,-0.0356 -2.060435,-0.0463 z m -8.646341,0.19649 c -0.458755,0.03 -0.91706,0.061 -1.375284,0.098 -0.04342,0.15751 -0.0574,0.20766 -0.09975,0.36145 0.110719,0.11113 0.215151,0.23319 0.328548,0.34028 0.06531,-0.0529 0.134136,-0.10491 0.21134,-0.15462 0.02024,-0.013 0.03909,-0.0164 0.05923,-0.0286 0.396876,-0.26986 0.608806,-0.40998 0.875919,-0.61654 z m -14.033395,0.51216 c 0.0021,0.2338 0.0084,0.46759 0.0187,0.70124 0.0154,-0.0196 0.02948,-0.0428 0.04613,-0.0596 0.106321,-0.10783 0.214738,-0.20382 0.324183,-0.29547 -0.136804,-0.10891 -0.264693,-0.2261 -0.38902,-0.34618 z m 15.974756,0.36785 c -0.08038,0.069 -0.164768,0.13369 -0.246256,0.2014 0.01564,0.015 0.03444,0.0251 0.04987,0.0404 0.09903,-0.0684 0.198974,-0.13731 0.296128,-0.20781 -0.02506,0.003 -0.05044,0.005 -0.07543,0.008 -0.0071,-0.0143 -0.01692,-0.0277 -0.02432,-0.0419 z m -9.953675,0.0822 c -0.553239,0.10431 -1.150575,0.22902 -1.860313,0.39396 -0.560631,0.13029 -1.095929,0.33509 -1.652711,0.47767 -0.154322,0.0395 -0.340666,-0.01 -0.475677,0.0675 -0.198777,0.11334 -0.267352,0.71754 -0.288648,0.81944 -0.02867,0.32551 -0.05974,0.75849 -0.100372,1.20797 0.02333,0.0124 0.04156,0.0162 0.06546,0.0296 0.0635,0.0899 0.118119,0.18209 0.169573,0.27577 0.430447,-0.52149 0.933225,-0.32907 1.526778,0.006 0.04247,0.0339 0.07778,0.0684 0.115958,0.10291 0.176838,0.061 0.358937,0.13885 0.541137,0.19994 0.03275,-0.0917 0.06781,-0.182 0.111594,-0.26887 0.136314,-0.27043 0.439404,-0.48054 0.619689,-0.71848 0.02705,-0.0357 0.05183,-0.0729 0.07793,-0.10934 -0.271189,-0.58331 0.666178,-1.76408 0.835396,-2.09388 0.104735,-0.12987 0.213353,-0.25666 0.314208,-0.39001 z m 12.335796,0.6067 -0.160843,0.19992 c -0.303964,0.37684 -0.62775,0.57772 -0.921429,0.64609 -0.03794,0.0286 -0.07657,0.0549 -0.11471,0.0832 0.289901,0.39815 0.382001,0.99187 0.414578,1.52068 0.102434,0.0418 0.205164,0.0795 0.307977,0.11375 0.02285,-0.008 0.06258,-0.0222 0.08541,-0.03 0.15909,-0.83793 0.268613,-1.68695 0.38902,-2.53362 z m 5.382066,3.50276 c -0.277467,-0.007 -0.482461,0.14945 -0.706968,0.41415 0.123807,0.0836 0.214471,0.1592 0.289272,0.23194 h 0.359717 c -0.008,-0.0722 -0.01717,-0.14297 -0.02119,-0.22111 -0.0032,-0.0599 0.08784,-0.2237 0.203238,-0.41168 -0.04286,-0.008 -0.08443,-0.0123 -0.124065,-0.0133 z m 0.588517,0.26495 c -0.03421,0.0257 -0.06574,0.0474 -0.103489,0.0788 0.01625,-0.007 0.03469,-0.004 0.07107,0.0162 0.04998,0.0275 0.116886,0.14426 0.139026,0.096 0.01826,-0.0397 -0.0376,-0.11709 -0.106609,-0.19058 z m -9.287848,0.24474 c -0.04413,0.0457 -0.09074,0.0884 -0.133415,0.13592 h 0.178926 c -0.01689,-0.0452 -0.03173,-0.0906 -0.04551,-0.13592 z" />
    </clipPath>
    <clipPath
       clipPathUnits="userSpaceOnUse"
       id="clipPath15">
      <path
         id="path15"
         style="fill:#ff0000;fill-opacity:1;fill-rule:nonzero;stroke:none;stroke-width:0.283689"
         d="m 218.38835,90.355517 v 0.135423 c 0.0454,-0.04189 0.0984,-0.08741 0.15772,-0.135423 z m 0.99623,2.458294 c -0.14272,0.0941 -0.78936,0.171292 -0.92454,0.191561 -0.0201,6.56e-4 -0.0492,0.0016 -0.0717,0.0025 v 90.284678 h 0.99623 z" />
    </clipPath>
    <clipPath
       clipPathUnits="userSpaceOnUse"
       id="clipPath77">
      <path
         id="path78"
         style="fill:#ff0000;fill-opacity:1;fill-rule:nonzero;stroke:none;stroke-width:0.277213"
         d="m 10.168827,120.58941 v 94.70104 c 0.212682,-0.066 0.425927,-0.12998 0.641792,-0.17656 -0.01454,-0.0244 -0.01888,-0.049 -0.01094,-0.0733 0.639908,-1.9563 0.945936,-1.64805 2.35342,-1.51888 0.25016,0.0447 0.500938,0.0863 0.751252,0.13026 1.581663,-1.02326 3.170087,-2.03796 4.77367,-3.03522 v 0.001 c 0.433393,-0.26953 0.837546,-0.37612 1.172967,-0.36789 0.635492,0.0156 1.018012,0.44533 0.89067,0.96273 0.239436,-0.1791 0.673555,-0.13836 0.988609,-0.23203 1.440296,0.0126 2.87723,0.0544 4.313933,0.15265 0.381198,0.0261 0.884295,0.0431 1.382095,0.11652 v -90.66038 z m 17.257461,91.03893 c -0.349374,0.008 -0.480603,0.12027 -0.5041,0.2819 0.169313,-0.0495 0.337321,-0.10314 0.5041,-0.15927 z m -7.086763,0.20913 c -0.110425,0.10399 -0.23576,0.20698 -0.39464,0.30581 -1.06044,0.65967 -2.114204,1.327 -3.165161,1.99771 0.338982,0.0559 0.677631,0.1126 1.016837,0.1674 0.170797,-0.0314 0.32624,-0.0462 0.462044,-0.0412 0.751707,-0.30909 1.526878,-0.5683 2.314244,-0.79837 -0.368559,-0.45069 -0.527072,-0.96689 -0.233324,-1.63134 z m 7.086763,1.91222 c -0.122548,0.0358 -0.250116,0.059 -0.373322,0.0931 0.124085,0.0146 0.24878,0.0268 0.373322,0.0387 z m -0.875691,0.21829 c -0.132964,0.0345 -0.266871,0.0667 -0.400401,0.0997 0.137916,0.0251 0.276708,0.0525 0.409041,0.0834 -5.6e-5,-0.0611 -0.003,-0.12217 -0.0086,-0.18318 z m -1.531309,0.38214 c -0.09493,0.0214 -0.187244,0.0491 -0.282295,0.0702 0.0662,0.0952 0.117776,0.19879 0.173985,0.2997 0.01894,-0.10947 0.05572,-0.23185 0.10831,-0.36992 z m -2.632835,0.60094 c -0.0045,10e-4 -0.0088,0.003 -0.01324,0.004 0.0093,0.002 0.0179,0.004 0.02708,0.007 -0.0045,-0.003 -0.0093,-0.007 -0.01383,-0.0102 z m 2.782624,0.39384 c 0.0015,0.0226 -7.4e-5,0.0445 0.0018,0.0672 0.05205,0.004 0.103547,0.0101 0.155553,0.0143 -0.05823,-0.0258 -0.111691,-0.0526 -0.157281,-0.0814 z m -0.871081,2.05469 c -0.144769,0.0405 -0.335847,0.0464 -0.546155,0.0331 -0.04613,0.0382 -0.08252,0.0716 -0.131931,0.11144 -0.256479,0.20687 -0.642007,0.13848 -1.018569,0.0896 -0.07187,0.0138 -0.143653,0.0275 -0.216041,0.0402 -0.214157,0.16606 -0.435585,0.32622 -0.664258,0.48086 0.315506,0.21149 0.642784,0.42356 0.910259,0.54547 0.310536,0.14156 0.649016,0.22868 0.973631,0.34296 1.25204,0.3404 2.531209,0.60613 3.821356,0.80804 v -1.07722 c -0.398808,-0.32209 -0.769024,-0.65647 -1.160293,-1.11283 0.006,-0.0195 0.0097,-0.0402 0.01498,-0.06 -0.660842,-0.0683 -1.321474,-0.13625 -1.982979,-0.2015 z m -9.94774,0.13993 c -0.538585,0.19775 -1.47735,0.53428 -2.276223,0.78921 0.02339,0.24498 0.04323,0.49052 0.06049,0.73578 0.0063,0.30922 0.01171,0.65916 0.01038,1.01971 0.08044,0.0176 0.186323,0.0414 0.275383,0.0611 0.146683,-0.0284 0.274998,-0.0548 0.448791,-0.087 0.09671,-0.0179 0.09901,0.0866 0.08699,0.20558 0.0045,0.001 0.007,0.002 0.01153,0.003 0.260016,0.0582 0.229241,0.42849 0.343937,0.64266 0.105865,0.17335 0.220307,0.35845 0.334723,0.54904 -0.04758,-0.14202 -0.08256,-0.2904 -0.113495,-0.44066 -0.188247,-0.21523 -0.343177,-0.44281 -0.39867,-0.70626 -0.03841,-0.18235 0.253326,-0.20871 0.521383,-0.2473 1.003419,-0.47591 2.011856,-0.94598 3.011918,-1.42882 -0.05886,-0.19615 -0.08291,-0.40256 -0.07144,-0.61875 -0.267815,-0.0265 -0.534975,-0.0575 -0.800796,-0.10075 -0.486098,-0.11197 -0.965979,-0.24266 -1.444892,-0.37603 z m 5.47019,1.72751 c -0.05818,0.0302 -0.113734,0.0627 -0.172259,0.0926 -0.327015,0.33778 -0.636011,0.6933 -1.036427,0.95865 -0.296456,0.19645 -0.699771,0.21688 -1.043915,0.33838 -1.145663,0.40446 -1.597214,0.61511 -2.733656,1.065 -0.280767,0.11115 -0.643819,0.52975 -0.846309,0.32515 -0.0126,-0.0127 -0.02094,-0.0276 -0.03284,-0.0407 0.46304,0.88012 0.752308,1.83325 0.08066,2.58287 0.110289,0.19095 0.201405,0.38467 0.144028,0.57956 -0.115891,0.39363 -0.365886,0.76413 -0.682693,1.07111 -0.0075,0.0601 -0.0098,0.11616 -0.02018,0.1786 -0.243618,0.84811 -0.201325,1.78027 -0.66541,2.57371 -0.114861,0.19637 -0.275251,0.36862 -0.413073,0.55311 -0.270691,0.34972 -0.603358,0.59975 -0.975359,0.78005 h 16.003263 v -8.55409 c -0.0729,-0.0108 -0.160414,-0.023 -0.222959,-0.0326 -1.497585,-0.22817 -2.982324,-0.53724 -4.428001,-0.95204 -0.444522,-0.17123 -0.905156,-0.31342 -1.333702,-0.51392 -0.313373,-0.14661 -0.595583,-0.34035 -0.883181,-0.5236 -0.232758,-0.14831 -0.489122,-0.30753 -0.738,-0.48187 z m -9.651619,6.42969 v 1.16219 c 0.04259,-0.0494 0.08666,-0.0978 0.125595,-0.14909 -0.109458,-0.12199 0.01504,-0.44042 0.169377,-0.73629 -0.100304,-0.0914 -0.196694,-0.18452 -0.294972,-0.27681 z m 0.285752,0.76326 c -0.01035,-0.009 -0.08032,0.0612 -0.107732,0.087 -0.0024,0.0209 0.0029,0.0553 0.0063,0.087 0.01062,-0.0153 0.02383,-0.0292 0.03399,-0.0448 0.05877,-0.0898 0.07362,-0.12373 0.0674,-0.12924 z" />
    </clipPath>
    <clipPath
       clipPathUnits="userSpaceOnUse"
       id="clipPath80">
      <path
         id="path80"
         style="fill:#ff0000;fill-opacity:1;fill-rule:nonzero;stroke:none;stroke-width:0.277213"
         d="m 12.708908,253.15672 c 0.442762,0.3617 0.520094,0.80302 0.332995,1.12861 0.845902,0.0422 1.679153,0.17448 2.532014,0.27884 0.316364,0.0387 0.633221,0.0768 0.950012,0.115 0.144111,-0.2417 0.643058,-0.34908 0.959227,-0.45999 0.242182,-0.0846 0.521389,-0.0145 0.781785,-0.006 1.18364,0.0398 2.361315,0.0867 3.463013,0.51342 -0.05493,0.28627 -0.06856,0.58388 -0.103125,0.87571 0.68136,0.16681 1.358652,0.34105 2.015245,0.56023 1.318739,-0.0288 2.637868,-0.0691 3.95271,-0.16436 v -2.84186 z m -3.2942129,0.82432 c -0.01289,-9e-5 -0.031771,0.002 -0.047239,0.003 v 0.0203 c 0.070341,0.0144 0.1407095,0.0286 0.2114314,0.0417 -0.00997,-0.0388 -0.055195,-0.0644 -0.164192,-0.0651 z m -0.047239,1.96921 v 0.0331 c 0.046794,-0.003 0.1035551,-0.006 0.1520923,-0.009 -0.051649,-0.007 -0.1008088,-0.0167 -0.1520923,-0.0244 z m 5.4932329,1.8191 c 0.277558,1.35614 -0.780036,1.49887 -2.028492,1.46698 -1.235979,-0.15089 -0.289085,0.0275 0.08296,-0.26968 -0.08875,-0.1031 -0.106109,-0.24345 -0.08872,-0.40402 -0.111451,-0.0351 -0.240474,-0.0823 -0.385419,-0.12772 -0.09187,-0.0292 -0.378184,-0.0946 -0.712653,-0.17097 0.01684,0.21709 0.04341,0.42765 0.06625,0.56736 0.02504,0.15304 0.363108,0.0966 0.459162,0.22592 0.217201,0.29242 -2.080599,-1.0491 -1.156258,-0.24068 -0.190978,-0.0316 -0.984193,-0.14538 -1.7300649,-0.27325 v 29.41039 H 27.592784 v -29.50503 c -0.504236,0.5381 -1.363781,0.65572 -2.101084,0.85638 -0.552685,0.1391 -1.111957,0.25652 -1.67188,0.37145 -0.01838,0.18036 -0.04978,0.38795 -0.09621,0.63452 -0.08728,0.46352 -2.467959,0.28591 -2.813734,0.21728 -0.31294,-0.34213 -0.803713,-0.61229 -1.033548,-0.98817 -0.861565,-0.15067 -1.727756,-0.29739 -2.479589,-0.67828 -0.195137,-0.0989 -0.50305,-0.17493 -0.527144,-0.37247 -0.01209,-0.0992 -0.0089,-0.19804 0,-0.29666 -0.260514,-0.0283 -0.508056,-0.13666 -0.765653,-0.18979 -0.444077,-0.0917 -0.843259,-0.16471 -1.243253,-0.23356 z" />
    </clipPath>
    <clipPath
       clipPathUnits="userSpaceOnUse"
       id="clipPath104">
      <path
         id="path105"
         style="fill:#ff0000;fill-opacity:1;fill-rule:nonzero;stroke:none;stroke-width:0.277213"
         d="m 28.253009,274.77373 v 32.52195 h 22.209723 v -32.52195 z m 1.657476,9.44202 c 0.01531,0.0375 0.02826,0.0757 0.04263,0.11347 0.04058,-0.0312 0.07509,-0.029 0.003,0.008 0.240397,0.63477 0.355155,1.29903 0.482783,1.95751 0.0038,0.0335 0.0088,0.0672 0.01324,0.10075 0.06485,-0.26864 0.146824,-0.53549 0.24427,-0.80092 0.920471,-1.13471 1.398877,0.0755 1.613116,0.86299 0.145217,0.006 0.281543,0.0756 0.418258,0.14401 -0.0024,-0.51491 -0.01,-1.0303 -0.0092,-1.54637 0.0012,-0.74904 0.854118,-0.74904 0.856681,0 0.0058,1.66761 0.07571,3.32836 -0.221806,4.9795 -0.06712,0.50789 -0.589535,1.9268 -1.372299,0.84111 -0.09108,-0.12633 -0.029,-1.00828 -0.02419,-1.1225 -0.0067,-0.21676 0.0047,-0.43468 0.02419,-0.65334 -0.0089,0.0247 -0.01841,0.0497 -0.02708,0.0743 -0.126519,0.29635 -0.29302,1.1518 -0.932724,0.99579 -0.004,-10e-4 -0.0076,-0.003 -0.01153,-0.004 -0.07202,0.68383 -0.32255,1.33648 -1.102102,0.35671 -0.06847,-0.15685 -0.120153,-0.31731 -0.162466,-0.47985 -0.02608,0.007 -0.05228,0.0151 -0.07835,0.0219 -0.06007,0.0156 -0.0418,-0.10412 -0.0628,-0.15621 -0.02209,-0.13627 -0.171478,-1.40243 -0.168803,-1.4044 0.0082,-0.008 0.01737,-0.0141 0.02593,-0.0214 -0.0027,-0.0157 -0.0063,-0.0324 -0.0086,-0.0473 -0.0534,-0.33488 -0.06805,-0.66794 -0.05243,-1.00496 2.95e-4,-0.008 0.0012,-0.0145 0.0018,-0.0219 -0.02894,-0.6383 -0.03409,-1.27751 -0.107732,-1.91272 -0.02699,-0.087 -0.352985,-1.20983 -0.22526,-1.24055 0.271157,-0.0653 0.561065,-0.0265 0.841699,-0.0397 z m 0.04551,0.1211 c -8.85e-4,-0.003 -0.0018,-0.005 -0.0029,-0.008 -0.0063,0.005 -0.01221,0.0108 -0.01844,0.0173 0.0063,-0.003 0.01613,-0.007 0.02133,-0.01 z m 17.754642,0.058 c 0.214172,0 0.428054,0.18723 0.428054,0.56176 v 0.086 c 0.05323,-0.0308 0.112962,-0.0609 0.180899,-0.0906 0.279809,-0.12219 0.52151,0.38408 0.656193,0.74545 0.01168,-0.004 0.02363,-0.008 0.03514,-0.0117 0.243556,0.44191 0.573332,0.80569 0.220649,0.99021 0.01431,0.006 0.02817,0.0132 0.04206,0.0204 0.05007,0.026 0.08309,0.44742 0.08699,0.48847 0.0039,0.0416 0.007,0.083 0.01038,0.12468 0.0062,0.003 0.01236,0.007 0.01844,0.0107 -8.85e-4,0.006 -0.0018,0.0109 -0.0029,0.0163 0.0061,-0.001 0.008,-0.007 0.0086,-0.0127 -0.0021,-0.001 -0.0038,-0.002 -0.0058,-0.004 0.0018,-0.0108 0.0037,-0.0213 0.0052,-0.0326 -0.0021,0.0102 0.0018,0.0251 5.9e-4,0.0361 v 5.2e-4 c 0.0051,0.003 0.01053,0.006 0.01554,0.009 0.0055,0.004 -0.0018,0.0506 -0.01324,0.11347 0.01147,0.0313 0.01849,0.0593 -0.0092,0.0621 -8.85e-4,10e-5 -0.0021,-9e-5 -0.0029,0 -0.04129,0.20329 -0.121454,0.53528 -0.194152,0.82686 0.03862,0.20139 0.05775,0.37209 0.01785,0.40046 -0.04316,0.0307 -0.08976,0.056 -0.138842,0.0773 -2.95e-4,0.002 -0.0024,0.009 -0.0029,0.0102 -0.189542,0.52674 -0.289203,1.05814 -1.110744,0.40808 -0.02392,-0.0189 0.0096,-0.52191 0.01729,-0.66098 0.04676,-0.16602 0.07897,-0.34147 0.107735,-0.52003 -0.05418,-0.28631 -0.08724,-0.57822 -0.119835,-0.8691 -0.316892,0.20712 -0.630164,0.24589 -0.67981,-0.34245 v -1.88219 c 0,-0.37453 0.214454,-0.56176 0.428626,-0.56176 z m -16.101198,1.37539 c -0.0015,-0.005 -0.07172,0.0447 -0.09967,0.0606 -0.006,0.016 -0.01139,0.0319 -0.01728,0.0478 0.04195,-0.0301 0.08019,-0.065 0.113495,-0.10227 0.0029,-0.003 0.0037,-0.005 0.0035,-0.006 z m -0.251762,0.51647 c -0.102615,0.35067 -0.171369,0.70437 -0.203943,1.06093 0.0663,-0.0568 0.143972,-0.0999 0.236782,-0.1211 0.07407,-0.0169 0.141325,-0.0224 0.203366,-0.0193 -0.01776,-0.0985 -0.03463,-0.19692 -0.04782,-0.29512 -0.01053,-0.046 -0.110401,-0.36602 -0.188388,-0.62537 z m 0.603189,0.51851 c -0.393752,0.0381 -0.299562,0.0734 -0.06971,0.11652 0.02106,-0.0366 0.04269,-0.0727 0.0651,-0.10838 0.0015,-0.003 0.003,-0.006 0.0046,-0.008 z m 0.316287,3.77609 c -0.04305,0.0545 -0.07388,0.15222 -0.05531,0.11246 0.02195,-0.047 0.03986,-0.0827 0.05531,-0.11246 z" />
    </clipPath>
    <inkscape:path-effect
       effect="bspline"
       id="path-effect38"
       is_visible="true"
       lpeversion="1.3"
       weight="33.333333"
       steps="2"
       helper_size="0"
       apply_no_weight="true"
       apply_with_weight="true"
       only_selected="false"
       uniform="false" />
    <inkscape:path-effect
       effect="bspline"
       id="path-effect40"
       is_visible="true"
       lpeversion="1.3"
       weight="33.333333"
       steps="2"
       helper_size="0"
       apply_no_weight="true"
       apply_with_weight="true"
       only_selected="false"
       uniform="false" />
    <inkscape:path-effect
       effect="bspline"
       id="path-effect42"
       is_visible="true"
       lpeversion="1.3"
       weight="33.333333"
       steps="2"
       helper_size="0"
       apply_no_weight="true"
       apply_with_weight="true"
       only_selected="false"
       uniform="false" />
    <inkscape:path-effect
       effect="bspline"
       id="path-effect44"
       is_visible="true"
       lpeversion="1.3"
       weight="33.333333"
       steps="2"
       helper_size="0"
       apply_no_weight="true"
       apply_with_weight="true"
       only_selected="false"
       uniform="false" />
    <clipPath
       clipPathUnits="userSpaceOnUse"
       id="clipPath106">
      <path
         id="path106"
         style="fill:#ff0000;fill-opacity:1;fill-rule:nonzero;stroke:none;stroke-width:0.277213"
         d="m 26.7217,286.85255 v 0.41928 h 2.674892 c -0.0057,-0.13975 -0.01112,-0.27952 -0.01613,-0.41928 z m 4.501171,0 c -0.02587,0.13929 -0.04566,0.2791 -0.06049,0.41928 h 0.104275 c 0.03808,-0.0194 0.07919,-0.0351 0.123867,-0.0453 0.07407,-0.0169 0.141322,-0.0224 0.203366,-0.0193 -0.01776,-0.0986 -0.03463,-0.19693 -0.04782,-0.29513 -0.0015,-0.006 -0.0138,-0.0454 -0.01788,-0.0595 z m 0.474715,0 c -0.02434,0.0199 0.05074,0.0402 0.164192,0.0626 v -0.0626 z" />
    </clipPath>
    <inkscape:path-effect
       effect="bspline"
       id="path-effect54"
       is_visible="true"
       lpeversion="1.3"
       weight="33.333333"
       steps="2"
       helper_size="0"
       apply_no_weight="true"
       apply_with_weight="true"
       only_selected="false"
       uniform="false" />
    <clipPath
       clipPathUnits="userSpaceOnUse"
       id="clipPath101">
      <path
         id="path101"
         style="fill:#ff0000;fill-opacity:1;fill-rule:nonzero;stroke:none;stroke-width:0.277213"
         d="m 49.252318,286.09591 c 0.09275,0.16271 0.15575,0.30584 0.125017,0.41928 h 3.045333 v -0.41928 z" />
    </clipPath>
    <inkscape:path-effect
       effect="bspline"
       id="path-effect56"
       is_visible="true"
       lpeversion="1.3"
       weight="33.333333"
       steps="2"
       helper_size="0"
       apply_no_weight="true"
       apply_with_weight="true"
       only_selected="false"
       uniform="false" />
    <inkscape:path-effect
       effect="bspline"
       id="path-effect60"
       is_visible="true"
       lpeversion="1.3"
       weight="33.333333"
       steps="2"
       helper_size="0"
       apply_no_weight="true"
       apply_with_weight="true"
       only_selected="false"
       uniform="false" />
    <inkscape:path-effect
       effect="bspline"
       id="path-effect62"
       is_visible="true"
       lpeversion="1.3"
       weight="33.333333"
       steps="2"
       helper_size="0"
       apply_no_weight="true"
       apply_with_weight="true"
       only_selected="false"
       uniform="false" />
    <inkscape:path-effect
       effect="bspline"
       id="path-effect64"
       is_visible="true"
       lpeversion="1.3"
       weight="33.333333"
       steps="2"
       helper_size="0"
       apply_no_weight="true"
       apply_with_weight="true"
       only_selected="false"
       uniform="false" />
    <inkscape:path-effect
       effect="bspline"
       id="path-effect66"
       is_visible="true"
       lpeversion="1.3"
       weight="33.333333"
       steps="2"
       helper_size="0"
       apply_no_weight="true"
       apply_with_weight="true"
       only_selected="false"
       uniform="false" />
    <inkscape:path-effect
       effect="bspline"
       id="path-effect68"
       is_visible="true"
       lpeversion="1.3"
       weight="33.333333"
       steps="2"
       helper_size="0"
       apply_no_weight="true"
       apply_with_weight="true"
       only_selected="false"
       uniform="false" />
    <clipPath
       clipPathUnits="userSpaceOnUse"
       id="clipPath103">
      <path
         id="path104"
         style="fill:#ff0000;fill-opacity:1;fill-rule:nonzero;stroke:none;stroke-width:0.240131"
         d="m 197.46729,93.128519 c 0.0155,0.176033 0.0307,0.364415 0.0456,0.565302 h 0.0222 c 0.0354,-0.176587 0.0682,-0.37595 0.1022,-0.565302 z m 13.14668,0 c -0.001,0.195109 -0.003,0.383562 -0.006,0.565302 h 0.22491 c -0.006,-0.189865 -0.013,-0.376474 -0.0192,-0.565302 z m 2.51452,0 c -0.002,0.19075 -0.008,0.378363 -0.0153,0.565302 h 0.35319 v -0.565302 z m -10.51194,0.283349 c -0.0975,0.09435 -0.19504,0.188556 -0.2926,0.281953 h 0.43104 c -0.008,-0.01854 -0.017,-0.03447 -0.0255,-0.05304 -0.0377,-0.07363 -0.0752,-0.154634 -0.11294,-0.228913 z m 9.12545,0.110269 c 3.9e-4,0.0603 4.9e-4,0.113333 7.9e-4,0.171684 h 0.0928 c -0.0314,-0.05244 -0.0623,-0.116621 -0.0936,-0.171684 z m -14.86739,0.01396 c -7.9e-4,-7.4e-5 -0.002,0.0029 -0.003,0.0028 7.9e-4,0.05899 0.001,0.106667 0.002,0.154934 h 0.0111 c 0.003,-0.08903 4.9e-4,-0.149898 -0.0102,-0.157726 z" />
    </clipPath>
    <inkscape:path-effect
       effect="bspline"
       id="path-effect13"
       is_visible="true"
       lpeversion="1.3"
       weight="33.333333"
       steps="2"
       helper_size="0"
       apply_no_weight="true"
       apply_with_weight="true"
       only_selected="false"
       uniform="false" />
    <inkscape:path-effect
       effect="bspline"
       id="path-effect33"
       is_visible="true"
       lpeversion="1.3"
       weight="33.333333"
       steps="2"
       helper_size="0"
       apply_no_weight="true"
       apply_with_weight="true"
       only_selected="false"
       uniform="false" />
  </defs>
  <g
     inkscape:label="Layer 1"
     inkscape:groupmode="layer"
     id="layer1"
     transform="matrix(1.0000017,0,0,0.9983926,0.38403533,-16.491387)">
    <g
       inkscape:label="Layer 1"
       inkscape:groupmode="layer"
       id="layer1-4"
       transform="translate(-0.82733792,12.770595)">
      <g
         inkscape:label="Layer 1"
         inkscape:groupmode="layer"
         id="g37"
         transform="matrix(0.82890595,0,0,1.0493812,9.5742697,-77.468052)">
        <path
           style="fill:#ffffff;stroke:#ffffff;stroke-width:0.352819"
           d="m 111.45708,290.48068 c -2.06686,-156.3693 -2.06686,-156.3693 -2.06686,-156.3693 l -57.576666,0.38898 c 0,0 0,0 0,0 v 0"
           id="path3"
           clip-path="url(#clipPath133)" />
        <path
           style="fill:#ffffff;stroke:#000000;stroke-width:0.4"
           d="m 34.963777,136.01293 c -24.9741265,0 -24.9741265,0 -24.9741265,0 V 93.749028 C 131.40233,94.517464 153.30272,94.517464 153.30272,94.517464 c 0,0 38.42173,0 38.42173,-0.768434 0,-0.768435 0,-0.768435 0,-0.768435"
           id="path5"
           clip-path="url(#clipPath92)" />
        <path
           style="fill:#ffffff;stroke:#000000;stroke-width:0.550808"
           d="m 218.6635,90.36484 c 0.3086,9.070619 0.3086,9.070619 0.3086,9.070619 0,83.449721 0.3086,84.356781 0,83.449721 -0.3086,-0.90706 -0.3086,-0.90706 -0.3086,-0.90706"
           id="path7"
           clip-path="url(#clipPath15)" />
        <path
           style="fill:#ffffff;stroke:#000000;stroke-width:0.463575;stroke-dasharray:none"
           d="m 52.496062,134.03844 c 0.144169,170.28536 -0.04807,151.27087 -0.04807,151.27087 l -0.04807,0.42253"
           id="path9" />
        <rect
           style="fill:#ffffff;stroke:#000000;stroke-width:0.422342"
           id="rect9"
           width="29.127296"
           height="18.442244"
           x="6.5898061"
           y="101.4284" />
        <rect
           style="fill:#ffffff;stroke:#000000;stroke-width:0.422342;stroke-linecap:butt;stroke-miterlimit:4"
           id="rect10"
           width="32.125694"
           height="21.131746"
           x="-0.69199979"
           y="230.93625"
           ry="0.37183607"
           rx="0.41576922" />
        <path
           style="fill:#ffffff;stroke:#000000;stroke-width:0.419094;stroke-linecap:butt;stroke-miterlimit:4"
           d="m 22.010037,93.73836 c 0.428343,7.94482 0.428343,7.94482 0.428343,7.94482"
           id="path10" />
        <path
           style="fill:#ffffff;stroke:#000000;stroke-width:0.565816;stroke-linecap:butt;stroke-miterlimit:4"
           d="m 26.715396,120.59073 c 0.427996,95.93148 0.427996,96.62163 0.427996,95.93148 0,-0.69015 0,-0.69015 0,-0.69015 v 0 c -16.69186,0.69015 -16.69186,0.69015 -16.69186,0.69015 0,13.80308 0,13.80308 0,13.80308"
           id="path11"
           clip-path="url(#clipPath77)" />
        <path
           style="fill:#ffffff;stroke:#000000;stroke-width:0.329897;stroke-linecap:butt;stroke-miterlimit:4"
           d="m 26.968907,287.95133 c 0.458854,-30.4179 0.458854,-30.63673 0.458854,-30.4179 0,0.21884 0,0.21884 0,0.21884 v 0 C 9.5325111,257.53343 9.5325111,257.53343 9.5325111,257.53343 c 0,-4.37667 0,-4.37667 0,-4.37667"
           id="path12"
           clip-path="url(#clipPath80)" />
        <rect
           style="fill:#ffffff;stroke:#000000;stroke-width:0.462051;stroke-linecap:butt;stroke-miterlimit:4;stroke-dasharray:none"
           id="rect13"
           width="51.401192"
           height="23.834461"
           x="55.420818"
           y="125.89597"
           ry="0.18306851"
           rx="0.20469846" />
        <rect
           style="fill:#ffffff;stroke:#000000;stroke-width:0.462051;stroke-linecap:butt;stroke-miterlimit:4;stroke-dasharray:none"
           id="rect14"
           width="29.98403"
           height="18.537909"
           x="203.20352"
           y="100.12112"
           ry="0" />
        <text
           xml:space="preserve"
           style="font-size:7.04828px;text-align:start;writing-mode:lr-tb;direction:ltr;text-anchor:start;fill:#ffffff;stroke:#000000;stroke-width:0.806344;stroke-linecap:butt;stroke-miterlimit:4;stroke-dasharray:none"
           x="-88.996132"
           y="-151.51187"
           id="text15"
           transform="scale(-1.1060474,-0.90412042)"><tspan
             sodipodi:role="line"
             id="tspan15"
             style="font-size:7.04828px;stroke-width:0.806344;stroke-dasharray:none"
             x="-88.996132"
             y="-151.51187">AR-203</tspan></text>
        <text
           xml:space="preserve"
           style="font-size:5.91387px;text-align:start;writing-mode:lr-tb;direction:ltr;text-anchor:start;fill:#ffffff;stroke:#000000;stroke-width:0.462051;stroke-linecap:butt;stroke-miterlimit:4;stroke-dasharray:none"
           x="-143.1172"
           y="1.9372606"
           id="text16"
           transform="matrix(0,-0.93980212,1.0640538,0,0,0)"><tspan
             sodipodi:role="line"
             id="tspan16"
             style="stroke-width:0.462051"
             x="-143.1172"
             y="1.9372606">GENTS WASHROOM</tspan></text>
        <rect
           style="fill:#ffffff;stroke:#000000;stroke-width:0.364612;stroke-linecap:butt;stroke-miterlimit:4;stroke-dasharray:none"
           id="rect16"
           width="21.845507"
           height="32.157608"
           x="28.43519"
           y="274.95593"
           clip-path="url(#clipPath104)" />
        <path
           style="fill:#ffffff;stroke:#000000;stroke-width:0.364613;stroke-linecap:butt;stroke-miterlimit:4;stroke-dasharray:none"
           d="m 27.150156,258.30965 c -8.566865,0 -8.566865,-1.13497 -8.566865,-1.13497 l -0.428344,-5.29655"
           id="path16" />
        <rect
           style="fill:#ffffff;stroke:#ffffff;stroke-width:0.364613;stroke-linecap:butt;stroke-miterlimit:4;stroke-dasharray:none"
           id="rect17"
           width="9.8518953"
           height="1.891624"
           x="19.011633"
           y="257.17468" />
        <path
           style="fill:#ff0000;stroke:#ffffff;stroke-width:0.364613;stroke-linecap:butt;stroke-miterlimit:4;stroke-dasharray:none"
           d="m 18.583291,257.17468 c 2.712839,-0.12611 5.425682,-0.25222 8.138522,-0.37833"
           id="path17"
           inkscape:path-effect="#path-effect38"
           inkscape:original-d="m 18.583291,257.17468 c 2.712839,-0.12611 5.425682,-0.25222 8.138522,-0.37833" />
        <path
           style="fill:#ffffff;stroke:#000000;stroke-width:0.314321;stroke-linecap:butt;stroke-miterlimit:4;stroke-dasharray:none"
           d="m 19.011634,256.79635 c 2.71284,0.12611 5.425682,0.25222 6.853494,0.37833 1.427812,0.12611 1.570588,0.25221 1.64198,1.2611 0.07139,1.00888 0.07139,2.90047 0.07139,4.7921"
           id="path18"
           inkscape:path-effect="#path-effect40"
           inkscape:original-d="m 19.011634,256.79635 c 2.71284,0.12611 5.425682,0.25222 8.138522,0.37833 0.142783,0.12611 0.285562,0.25221 0.428343,0.37832 0,1.89166 0,3.78325 0,5.67488 m -0.428343,-4.16158 z" />
        <path
           style="fill:#ffffff;stroke:#000000;stroke-width:0.628641;stroke-linecap:butt;stroke-miterlimit:4;stroke-dasharray:none;paint-order:stroke fill markers"
           d="m 26.721813,210.64073 c 0,4.53989 0,9.07979 0,13.61969"
           id="path19"
           inkscape:path-effect="#path-effect42"
           inkscape:original-d="m 26.721813,210.64073 c 0,4.53989 0,9.07979 0,13.61969" />
        <path
           style="fill:#ffffff;stroke:#000000;stroke-width:0.628641;stroke-linecap:butt;stroke-miterlimit:4;stroke-dasharray:none;paint-order:stroke fill markers"
           d="m 26.721813,223.8821 c -2.998403,0 -5.996806,0 -7.496008,0.0631 -1.499201,0.0631 -1.499201,0.18916 -1.499201,1.38721 0,1.19805 0,3.46796 0,5.73791"
           id="path20"
           inkscape:path-effect="#path-effect44"
           inkscape:original-d="m 26.721813,223.8821 c -2.998403,0 -5.996806,0 -8.995209,0 0,0.12611 0,0.25221 0,0.37832 0,2.26999 0,4.5399 0,6.80985" />
        <path
           style="fill:#ffffff;stroke:#000000;stroke-width:0.419094;stroke-linecap:butt;stroke-miterlimit:4;stroke-dasharray:none;paint-order:stroke fill markers"
           d="m 26.721813,287.06234 c 1.713373,0 3.426746,0 5.140119,0"
           id="path25"
           inkscape:path-effect="#path-effect54"
           inkscape:original-d="m 26.721813,287.06234 c 1.713373,0 3.426746,0 5.140119,0"
           clip-path="url(#clipPath106)" />
        <path
           style="fill:#ffffff;stroke:#000000;stroke-width:0.419094;stroke-linecap:butt;stroke-miterlimit:4;stroke-dasharray:none;paint-order:stroke fill markers"
           d="m 52.422409,286.30569 c -1.713373,0 -3.426746,0 -5.140119,0"
           id="path26"
           inkscape:path-effect="#path-effect56"
           inkscape:original-d="m 52.422409,286.30569 c -1.713373,0 -3.426746,0 -5.140119,0"
           clip-path="url(#clipPath101)" />
        <path
           style="fill:#ffffff;stroke:#000000;stroke-width:0.419094;stroke-linecap:butt;stroke-miterlimit:4;stroke-dasharray:none;paint-order:stroke fill markers"
           d="m 52.993533,133.84079 c 0.571125,0 1.713373,0 2.284497,0 0.571125,0 -2.855621,0 -2.284497,0 z"
           id="path28"
           inkscape:original-d="m 52.422409,133.84079 c 1.142249,0 2.284497,0 3.426746,0 z"
           inkscape:path-effect="#path-effect60" />
        <path
           style="fill:#ffffff;stroke:#000000;stroke-width:0.419094;stroke-linecap:butt;stroke-miterlimit:4;stroke-dasharray:none;paint-order:stroke fill markers"
           d="m 7.8747089,231.07027 c 0,7.18817 0,14.37634 0,17.84431 0,3.46798 0,3.21577 0,2.96355"
           id="path29"
           inkscape:path-effect="#path-effect62"
           inkscape:original-d="m 7.8747089,231.07027 c 0,7.18817 0,14.37634 0,21.56451 0,-0.25222 0,-0.50443 0,-0.75665" />
        <path
           style="fill:#ffffff;stroke:#000000;stroke-width:0.419094;stroke-linecap:butt;stroke-miterlimit:4;stroke-dasharray:none;paint-order:stroke fill markers"
           d="m 21.15335,230.69194 c 0,7.06207 0,14.12413 0,21.18619"
           id="path30"
           inkscape:path-effect="#path-effect64"
           inkscape:original-d="m 21.15335,230.69194 c 0,7.06207 0,14.12413 0,21.18619" />
        <path
           style="fill:#ffffff;stroke:#000000;stroke-width:0.419094;stroke-linecap:butt;stroke-miterlimit:4;stroke-dasharray:none;paint-order:stroke fill markers"
           d="m 184.35214,98.656582 c -0.14278,6.053198 -0.28557,12.106398 -0.42835,18.159588"
           id="path31"
           inkscape:path-effect="#path-effect66"
           inkscape:original-d="m 184.35214,98.656582 c -0.14278,6.053198 -0.28556,12.106398 -0.42835,18.159588"
           transform="translate(28.738453,1.8306852)" />
        <path
           style="fill:#ffffff;stroke:#000000;stroke-width:0.419094;stroke-linecap:butt;stroke-miterlimit:4;stroke-dasharray:none;paint-order:stroke fill markers"
           d="m 195.91741,98.656582 c 0.14278,6.179308 0.28556,12.358608 0.42834,18.537918"
           id="path32"
           inkscape:path-effect="#path-effect68"
           inkscape:original-d="m 195.91741,98.656582 c 0.14278,6.179308 0.28556,12.358608 0.42834,18.537918"
           transform="translate(28.738453,1.4645482)" />
        <text
           xml:space="preserve"
           style="font-size:5.91387px;text-align:start;writing-mode:lr-tb;direction:ltr;text-anchor:start;fill:#000000;stroke:#000000;stroke-width:0.523867;stroke-linecap:butt;stroke-miterlimit:4;stroke-dasharray:none;paint-order:stroke fill markers"
           x="-266.02951"
           y="-4.7741084"
           id="text34"
           transform="matrix(0,-0.93980212,1.0640538,0,0,0)"><tspan
             sodipodi:role="line"
             id="tspan34"
             style="fill:#000000;stroke-width:0.523867;stroke-dasharray:none"
             x="-266.02951"
             y="-4.7741084">STAIRS</tspan></text>
        <text
           xml:space="preserve"
           style="font-size:5.91387px;text-align:start;writing-mode:lr-tb;direction:ltr;text-anchor:start;fill:#000000;stroke:#000000;stroke-width:0.523866;stroke-linecap:butt;stroke-miterlimit:4;stroke-dasharray:none;paint-order:stroke fill markers"
           x="105.85314"
           y="-221.68747"
           id="text35"
           transform="matrix(0,0.93980211,-1.0640538,0,0,0)"><tspan
             sodipodi:role="line"
             id="tspan35"
             style="stroke-width:0.523867"
             x="105.85314"
             y="-221.68747">STAIRS</tspan></text>
        <text
           xml:space="preserve"
           style="font-size:5.91387px;text-align:start;writing-mode:lr-tb;direction:ltr;text-anchor:start;fill:#000000;stroke:#000000;stroke-width:0.523866;stroke-linecap:butt;stroke-miterlimit:4;stroke-dasharray:none;paint-order:stroke fill markers"
           x="-321.27643"
           y="40.006287"
           id="text36"
           transform="matrix(0,-0.93980212,1.0640538,0,0,0)"><tspan
             sodipodi:role="line"
             id="tspan36"
             style="stroke-width:0.523867"
             x="-321.27643"
             y="40.006287">AR-204</tspan></text>
        <rect
           style="fill:#ffffff;stroke:#000000;stroke-width:1.07221;stroke-dasharray:none;paint-order:stroke fill markers"
           id="rect1"
           width="50.52404"
           height="23.066629"
           x="107.11152"
           y="126.1802" />
        <path
           style="fill:#000000;stroke:#000000;stroke-width:1.00111;stroke-dasharray:none;stroke-opacity:1;paint-order:stroke fill markers"
           d="m 194.79469,93.532981 c 4.71249,-0.06102 14.13746,-0.183068 18.84995,-0.244091 4.71249,-0.06102 -23.56244,0.305114 -18.84995,0.244091 z"
           id="path13"
           inkscape:path-effect="#path-effect13"
           inkscape:original-d="m 190.0822,93.594004 c 9.42498,-0.122046 18.84995,-0.244091 28.27493,-0.366137 z"
           transform="matrix(3.2513758,0,0,0.35280411,-474.31188,61.370516)"
           clip-path="url(#clipPath103)" />
        <path
           style="fill:#ffffff;stroke:#000000;stroke-width:0.85777;stroke-miterlimit:3.1;stroke-dasharray:none;paint-order:stroke fill markers"
           d="m 157.17204,133.13681 c 3.24466,0 6.48933,0 8.18891,0 1.69959,0 1.85409,0 2.0086,8.29927 0.15451,8.29927 0.30902,24.89715 0.30902,33.07421 0,8.17706 -0.1545,7.93297 8.26634,7.87195 8.42085,-0.061 25.41637,0.061 42.41223,0.18307"
           id="path33"
           inkscape:path-effect="#path-effect33"
           inkscape:original-d="m 157.17204,133.13681 c 3.24466,0 6.48933,0 9.73399,0 0.15451,0 0.30901,0 0.46352,0 0.15451,16.59854 0.30902,33.19642 0.46353,49.79463 -0.15451,-0.24409 -0.30901,-0.48818 -0.46352,-0.73227 16.9962,0.12205 33.99172,0.24409 50.98758,0.36614" />
        <text
           xml:space="preserve"
           style="font-size:6.75837px;text-align:start;writing-mode:lr-tb;direction:ltr;text-anchor:start;fill:#000000;stroke:#000000;stroke-width:0.718412;stroke-miterlimit:3;stroke-dasharray:none;stroke-opacity:1;paint-order:stroke fill markers"
           x="-134.96222"
           y="-147.52608"
           id="text77"
           transform="scale(-1.0800212,-0.92590776)"><tspan
             sodipodi:role="line"
             id="tspan77"
             style="stroke-width:0.718411"
             x="-134.96222"
             y="-147.52608">AR-202</tspan></text>
        <path
           style="fill:#000000;stroke:#000000;stroke-width:0.676565;stroke-miterlimit:3;stroke-dasharray:none;stroke-opacity:1;paint-order:stroke fill markers"
           d="M 159.95318,94.692415 Z"
           id="path107" />
        <path
           style="fill:#000000;stroke:#000000;stroke-width:0.247681;stroke-miterlimit:3;stroke-dasharray:none;stroke-opacity:1;paint-order:stroke fill markers"
           d="m 159.48966,94.692415 58.86748,-1.098411 v 0"
           id="path108" />
      </g>
      <rect
         style="fill:#ffffff;stroke:#000000;stroke-width:1;stroke-dasharray:none;paint-order:stroke fill markers"
         id="rect2"
         width="23.437256"
         height="31.121605"
         x="160.98706"
         y="95.670113" />
      <text
         xml:space="preserve"
         style="font-size:5.64444px;text-align:start;writing-mode:lr-tb;direction:ltr;text-anchor:start;fill:#000000;stroke:#000000;stroke-width:0.631;stroke-miterlimit:3;stroke-dasharray:none;stroke-opacity:1;paint-order:stroke fill markers"
         x="-184.39389"
         y="-106.93777"
         id="text108"
         transform="scale(-1)"><tspan
           sodipodi:role="line"
           id="tspan108"
           style="stroke-width:0.631;stroke-dasharray:none"
           x="-184.39389"
           y="-106.93777">AR=201</tspan></text>
    </g>
  </g>
</svg>
