<?xml version="1.0" encoding="UTF-8" standalone="no"?>
<!-- Created with Inkscape (http://www.inkscape.org/) -->

<svg
   width="210mm"
   height="297mm"
   viewBox="0 0 210 297"
   version="1.1"
   id="svg1"
   inkscape:version="1.4 (86a8ad7, 2024-10-11)"
   sodipodi:docname="floor1_AB-02.svg"
   xmlns:inkscape="http://www.inkscape.org/namespaces/inkscape"
   xmlns:sodipodi="http://sodipodi.sourceforge.net/DTD/sodipodi-0.dtd"
   xmlns="http://www.w3.org/2000/svg"
   xmlns:svg="http://www.w3.org/2000/svg">
  <sodipodi:namedview
     id="namedview1"
     pagecolor="#ffffff"
     bordercolor="#000000"
     borderopacity="0.25"
     inkscape:showpageshadow="2"
     inkscape:pageopacity="0.0"
     inkscape:pagecheckerboard="0"
     inkscape:deskcolor="#d1d1d1"
     inkscape:document-units="mm"
     inkscape:zoom="0.68862935"
     inkscape:cx="352.87488"
     inkscape:cy="524.95584"
     inkscape:window-width="1920"
     inkscape:window-height="991"
     inkscape:window-x="-9"
     inkscape:window-y="-9"
     inkscape:window-maximized="1"
     inkscape:current-layer="layer1" />
  <defs
     id="defs1">
    <clipPath
       clipPathUnits="userSpaceOnUse"
       id="clipPath85">
      <path
         id="path86"
         style="fill:#ff0000;fill-opacity:1;fill-rule:nonzero;stroke:none;stroke-width:0.264583"
         d="m 30.737143,264.96005 v 0.29972 h 29.59199 c -0.03981,-0.1 -0.07951,-0.19979 -0.119372,-0.29972 z" />
    </clipPath>
    <clipPath
       clipPathUnits="userSpaceOnUse"
       id="clipPath103">
      <path
         id="path104"
         style="fill:#ff0000;fill-opacity:1;fill-rule:nonzero;stroke:none;stroke-width:0.264583"
         d="m 125.40475,288.99011 c -0.011,0.01 -0.0221,0.0188 -0.0331,0.0284 0.011,0.005 0.0221,0.01 0.0331,0.0151 z" />
    </clipPath>
    <clipPath
       clipPathUnits="userSpaceOnUse"
       id="clipPath125">
      <path
         id="path126"
         style="fill:#ff0000;fill-opacity:1;fill-rule:nonzero;stroke:none;stroke-width:0.264583"
         d="m 96.288522,253.43377 v 5.13362 c 0.16268,0.92917 0.181828,1.86648 0.149839,2.81816 -0.01085,0.3213 -0.0657,0.59539 -0.149839,0.82618 v 18.41719 h 19.895238 v -27.19515 z m 1.686999,2.89733 c 0.576328,0 1.15274,0.57048 1.15274,1.71155 v 0.67152 c 0.07829,-0.0506 0.165765,-0.10284 0.496543,-0.30928 0.423506,-0.26431 0.812886,-0.3771 1.142406,-0.37901 1.17683,-0.007 1.59059,1.39735 0.0749,2.33641 -0.56589,0.35063 -0.29589,0.17526 -0.81121,0.52423 -1.030768,0.69797 -1.892848,0.45526 -2.16132,-0.11533 -0.539075,-0.0657 -1.047334,-0.63366 -1.047334,-1.70475 v -1.02379 c 0,-1.14107 0.57693,-1.71155 1.153255,-1.71155 z m 16.520199,10.95396 c 0.57624,0 1.15223,0.57869 1.15223,1.73621 v 2.67557 c 0,0.87348 0.0362,1.74443 -0.0951,2.61006 -0.22031,0.80208 -0.17539,0.98419 -1.82858,0.95093 -0.09,-0.003 -0.16408,-0.0423 -0.22889,-0.10379 -0.52742,0.50405 -1.50208,0.28606 -1.97583,-1.0238 -0.0513,-0.14187 -0.10472,-0.28313 -0.16018,-0.42302 -0.27182,0.055 -0.41473,-0.003 -0.49861,-0.16724 -0.005,-8e-5 -0.008,8e-5 -0.0134,0 -0.002,-2e-5 -0.0141,-0.0458 -0.0305,-0.11219 -0.0128,-0.0423 -0.0244,-0.0882 -0.0341,-0.13943 -2.2e-4,0 -2.5e-4,-0.003 -5.3e-4,-0.004 -0.0446,-0.1867 -0.10314,-0.4383 -0.1545,-0.65739 -0.14854,-0.5263 -0.28204,-1.05714 -0.44435,-1.57944 -0.0183,-0.0589 -0.0403,-0.12043 -0.0599,-0.17561 -0.004,-0.009 -0.007,-0.0172 -0.0109,-0.0263 5.3e-4,-2.2e-4 0.001,0 0.002,0 -0.0228,-0.0639 -0.0398,-0.1112 -0.0382,-0.11166 0.32353,-0.10303 0.65014,-0.19507 0.97759,-0.28463 0.39695,-0.1685 0.79462,-0.33416 1.19924,-0.48229 0.008,-0.003 0.0403,0.0897 0.0811,0.21966 0.1146,0.25753 0.23009,0.51371 0.34618,0.77006 0.19264,-0.11042 0.42304,-0.14547 0.6624,-0.0912 v -1.84416 c 0,-1.15751 0.57649,-1.73621 1.15274,-1.73621 z" />
    </clipPath>
    <clipPath
       clipPathUnits="userSpaceOnUse"
       id="clipPath131">
      <path
         id="path132"
         style="fill:#ff0000;fill-opacity:1;fill-rule:nonzero;stroke:none;stroke-width:0.264583"
         d="m 116.4177,276.10252 v 0.33073 c 0,0.11772 0.001,0.23535 0.002,0.35296 h 6.535 v -0.68369 z" />
    </clipPath>
    <clipPath
       clipPathUnits="userSpaceOnUse"
       id="clipPath147">
      <path
         id="path148"
         style="fill:#ff0000;fill-opacity:1;fill-rule:nonzero;stroke:none;stroke-width:0.264583"
         d="m 125.87345,249.20701 v 18.74254 h 26.42681 v -18.74254 z m 13.11497,4.23902 c 0.28739,0.004 0.57372,0.028 0.85886,0.0765 0.27274,0.0464 0.53576,0.13886 0.80357,0.20826 1.14584,0.44539 2.07515,1.21142 2.85305,2.13062 0.23344,-0.0233 0.46731,-0.0433 0.70177,-0.0589 1.41724,-0.037 2.79595,0.21763 4.04213,0.89556 0.34129,0.2214 0.62882,0.48732 0.8816,0.78134 0.15544,-0.76544 0.62764,-1.14825 1.09967,-1.14825 0.57633,0 1.15239,0.57046 1.15239,1.71153 v 2.14974 0.091 c 0,0.27735 -0.0342,0.52076 -0.0941,0.7307 -0.0332,0.37026 -0.0885,0.69882 -0.18759,0.79324 -0.34056,0.32458 -0.79765,0.50002 -1.19631,0.74982 -0.27878,-0.13453 -0.57926,-0.23085 -0.83612,-0.40359 -0.17737,-0.11928 -0.30775,-0.35037 -0.41652,-0.61444 -0.82301,0.0842 -2.76344,-0.22769 -3.09335,-0.26561 -0.88486,-0.0999 -1.77131,-0.17925 -2.65875,-0.2465 -0.29843,0.16966 -0.71907,0.25887 -1.25987,0.20412 -0.13366,-0.0135 -0.26691,-0.0308 -0.40049,-0.0455 -1.44787,0.5019 -2.95794,0.73372 -4.49327,0.83199 -1.15843,-0.0245 -2.64268,0.0413 -3.57084,-0.81391 -0.17829,-0.16428 -0.29821,-0.38208 -0.44752,-0.57309 0.007,-0.0457 0.008,-0.0931 0.0129,-0.13952 -0.42245,-0.0862 -0.80938,-0.22639 -1.12965,-0.44752 -0.13938,0.0804 -0.29974,0.1528 -0.50074,0.21136 -0.252,0.0734 -0.51579,-0.0523 -0.77618,-0.11886 -7.9e-4,0.003 -0.003,0.007 -0.004,0.009 -0.14082,0.89603 -0.0869,1.37014 -0.94776,1.50999 -0.0911,0.56105 -0.30387,1.08394 -0.86455,1.23248 -0.40776,0.10803 -0.8292,-0.15504 -1.24385,-0.23254 -0.56677,-0.60526 -0.66306,-1.35582 -0.69555,-2.14871 -0.0319,-0.77809 0.23555,-1.29582 0.5984,-1.55029 v -1.2976 c 0,-1.14107 0.57658,-1.71152 1.1529,-1.71152 0.42947,0 0.85811,0.31727 1.04904,0.95084 1.70577,-1.6535 3.52726,-2.22064 5.90764,-2.89233 1.19956,-0.2383 2.45777,-0.57865 3.70314,-0.55913 z m -0.24443,2.31717 c -0.95065,0.009 -1.91939,0.28292 -2.83497,0.46147 -1.20262,0.33655 -2.24408,0.61834 -3.19464,1.09657 0.0523,0.12409 0.1009,0.25474 0.14469,0.39791 0.0944,0.30857 0.13637,0.2255 0.0398,0.35502 -0.17568,-0.0367 -0.37694,0.0442 0.14832,0.12712 0.33224,0.0525 0.66788,0.0794 1.00459,0.0987 0.29323,-0.14815 0.5752,-0.27612 0.7276,-0.34003 0.0375,-0.0157 0.0756,-0.0296 0.11317,-0.045 0.16481,-0.3406 0.59627,-0.53423 0.91364,-0.7612 0.94755,-0.67764 2.38842,-0.96089 3.51762,-1.11569 0.29596,-0.0193 0.58478,-0.0163 0.86868,0.002 -0.0566,-0.0305 -0.11188,-0.0627 -0.17002,-0.0909 -0.41792,-0.13909 -0.84636,-0.18962 -1.27847,-0.18552 z m 2.41432,2.79983 c -0.0476,0.01 -0.0951,0.0199 -0.14263,0.03 0.0872,0.005 0.17431,0.0104 0.26148,0.0155 -0.0392,-0.0166 -0.0793,-0.0305 -0.11885,-0.0455 z m -10.81484,1.54771 c -0.003,0.007 -0.008,0.0168 -0.01,0.0233 0.0453,0.008 0.053,0.002 0.01,-0.0233 z" />
    </clipPath>
    <clipPath
       clipPathUnits="userSpaceOnUse"
       id="clipPath185">
      <path
         id="path185"
         style="fill:#ff0000;fill-opacity:1;fill-rule:nonzero;stroke:none;stroke-width:0.264583"
         d="m 6.7659954,106.27827 v 11.44219 H 30.503048 v -11.44219 z m 10.4277876,0.216 c 0.541886,-0.01 1.121701,0.4816 1.270206,1.54099 0.12686,0.905 0.200492,1.81588 0.258382,2.72749 0.02836,0.75334 0.194393,1.49246 0.293523,2.23862 0.07518,0.66589 0.254187,1.31312 0.361218,1.97507 0.01648,0.12587 0.03313,0.2519 0.04961,0.37776 0.296275,2.26283 -1.996749,2.55982 -2.286165,0.2961 -0.01317,-0.10304 -0.02662,-0.20598 -0.03979,-0.30902 -0.10813,-0.68277 -0.3007,-1.34921 -0.37052,-2.0376 -0.104966,-0.79813 -0.283058,-1.58861 -0.308508,-2.3952 -0.05374,-0.85131 -0.121831,-1.70196 -0.239779,-2.54714 -0.167568,-1.20074 0.397686,-1.85587 1.011825,-1.86707 z" />
    </clipPath>
    <clipPath
       clipPathUnits="userSpaceOnUse"
       id="clipPath203">
      <path
         id="path204"
         style="fill:#ff0000;fill-opacity:1;fill-rule:nonzero;stroke:none;stroke-width:0.264583"
         d="m 7.1499513,125.48898 v 12.5951 H 31.271477 v -12.5951 z m 13.1625037,0.46457 c 1.3812,0.0329 1.586725,1.8179 -0.249597,2.39727 -0.554954,0.17508 -1.104413,0.27323 -1.675867,0.27389 0.0092,0.0544 0.01557,0.0925 0.02739,0.16071 0.07477,0.3164 0.217302,0.59917 0.393258,0.86248 0.818746,-0.2786 1.256089,-0.0606 1.491898,0.91002 0.05409,0.53377 0.100057,1.40024 -0.465605,1.73943 -0.04272,0.54778 -0.132798,1.08548 -0.252697,1.61696 0.005,-0.002 0.01,-0.004 0.01499,-0.006 0.330736,-0.13329 0.631155,-0.19332 0.894002,-0.19637 1.364266,-0.0159 1.719337,1.49873 0.156063,2.2474 0.08397,0.32978 -0.0031,0.6663 -0.260966,0.90486 0.315608,0.85353 0.55286,0.98956 -0.955497,0.57464 -0.225003,-0.0619 -0.467646,-0.15584 -0.697115,-0.2806 -0.18894,0.0136 -0.362378,0.0701 -0.555522,0.12764 -0.117651,0.0351 -0.230566,0.0614 -0.338997,0.0801 -0.04418,0.37952 -0.19055,0.51043 -0.576193,0.0258 -1.103326,-0.10975 -1.430656,-1.19424 -0.608231,-1.88515 0.128064,-0.27621 0.276497,-0.54766 0.312125,-0.76171 0.297084,-0.95196 0.54542,-1.90908 0.59583,-2.91249 8.73e-4,-0.007 0.0041,-0.0306 0.0052,-0.0387 -0.647795,-0.77485 -1.231301,-1.60047 -1.424202,-2.61587 -0.223199,-1.29855 -0.280498,-2.46416 1.285193,-2.87579 0.738586,-0.0295 1.268462,0.12711 2.001945,-0.16743 v -5.3e-4 c 0.330901,-0.13286 0.626856,-0.18643 0.882633,-0.18035 z m -2.59674,2.59519 c -0.01754,-0.003 -0.03078,0.009 -0.08423,0.0496 0.06232,-0.002 0.116739,-0.0107 0.167432,-0.0222 -0.04233,-0.013 -0.06927,-0.0253 -0.0832,-0.0274 z m 1.735811,1.89343 c 0.04128,0.0414 0.08234,0.0829 0.130741,0.11524 0.04192,0.028 -0.05048,-0.11018 -0.100769,-0.11318 -0.0099,-5.3e-4 -0.02003,-0.001 -0.02997,-0.002 z m -1.568897,4.45141 c -0.03386,0.008 -0.05596,0.0504 -0.07286,0.10697 0.06392,-0.0159 0.127999,-0.031 0.192236,-0.0455 -0.04751,-0.0424 -0.08904,-0.0682 -0.119373,-0.0615 z" />
    </clipPath>
    <clipPath
       clipPathUnits="userSpaceOnUse"
       id="clipPath244">
      <path
         id="path245"
         style="fill:#ff0000;fill-opacity:1;fill-rule:nonzero;stroke:none;stroke-width:0.264583"
         d="m 6.7659954,144.31574 v 12.5951 H 31.271477 v -12.5951 z m 10.3445876,0.30127 c 0.279279,0.005 0.600539,0.0815 0.953431,0.2527 0.345903,0.16785 0.719548,0.26932 1.092439,0.37362 0.479416,-0.0829 0.955646,-0.18859 1.429371,-0.29249 0.208983,-0.0458 0.403304,-0.0681 0.581876,-0.0703 1.607888,-0.0198 1.945399,1.58324 0.358118,2.18953 1.455157,1.50866 -0.130692,3.00969 -1.759583,1.50224 -0.08235,-0.0762 -0.586492,-0.46857 -0.947745,-0.67748 -0.0023,0.004 -0.0038,0.008 -0.0062,0.0119 0.122769,0.10504 0.235741,0.22155 0.354501,0.33125 0.466874,0.35376 0.171703,0.86052 0.127641,1.3007 0.06997,0.0513 0.181897,0.13175 0.376204,0.26148 0.57516,0.79735 0.268824,1.16951 0.116789,1.84743 0.0459,0.0935 0.04996,0.16526 -0.01137,0.17622 -0.01808,0.003 -0.0093,-0.0354 -0.01395,-0.0532 0.0077,-0.0423 0.01635,-0.083 0.02532,-0.12299 -0.08886,-0.18106 -0.337733,-0.44411 -0.59583,-0.5116 0.08,0.80094 0.127392,1.40959 0.155546,1.88774 0.0092,0.003 0.01601,0.006 0.01809,0.0124 0.01877,0.0562 0.03399,0.10447 0.05168,0.15813 0.0014,-0.0188 0.0027,-0.0436 0.0041,-0.0615 0.0094,0.0436 0.03395,0.10601 0.05529,0.17105 0.04531,-0.0382 0.09811,-0.0651 0.16123,-0.0734 0.05345,-0.007 -0.07383,0.0791 -0.106453,0.12196 -0.01151,0.0151 -0.02079,0.0334 -0.02894,0.0532 0.0043,0.0243 0.008,0.0483 0.0067,0.0698 0.454371,1.42218 0.453228,1.84174 -0.01602,1.87172 7.1e-5,0.002 0.0011,0.003 -5.29e-4,0.005 -0.03118,0.0502 -0.110888,0.0404 -0.166398,0.0605 -0.406035,0.0927 -0.54771,0.32789 -0.873332,0.56585 -0.0402,0.021 -0.08021,0.0421 -0.120406,0.0631 -1.090165,0.56844 -0.712173,-0.3989 -0.443383,-1.24128 -0.28625,-0.22623 -0.489911,-0.49361 -0.598414,-0.81131 -0.006,0.003 -0.01206,0.007 -0.01809,0.01 -0.04839,0.0425 -0.08403,0.10703 -0.145211,0.12712 -0.05326,0.0175 0.07771,-0.0802 0.118856,-0.11834 0.01295,-0.012 0.02583,-0.0229 0.03876,-0.0346 -0.110942,-0.33673 -0.115777,-0.72976 0.0047,-1.19217 0.07569,-0.19447 0.155757,-0.3962 0.256832,-0.5855 -0.07322,-0.2661 -0.09106,-0.55881 -0.04754,-0.86351 0.01444,-0.0719 0.02934,-0.14326 0.04496,-0.21394 -0.181254,-0.19155 -0.31638,-0.41146 -0.414962,-0.66766 -0.05851,-0.15207 -0.07552,-0.31688 -0.113171,-0.47542 -0.0037,-0.12127 -0.0073,-0.36451 -5.29e-4,-0.58498 -0.294534,-0.32069 -0.465994,-0.71864 -0.500745,-1.22783 0.01772,-0.28134 0.06171,-0.57518 0.134359,-0.86197 -0.273,-0.24137 -0.385629,-0.56352 -0.333313,-0.87488 -0.727147,-0.79747 -0.273023,-1.82712 0.7953,-1.80816 z m 2.398304,8.85838 c -0.0046,-0.0143 -0.01031,-0.0315 -0.01499,-0.046 -0.01688,0.0491 -0.02818,0.10333 -0.03979,0.14367 0.03743,-0.0202 0.05233,-0.0555 0.05478,-0.0977 z m -0.01499,-0.046 c 0.0027,-0.008 0.0052,-0.0162 0.0083,-0.0238 -0.006,-0.0333 -0.01455,-0.0674 -0.02584,-0.1018 -0.0063,0.005 -0.01213,0.0112 -0.01809,0.017 0.01155,0.0355 0.02463,0.0742 0.03566,0.10852 z m -0.03566,-0.10852 c -0.01346,-0.0414 -0.02718,-0.0837 -0.04134,-0.1266 -0.0042,0.0575 -0.0076,0.12251 -0.01137,0.18862 0.01599,-0.0229 0.03364,-0.0435 0.05271,-0.062 z m -0.952397,-5.5578 c -0.035,-0.001 -0.05654,0.0117 -0.06046,0.0424 0.122179,0.0117 0.169246,0.0149 0.229443,0.0196 -0.0044,-0.005 -0.0048,-0.006 -0.0088,-0.0109 -0.0656,-0.0305 -0.121599,-0.0499 -0.160197,-0.0512 z m 0.281637,0.21291 c -0.01,0.0514 -0.0079,0.12218 0.03152,0.22324 0.06059,-0.045 0.02492,-0.13512 -0.03152,-0.22324 z m 0.503328,1.63298 c -0.0025,0.0761 0.0034,0.14959 0.02532,0.21962 0.02481,-0.0794 0.0047,-0.15694 -0.02532,-0.21962 z m 0.259933,2.87734 c 0.05701,0.0206 0.06722,0.46844 -0.101803,0.58704 -0.01128,-0.001 -0.0181,0.002 -0.02325,0.007 0.0393,-0.46245 0.09071,-0.60579 0.125057,-0.59428 z m -0.176217,2.86184 c 0.0088,0.0107 0.0368,0.007 0.0646,0.001 -0.02095,7e-5 -0.04202,7e-5 -0.0646,-0.001 z" />
    </clipPath>
    <clipPath
       clipPathUnits="userSpaceOnUse"
       id="clipPath256">
      <path
         id="path257"
         style="fill:#ff0000;fill-opacity:1;fill-rule:nonzero;stroke:none;stroke-width:0.264583"
         d="m 135.0946,70.546082 v 19.12648 h 10.67376 v -19.12648 z m 5.1449,2.931088 c 0.49976,0 0.99769,0.431044 1.12138,1.289325 0.1329,-0.06866 0.27409,-0.103351 0.41548,-0.103351 0.47508,0 0.95007,0.387882 1.10226,1.163235 0.24132,0.199798 0.46391,0.433957 0.66817,0.700733 0.12086,-0.06418 0.24405,-0.115506 0.37776,-0.115755 1.33858,-0.0024 1.57588,1.174443 1.4335,2.181778 -0.23169,0.54505 -0.10803,0.341424 -0.49816,0.769464 0.061,0.549312 0.1255,1.396206 -0.0284,1.522902 -0.4495,0.369956 -1.00834,0.581819 -1.51257,0.872815 -0.19839,-0.122615 -0.41682,-0.217299 -0.59531,-0.367419 -0.54165,-0.455554 -0.6071,-1.326832 -0.678,-1.969389 -0.0129,-0.115234 -0.0264,-0.231058 -0.0413,-0.346749 -0.0613,0.01638 -0.12368,0.02643 -0.18603,0.02946 0.0337,0.10052 0.0546,0.223951 0.0439,0.222726 -0.0164,-0.0019 -0.0303,-0.0029 -0.0465,-0.0047 0.0985,0.0691 0.011,0.259453 -0.15089,0.64234 -0.2354,0.19391 -0.40955,0.509857 -0.7059,0.581877 -0.6709,0.163049 -1.11729,-0.06369 -1.40663,-0.455787 -0.005,0.0024 -0.0101,0.0043 -0.0155,0.0067 -0.0522,0.02352 -0.2356,-0.01286 -0.42787,-0.05219 -0.13121,0.107836 -0.2798,0.206147 -0.4532,0.289906 -0.0616,0.02975 -0.1279,0.03843 -0.19585,0.03772 -0.10143,0.267131 -0.21345,0.529709 -0.34985,0.7829 -0.68059,0.735263 -0.50549,0.77402 -2.13011,-0.0186 -0.29495,-0.14388 -0.29122,-1.594683 -0.28423,-1.876885 0.0448,-0.986457 0.13429,-1.963428 0.86817,-2.707846 0.17395,-0.176451 0.3937,-0.300808 0.59067,-0.451136 0.61679,-0.316709 1.26515,-0.571286 1.93218,-0.754991 v -0.157615 c 0,-1.141066 0.57658,-1.711521 1.1529,-1.711521 z m 1.57613,5.84512 c -0.0446,-0.03128 -0.12827,-0.03751 -0.25993,-0.02532 0.0842,0.0073 0.16959,0.01529 0.25993,0.02532 z m -0.25993,-0.02532 c -0.0949,-0.0083 -0.18451,-0.01434 -0.27182,-0.01963 -0.0287,0.02434 -0.0576,0.04841 -0.0863,0.07286 0.13758,-0.02328 0.26877,-0.04495 0.35812,-0.05323 z m -0.27182,-0.01963 c 0.083,-0.07026 0.16716,-0.138501 0.25167,-0.20619 -0.0109,-0.0031 -0.0217,-0.0058 -0.0326,-0.0093 -0.15136,0.05379 -0.30068,0.112874 -0.44752,0.1788 -0.004,0.0084 -0.009,0.01617 -0.0134,0.02429 0.0766,0.0028 0.15848,0.0074 0.24184,0.01241 z m 2.6572,-1.970939 c 0.0163,0.0436 0.0326,0.08724 0.0476,0.131259 -0.0124,-0.05275 -0.0282,-0.09673 -0.0476,-0.131259 z m -4.85086,1.227314 c -0.0902,0.237123 -0.17169,0.477325 -0.25012,0.71882 2.6e-4,7.94e-4 7.9e-4,0.0019 0.001,0.0026 0.0952,-0.172196 0.17942,-0.352634 0.262,-0.534336 -0.006,-0.06325 -0.0101,-0.12545 -0.0129,-0.187069 z m -0.48679,1.438672 c -0.004,0.01066 -0.007,0.02138 -0.0109,0.03204 0.0193,-0.0042 0.0373,-0.0091 0.0491,-0.01394 0.0124,-0.0051 0.0255,-0.01005 0.0382,-0.01498 -0.008,-1.37e-4 -0.0184,-0.0013 -0.0253,-0.0011 -0.0157,0.0019 -0.0336,-5.29e-4 -0.0512,-0.0021 z" />
    </clipPath>
    <clipPath
       clipPathUnits="userSpaceOnUse"
       id="clipPath274">
      <path
         id="path275"
         style="fill:#ff0000;fill-opacity:1;fill-rule:nonzero;stroke:none;stroke-width:0.264583"
         d="m 122.41527,70.546082 v 18.742525 h 10.67376 V 70.546082 Z m 7.06623,3.315044 c 0.41567,0 0.82988,0.29877 1.0294,0.89245 0.15852,-0.104574 0.33298,-0.157097 0.50746,-0.157097 0.57632,0 1.15238,0.570458 1.15238,1.711524 v 1.84795 c 0,1.407999 -0.87755,1.946847 -1.54977,1.617472 -0.0519,0.712658 -0.29896,1.297075 -1.33532,1.427303 -0.28992,0.03643 -0.53613,-0.233315 -0.80409,-0.349848 -0.26309,-0.30762 -0.53144,-0.602051 -0.8139,-0.880568 -0.0302,0.02577 -0.0606,0.05136 -0.092,0.07596 -0.3587,0.09083 -0.70641,0.272317 -1.07642,0.272336 -0.30236,1.3e-5 -0.57634,-0.129445 -0.81546,-0.329179 -0.0808,0.586425 -0.27182,0.35673 -2.00453,-0.0062 -0.16744,0.02715 -0.24641,0.01749 -0.27647,-0.05684 -0.0135,-0.0027 -0.0246,-0.0051 -0.0382,-0.0078 -0.0124,-0.0024 -0.0252,-0.534971 -0.0253,-0.538469 -0.01,-0.668742 -0.007,-1.3378 -0.007,-2.006595 0.003,-1.878023 1.59373,-1.724901 2.87115,-1.477946 0.72281,0.174606 1.41846,0.432387 2.12493,0.657841 v -0.980302 h 5.3e-4 c 0,-1.141069 0.57606,-1.71204 1.15238,-1.71204 z" />
    </clipPath>
    <clipPath
       clipPathUnits="userSpaceOnUse"
       id="clipPath286">
      <path
         id="path287"
         style="fill:#ff0000;fill-opacity:1;fill-rule:nonzero;stroke:none;stroke-width:0.264583"
         d="m 173.51602,69.009223 v 18.742528 h 10.28981 V 69.009223 Z m 8.6031,6.355686 c 0.57632,0 1.15238,0.570455 1.15238,1.711523 v 1.251088 c 0,1.482145 -0.97246,2.001591 -1.65416,1.55856 -0.25786,0.163208 -0.60495,0.280069 -1.04645,0.315227 -0.14313,0.0114 -0.2863,0.0227 -0.42943,0.0341 -0.6428,-0.006 -1.45766,-0.04301 -1.99678,-0.444418 -0.47631,-0.242287 -1.06911,0.453654 -1.42575,0.62942 -1.14201,0.704278 -2.80851,1.257969 -2.96054,-0.85266 0.26425,-1.109477 0.90468,-2.076413 1.46347,-3.062864 0.42181,-0.74463 0.9724,-1.04607 1.43454,-1.028359 0.7571,0.02901 1.27457,0.914718 0.601,2.109949 0.35407,-0.0795 0.72502,-0.110974 1.11724,-0.0894 0.60209,0.122436 1.10872,0.483238 1.73478,0.433049 0.0875,-0.0086 0.17501,-0.01725 0.26252,-0.02582 0.21723,-0.02135 0.41525,-0.01881 0.59428,0.0026 v -0.83044 c 0,-1.141069 0.57657,-1.711523 1.1529,-1.711523 z m -6.0756,4.451408 c -0.0856,0.158975 -0.11324,0.207767 -0.004,0.0832 10e-4,-0.03147 0.003,-0.05525 0.004,-0.0832 z" />
    </clipPath>
    <clipPath
       clipPathUnits="userSpaceOnUse"
       id="clipPath309">
      <path
         id="path310"
         style="fill:#ff0000;fill-opacity:1;fill-rule:nonzero;stroke:none;stroke-width:0.264583"
         d="M 7.1499513,44.418993 V 56.245662 H 30.887519 V 44.418993 Z m 10.2164307,0.641821 c 1.298096,-0.02638 1.751298,1.046097 1.02526,1.773537 0.107804,0.08521 0.216193,0.169468 0.327629,0.248563 -0.08103,0.308676 -0.125578,0.630671 -0.202055,0.941027 0.134748,-2.3e-4 0.269468,5.3e-4 0.40411,0.0026 0.102835,-0.114104 0.20555,-0.228356 0.331246,-0.314711 0.39739,-0.273005 0.91661,-0.448747 1.421618,-0.451652 0.168336,-0.0011 0.33506,0.01762 0.49506,0.05788 0.280432,0.07054 0.656464,0.0735 0.806153,0.320913 0.287683,0.475483 0.247582,1.083487 0.371553,1.625222 -0.163907,0.190052 -0.300994,0.407061 -0.491442,0.570507 -0.573906,0.492536 -1.359089,0.820135 -2.121318,1.167371 0.04026,0.111956 0.0655,0.226851 0.06253,0.347266 -0.01259,0.509886 -0.419756,0.90547 -0.914672,1.227833 0.228285,0.0311 0.423893,0.08811 0.596862,0.159163 0.161902,-0.02093 0.324521,-0.03936 0.488343,-0.05374 0.07104,-0.0062 0.140555,-0.01005 0.207739,-0.01188 2.082694,-0.05656 2.301719,1.946693 0.118339,2.293919 -0.671918,0.106855 -1.40456,0.104286 -2.014347,0.439764 -0.0307,0.02572 -0.06129,0.05181 -0.09198,0.07751 -1.410361,1.181407 -2.635408,0.0083 -2.047421,-1.130681 -1.300047,-0.870617 -1.275895,-1.930601 -0.143143,-2.788459 -0.105014,-0.37273 0.01091,-0.835404 0.444417,-1.254705 -0.06718,-0.004 -0.134405,-0.0045 -0.201538,-0.0098 -0.238415,-0.01894 -0.486375,-0.0089 -0.711585,-0.0894 -0.297248,-0.106257 -0.551594,-0.307295 -0.827339,-0.460954 0.055,-0.501407 0.0039,-1.029891 0.0894,-1.523421 -0.224192,-0.02186 -0.401981,-0.04214 -0.42168,-0.05581 -0.405321,-0.281284 -0.69838,-0.697315 -1.047481,-1.045932 0.335463,-0.465516 0.573265,-1.020766 1.006657,-1.396813 0.100718,-0.08739 2.20791,-0.530005 2.459798,-0.588594 0.208388,-0.04847 0.401659,-0.07287 0.579293,-0.07648 z m 3.250447,2.829285 c 0.06947,-0.04615 -0.141163,0.08858 -0.211873,0.132811 6.2e-5,0.0013 -6.1e-5,0.0024 0,0.0036 0.07115,-0.04455 0.141836,-0.0899 0.211873,-0.136427 z" />
    </clipPath>
    <clipPath
       clipPathUnits="userSpaceOnUse"
       id="clipPath364">
      <path
         id="path365"
         style="fill:#ff0000;fill-opacity:1;fill-rule:nonzero;stroke:none;stroke-width:0.264583"
         d="m 6.3815227,168.5215 v 12.97905 H 31.655949 V 168.5215 Z m 14.1800133,0.53691 c 0.845342,0.009 1.30378,0.52962 1.243335,1.09141 0.763593,0.7339 0.380194,1.58991 -1.290361,1.59577 -0.408271,0.002 -0.857979,0.008 -1.276925,-0.0801 -0.01052,0.002 -0.021,0.005 -0.03152,0.007 0.01634,0.044 0.02978,0.0872 0.03411,0.13332 0.28488,0.0123 0.569529,0.0301 0.851628,0.0744 0.04021,0.53947 0.12249,1.07844 0.15813,1.61799 0.192907,0.52266 0.138887,0.71647 -0.320911,1.22318 -0.09172,0.10107 -0.228374,0.20882 -0.369486,0.29043 0.01274,0.009 0.02645,0.017 0.03927,0.0264 0.02576,-0.009 0.05179,-0.0168 0.07751,-0.0258 0.33652,-0.11793 0.642459,-0.16711 0.910539,-0.16278 0.983566,0.0158 1.458023,0.7494 1.098124,1.43144 0.03162,-0.003 0.06344,-0.006 0.09405,-0.006 1.057506,-0.0156 1.496868,1.28377 0.162264,2.35541 -0.02262,0.0182 -0.04598,0.0352 -0.06873,0.0532 -0.04836,0.18545 -0.09567,0.3715 -0.136943,0.5581 -0.117145,0.0295 -0.234969,0.0525 -0.353467,0.0729 0.0041,0.56767 -0.533137,1.15253 -1.64486,1.20612 -0.168143,0.008 -0.336735,0.0105 -0.505396,0.0134 0.08237,0.3175 0.02087,0.46045 -0.256315,0.17313 -0.389348,0.24098 -1.119031,0.62678 -1.223181,0.50022 -0.285934,-0.34743 -0.503386,-0.5913 -0.680062,-0.79013 -0.04571,-0.006 -0.09183,-0.01 -0.137459,-0.016 -1.318841,-0.37264 -1.620992,-1.40662 -0.938444,-2.17248 -0.813046,-1.71931 -0.841014,-1.55596 0.06925,-2.10116 0.373596,-0.12845 0.751447,-0.24369 1.130164,-0.35605 -0.172292,-0.34475 -0.24722,-0.73981 -0.162781,-1.20768 0.04028,-0.22323 0.180319,-0.41177 0.306958,-0.60513 -0.09967,-0.0164 -0.199354,-0.0346 -0.29869,-0.0548 -0.85432,-0.28976 -0.696325,-0.15269 -0.371553,-1.73529 -0.234761,-0.28793 -0.403232,-0.59296 -0.36587,-1.048 0.02935,-0.35743 0.278674,-0.66122 0.418063,-0.99167 0.209416,-0.15912 0.41897,-0.31784 0.628385,-0.47697 0.198744,-0.15101 0.377552,-0.22026 0.537435,-0.22583 0.13621,-0.005 0.257589,0.0392 0.366386,0.11524 0.120632,-0.0424 0.25206,-0.0785 0.394291,-0.10749 0.39051,-0.0795 0.781389,-0.15904 1.165304,-0.26716 0.274585,-0.0773 0.524533,-0.1105 0.747758,-0.10801 z m -1.447457,5.45755 c -0.01895,-0.001 -0.05302,0.0528 -0.03772,0.0703 0.06248,0.0717 0.131274,0.13759 0.202572,0.20102 -0.02615,-0.0673 -0.07181,-0.14409 -0.15813,-0.26716 -0.0019,-0.003 -0.004,-0.004 -0.0067,-0.004 z" />
    </clipPath>
    <clipPath
       clipPathUnits="userSpaceOnUse"
       id="clipPath376">
      <path
         id="path377"
         style="fill:#ff0000;fill-opacity:1;fill-rule:nonzero;stroke:none;stroke-width:0.264583"
         d="m 106.66222,153.92135 v 12.59458 h 26.04286 v -12.59458 z m 16.90802,0.5917 c 1.90216,-0.0514 2.17737,1.78234 0.0982,2.28668 -0.64968,0.15762 -1.29119,0.28441 -1.93683,0.31574 0.0163,0.32909 0.0222,0.65915 0.0305,0.98702 5.3e-4,0.60876 0.0102,1.2165 0.0481,1.82315 0.45714,-0.036 0.66308,0.4447 1.37045,1.39681 0.063,0.0848 -0.18909,0.77203 -0.24029,0.91054 -0.0483,0.17977 -0.12201,0.34741 -0.20309,0.5116 0.31698,-0.0664 0.63502,-0.12817 0.9555,-0.17829 0.14092,-0.022 0.27409,-0.0339 0.39946,-0.0367 1.88047,-0.0411 1.99601,1.96498 -0.11317,2.32389 -0.70121,0.11933 -1.39269,0.28316 -2.08567,0.44029 -0.2245,0.41079 -0.78129,0.72495 -1.65829,0.67437 -0.44951,-0.0259 -0.22142,-0.007 -0.68368,-0.0605 -1.08173,-0.27178 -0.68002,-0.0287 -0.56637,-2.30838 0.005,-0.0925 0.17183,-0.0667 0.25993,-0.0935 0.2078,-0.0632 0.42096,-0.10604 0.63458,-0.14624 0.0633,-0.22422 0.1534,-0.44943 0.27182,-0.69298 0.0369,-0.0699 0.0772,-0.13821 0.11679,-0.20671 -0.19173,-0.15551 -0.36866,-0.38873 -0.52451,-0.71933 -0.30017,-1.16646 -0.26499,-2.38396 -0.28629,-3.58066 -0.0136,-0.54959 -0.034,-1.09926 -0.0858,-1.64642 -0.26293,-0.20219 -0.44359,-0.43408 -0.30748,-0.62941 0.92813,-1.33196 1.52011,-1.55596 1.99626,-1.06764 0.69765,0.12323 1.41587,-0.16346 2.10788,-0.26717 0.14106,-0.0211 0.27523,-0.0327 0.40205,-0.0362 z m -2.79622,0.20877 c -0.003,0.003 0.045,0.0294 0.0615,0.0413 0.0529,0.0167 0.10599,0.0299 0.15916,0.0413 -0.0614,-0.0344 -0.13242,-0.0621 -0.21549,-0.0822 -0.003,-7.9e-4 -0.005,-7.9e-4 -0.005,-5.3e-4 z m 1.11001,6.15053 c 0.004,0.0805 0.008,0.0895 0.0713,0.21808 -0.017,-0.0834 -0.042,-0.155 -0.0713,-0.21808 z" />
    </clipPath>
    <clipPath
       clipPathUnits="userSpaceOnUse"
       id="clipPath402">
      <path
         id="path403"
         style="fill:#ff0000;fill-opacity:1;fill-rule:nonzero;stroke:none;stroke-width:0.264583"
         d="m 158.53193,223.84887 v 18.35805 h 10.28929 v -18.35805 z m 3.78478,5.30924 c 0.7011,-0.0225 1.23807,0.74701 0.81907,1.91202 0.26934,0.0588 0.50774,0.1702 0.71985,0.32195 0.0135,-0.0466 0.0256,-0.0937 0.0398,-0.14005 0.25191,-0.64596 0.78101,-1.4572 1.54771,-1.48414 v 5.3e-4 c 0.10953,-0.004 0.22403,0.008 0.34313,0.0393 0.0787,0.0204 0.15353,0.0519 0.22686,0.0868 0.1143,-0.049 0.23351,-0.0744 0.35295,-0.0744 0.57474,0 1.14974,0.56795 1.1529,1.70274 0.1255,-0.0701 0.26749,0.0405 0.4346,0.44958 0.11783,0.28844 0.32667,0.55515 0.35347,0.86558 0.0785,0.90948 -0.87606,1.37854 -1.55908,1.61593 -0.0367,-0.003 -0.0741,-0.002 -0.1111,-0.003 -0.26172,0.0839 -0.54304,0.0443 -0.786,-0.11938 -0.18151,-0.085 -0.33306,-0.20821 -0.45527,-0.35605 -0.69748,1.48484 -2.05258,0.95464 -2.53111,-0.18862 -0.0669,-0.1426 -0.09,-0.20541 -0.17467,-0.33021 -0.13635,0.15669 -0.26397,0.34925 -0.21291,0.4129 -0.11982,0.10686 -0.0581,0.50172 -0.15192,0.54932 -0.2837,0.14386 -0.52156,0.26651 -0.74053,0.37517 -0.0701,0.0954 -0.14288,0.17712 -0.21756,0.24753 -0.76063,1.79217 -2.54302,1.26356 -2.25205,-0.41548 -0.0976,-0.1539 -0.0487,-0.26935 0.0899,-0.36019 0.0181,-0.0561 0.0375,-0.11296 0.06,-0.17104 l 0.13901,-0.36019 c 0.14734,-0.4883 0.29156,-0.97772 0.42839,-1.46916 -2.6e-4,-0.24434 7.9e-4,-0.48891 0.002,-0.73381 h 5.3e-4 c 0.006,-0.94729 0.39939,-1.49798 0.85938,-1.65829 0.24097,-0.25856 0.52309,-0.38295 0.79271,-0.38344 0.0231,-4e-5 0.0463,8e-4 0.0693,0.003 0.2512,-0.2186 0.51566,-0.32648 0.76068,-0.33434 z m 0.63252,4.07778 c -0.004,-0.001 -0.01,-5.3e-4 -0.016,0.002 -0.0295,0.009 -0.0825,0.0534 -0.1416,0.11109 0.0584,2.7e-4 0.0885,-0.0218 0.1571,-0.0532 0.0143,-0.0377 0.0129,-0.0561 5.3e-4,-0.0594 z" />
    </clipPath>
    <clipPath
       clipPathUnits="userSpaceOnUse"
       id="clipPath408">
      <path
         id="path408"
         style="fill:#ff0000;fill-opacity:1;fill-rule:nonzero;stroke:none;stroke-width:0.264583"
         d="m 195.36017,241.85035 v 8.86561 h 14.24461 v -8.86561 z m 9.39787,0.59067 h 1.71773 c 2.28213,0 2.28213,2.30528 0,2.30528 h -1.71773 c -2.28213,0 -2.28213,-2.30528 0,-2.30528 z" />
    </clipPath>
    <clipPath
       clipPathUnits="userSpaceOnUse"
       id="clipPath410">
      <path
         id="path411"
         style="fill:#ff0000;fill-opacity:1;fill-rule:nonzero;stroke:none;stroke-width:0.264583"
         d="M 77.460388,59.55347 V 260.4208 c 0.0057,-0.034 0.01289,-0.0678 0.01757,-0.10181 0.112326,-0.19325 0.176538,-0.42413 0.336931,-0.57981 0.338331,-0.32839 0.725368,-0.4885 1.133263,-0.54932 -0.341198,-0.97794 0.568391,-1.76014 1.770952,-1.11259 0.112149,-0.0428 0.223496,-0.0868 0.330729,-0.13746 0.725339,0.11997 1.171572,0.26466 1.784903,0.59325 0.25972,-0.13734 0.638241,-0.19262 1.157036,-0.22221 1.897666,0.0603 3.797546,0.12594 5.696294,0.0977 0.110752,-0.11122 0.226655,-0.21905 0.355015,-0.31936 0.211246,-0.0725 0.412232,-0.19186 0.634072,-0.21756 0.419375,-0.0486 0.904917,0.0827 1.221629,0.37207 0.21926,0.20035 0.362143,0.40109 0.430982,0.60875 0.02857,-0.0136 0.0559,-0.0279 0.08475,-0.0413 0.06421,-0.0299 0.155776,0.005 0.208256,-0.0424 0.08646,-0.0784 0.40536,-0.68698 0.445452,-0.76068 0.262052,-0.47898 0.64457,-1.31317 1.297078,-1.36787 0.07007,-0.006 0.137221,-0.009 0.201538,-0.0104 0.96478,-0.0156 1.302271,0.50363 1.589051,1.30225 0.287972,1.13681 0.321961,2.28462 0.28267,3.45355 -0.077,2.2803 -2.309185,2.28143 -2.305286,-5.3e-4 5.3e-4,-0.33114 0.0046,-0.66241 0.0036,-0.99271 -0.773554,0.63247 -1.706057,1.02714 -2.639115,1.37511 -0.935136,0.30522 -2.242662,0.45795 -2.733683,-0.66352 -0.05267,-0.12031 -0.06796,-0.2511 -0.07597,-0.38396 -0.748395,0.002 -1.496885,-0.0121 -2.245341,-0.031 -0.1622,0.58566 -0.736738,0.99264 -1.462961,1.15497 -0.654492,0.5728 -1.769454,0.51599 -2.634464,0.37 -0.178975,-0.0851 -0.320474,-0.14883 -0.444418,-0.20929 -0.206198,0.0152 -0.468064,-0.0586 -0.726054,-0.14469 0.01,0.10443 0.0227,0.21056 0.03669,0.32142 0.02029,0.34473 0.03286,0.71569 -0.06253,1.04387 0.908587,0.90352 0.315933,2.0727 -0.951881,1.85619 0.209709,0.49369 0.109487,0.25959 0.341582,0.79997 0.555334,1.29297 -0.03893,2.1277 -0.785998,2.09132 -0.05132,1.34342 -0.08869,2.68658 -0.11834,4.03133 0.03663,2.47324 -0.09487,4.92172 -0.433564,7.37004 -0.194564,1.34665 -0.100611,0.69051 -0.283187,1.96837 -0.10437,0.73049 -0.41384,1.18899 -0.773599,1.40097 0.03544,0.0653 0.07894,0.1088 0.111106,0.1819 0.04762,0.10824 0.09552,0.21643 0.143143,0.32451 0.194225,0.60235 0.322741,1.21915 0.417028,1.84227 0.06836,0.0764 0.140803,0.1561 0.199472,0.22323 0.622271,1.0079 0.74775,1.95538 0.180869,2.9926 -0.24869,-0.0148 -0.498001,-0.0225 -0.747241,-0.0315 0.115064,0.98229 0.223951,1.96569 0.369485,2.94452 0.104537,0.86886 0.246713,1.29693 -0.291454,1.7849 0.0072,0.12777 0.01334,0.25567 0.01291,0.385 -0.01871,0.27466 0.03127,0.56309 -0.05633,0.82426 -0.03053,0.0909 -0.07883,0.12787 -0.113173,0.20669 0.169315,0.0471 0.344459,0.0951 0.496094,0.13798 0.89979,0.26209 1.788261,0.59976 2.739369,0.51935 1.143312,-0.0966 1.710632,0.445 1.70429,1.02835 2.120482,0.0688 4.240733,0.10684 6.362401,0.0269 0.694147,-0.0172 1.388025,-0.0431 2.082043,-0.0651 0.0054,-0.17317 0.01455,-0.34552 0.02739,-0.51263 0.0076,-0.0991 0.125573,-0.0714 0.254246,-0.0351 0.185975,-0.24212 0.608782,-0.0689 0.963766,-0.0146 0.909087,-0.0901 1.814793,-0.22148 2.726965,-0.27183 3.54421,-0.32538 7.097421,-0.48487 10.653621,-0.53692 0.11187,-0.0246 0.22564,-0.0499 0.33693,-0.0744 2.89649,-0.5946 5.84413,-0.43616 8.73693,0.061 1.08141,0.19489 2.13531,0.49797 3.20343,0.73845 0.72977,-0.039 1.45981,-0.071 2.19108,-0.0827 0.17558,-0.21783 0.35455,-0.43273 0.53847,-0.64289 -0.13976,-0.85225 -0.21523,-1.71474 -0.22221,-2.57812 -0.0932,0.0304 -0.18707,0.0549 -0.28112,0.0734 -0.46528,0.27639 -0.93236,0.54991 -1.40095,0.81957 -0.051,0.0321 -0.10197,0.0639 -0.15296,0.0967 -1.93114,1.21608 -3.16006,-0.75317 -1.2206,-1.95596 0.0746,-0.0463 0.14917,-0.0922 0.22376,-0.13851 0.23672,-0.13616 0.46959,-0.27972 0.7059,-0.41701 0.0343,-0.45117 0.2525,-0.8927 0.48111,-1.29191 -0.0728,-0.29429 -0.0468,-0.6114 -0.0811,-0.91469 0.0853,-0.28062 0.13068,-0.57706 0.2558,-0.84233 0.33083,-0.70133 0.96846,-1.29381 1.69137,-1.62832 0.0635,-0.20365 0.18244,-0.42423 0.22428,-0.61495 0.22726,-1.03661 0.56634,-2.06385 0.95395,-3.06131 -0.62769,-0.0246 -1.26214,-0.14229 -1.35496,-0.49299 -0.14297,-0.54023 0.0379,-1.11734 0.0568,-1.67587 0.19235,-0.1165 0.37416,-0.25273 0.57723,-0.34933 0.002,0 0.0607,-0.0175 0.0796,-0.0233 -0.3913,-0.28003 -0.62489,-0.5108 -0.4806,-0.61288 -2.02091,-0.18044 -1.93259,-2.28227 0.20982,-2.29081 0.24993,-0.10142 0.55886,-0.16277 0.92861,-0.16277 h 2.31407 c 0.21963,-0.12298 0.43247,-0.19072 0.62787,-0.20104 0.25206,-0.0132 0.46776,0.0663 0.63976,0.20104 h 1.03456 c 0.11435,0.007 0.30411,-0.0514 0.42788,-0.0522 0.0743,0 0.12467,0.0196 0.12092,0.0884 -0.0283,0.54116 -0.10076,1.11192 -0.28629,1.62783 0.0462,0.22513 0.0848,0.45132 0.12248,0.67177 0.0217,0.12684 -0.25668,-0.0204 -0.38499,-0.0305 h -0.0537 c -0.0234,0.0352 -0.0472,0.0703 -0.0723,0.10438 -0.13401,0.18143 -0.37734,0.16415 -0.63149,0.12454 0.11986,0.19762 0.19469,0.45196 0.18862,0.77153 0.0147,0.22799 -0.0192,0.46315 -0.0139,0.69246 -0.0909,0.13584 -0.17083,0.2803 -0.25787,0.4191 -0.37649,1.03878 -0.82576,2.04862 -1.27951,3.05562 0.0132,0.0212 0.0253,0.0434 0.0393,0.0636 0.17826,0.43318 0.34308,0.93777 0.46456,1.45055 0.43723,-0.48559 0.84014,-1.0016 1.1896,-1.5627 0.45241,-0.72644 1.01443,-1.02548 1.47846,-1.01233 0.77334,0.022 1.2735,0.91057 0.5364,2.13165 -0.59117,0.9794 -1.32909,1.83684 -2.12959,2.63652 0.10314,0.65455 -0.41254,1.20493 -1.23454,1.11053 -0.0285,0.0249 -0.0552,0.051 -0.0837,0.076 0.80614,0.36259 1.53825,0.91591 1.16582,1.77509 -0.1685,0.3887 -0.37792,0.64096 -0.6134,0.80151 0.17779,0.5009 0.0733,1.04483 -0.46405,1.54357 0.0248,0.404 -0.16788,0.90311 -0.67489,1.40042 -0.21634,0.21225 -0.4317,0.42526 -0.64492,0.64029 0.15974,0.13057 0.29133,0.31001 0.44854,0.44492 0.24787,0.48641 0.37772,1.00817 0.45528,1.54202 h 81.46686 v -47.10137 c -0.76063,0.27685 -2.05603,0.0992 -2.77089,-0.004 -0.47192,-0.14843 -0.93863,-0.30037 -1.3653,-0.55862 -0.67253,-0.40705 -0.77521,-0.58154 -0.4718,-1.16014 -0.33718,-0.54803 -0.48446,-1.16942 -0.27957,-1.86706 -0.76303,-0.36825 -1.45052,-0.89434 -1.39216,-1.88103 0.0199,-0.33691 0.38933,-0.55161 0.58394,-0.82733 0.191,-0.0801 0.37424,-0.18229 0.57309,-0.24031 0.54124,-0.15782 1.13556,-0.17315 1.73221,-0.17672 0.14629,-0.47813 0.7035,-0.89348 1.67223,-0.89348 h 1.71773 5.3e-4 V 59.55347 Z m 62.779112,13.9237 c 0.49739,0 0.97149,0.451546 1.09813,1.301729 0.13958,-0.07693 0.28908,-0.115755 0.43873,-0.115755 0.48981,0 0.97922,0.412432 1.11518,1.236615 0.22725,0.193085 0.46133,0.374081 0.65525,0.627353 0.12086,-0.06418 0.24405,-0.115509 0.37776,-0.115755 1.33858,-0.0024 1.57588,1.174446 1.4335,2.181778 -0.23169,0.54505 -0.10803,0.341421 -0.49816,0.769464 0.061,0.549312 0.12528,1.396209 -0.0284,1.522902 -0.4495,0.369956 -1.00834,0.581819 -1.51257,0.872815 -0.19839,-0.122613 -0.41682,-0.217299 -0.59531,-0.367419 -0.54165,-0.455554 -0.6071,-1.326832 -0.678,-1.969389 -0.0128,-0.114776 -0.0337,-0.229449 -0.0486,-0.34468 -0.0717,0.01855 -0.14513,0.02816 -0.21808,0.02842 0.0397,0.102889 0.0948,0.223031 0.0832,0.221692 -0.0164,-0.0019 -0.0303,-0.0029 -0.0465,-0.0047 0.0985,0.0691 0.011,0.259451 -0.15089,0.64234 -0.2354,0.193908 -0.40955,0.509855 -0.7059,0.581877 -0.6709,0.163047 -1.11729,-0.06369 -1.40663,-0.455787 -0.005,0.0024 -0.0102,0.0043 -0.0155,0.0067 -0.0522,0.02352 -0.2356,-0.01286 -0.42787,-0.05219 -0.13121,0.107836 -0.2798,0.206147 -0.4532,0.289906 -0.0616,0.02975 -0.1279,0.03843 -0.19585,0.03772 -0.10143,0.267139 -0.21345,0.529709 -0.34985,0.7829 -0.68059,0.735263 -0.50549,0.773959 -2.13011,-0.0186 -0.29495,-0.14387 -0.29122,-1.594683 -0.28423,-1.876885 0.0448,-0.986459 0.13429,-1.963428 0.86817,-2.707846 0.17395,-0.176451 0.3937,-0.300805 0.59067,-0.451136 0.61679,-0.316706 1.26515,-0.571291 1.93218,-0.754991 v -0.157615 c 0,-1.141066 0.57658,-1.711521 1.1529,-1.711521 z m -10.758,0.383956 c 0.41458,0 0.82152,0.307038 1.02165,0.897617 0.16057,-0.108021 0.33788,-0.162264 0.51521,-0.162264 0.57632,0 1.15238,0.570458 1.15238,1.711524 v 1.84795 c 0,1.411608 -0.88206,1.949572 -1.55494,1.614887 -0.052,0.712227 -0.29425,1.299721 -1.33015,1.429888 -0.28992,0.03643 -0.53613,-0.233315 -0.80409,-0.349848 -0.26309,-0.30762 -0.53144,-0.602054 -0.8139,-0.880568 -0.0302,0.02577 -0.0606,0.05136 -0.092,0.07596 -0.35869,0.09083 -0.70641,0.272317 -1.07642,0.272336 -0.30236,1.3e-5 -0.57634,-0.129445 -0.81546,-0.329179 -0.0808,0.58642 -0.27182,0.356706 -2.00453,-0.0062 -0.16744,0.02715 -0.24641,0.01749 -0.27647,-0.05684 -0.0135,-0.0027 -0.0246,-0.0051 -0.0382,-0.0078 -0.0124,-0.0024 -0.0252,-0.534969 -0.0253,-0.538469 -0.01,-0.66874 -0.007,-1.3378 -0.007,-2.006595 0.003,-1.878023 1.59373,-1.724901 2.87115,-1.477946 0.72281,0.174606 1.41846,0.432384 2.12493,0.657841 v -0.980302 h 5.3e-4 c 0,-1.141069 0.57606,-1.71204 1.15238,-1.71204 z m 52.63762,1.503783 c 0.57632,0 1.15238,0.570455 1.15238,1.711523 v 1.251088 c 0,1.499629 -0.9953,2.013778 -1.67793,1.542539 -0.25815,0.164179 -0.57951,0.295958 -1.02268,0.331248 -0.14313,0.0114 -0.2863,0.0227 -0.42943,0.0341 -0.6428,-0.006 -1.45766,-0.04301 -1.99678,-0.444418 -0.47631,-0.242287 -1.06911,0.453654 -1.42575,0.62942 -1.14201,0.704281 -2.80851,1.257964 -2.96054,-0.85266 0.26425,-1.109477 0.90468,-2.07641 1.46347,-3.062864 0.42181,-0.74463 0.9724,-1.046067 1.43454,-1.028359 0.7571,0.02901 1.27457,0.914718 0.601,2.109949 0.35407,-0.0795 0.72502,-0.110993 1.11724,-0.0894 0.60209,0.122436 1.10872,0.483241 1.73478,0.433049 0.0875,-0.0086 0.17502,-0.0173 0.26252,-0.02582 0.22377,-0.02199 0.41105,-0.0016 0.59428,0.0217 v -0.849561 c 0,-1.141069 0.57657,-1.711524 1.1529,-1.711524 z m -38.17804,1.941483 c 0.0163,0.04359 0.0326,0.08723 0.0476,0.13126 -0.0124,-0.05276 -0.0282,-0.09673 -0.0476,-0.13126 z m -4.85086,1.227315 c -0.0902,0.237125 -0.17169,0.477324 -0.25012,0.71882 2.6e-4,7.94e-4 7.9e-4,0.0019 0.001,0.0026 0.0952,-0.172196 0.17942,-0.352634 0.262,-0.534337 -0.006,-0.06325 -0.0101,-0.125452 -0.0129,-0.187068 z m 2.41587,0.529167 c -0.15217,0.05399 -0.30302,0.111503 -0.45062,0.177768 -0.004,0.0084 -0.009,0.01614 -0.0134,0.02429 0.0766,0.0028 0.15848,0.0074 0.24184,0.01241 0.083,-0.07026 0.16716,-0.138502 0.25167,-0.20619 -0.01,-0.0028 -0.0197,-0.0051 -0.0295,-0.0083 z m -0.22221,0.214458 c -0.0287,0.02434 -0.0576,0.0484 -0.0863,0.07286 0.13758,-0.02328 0.26877,-0.04496 0.35812,-0.05323 -0.0949,-0.0083 -0.18451,-0.01434 -0.27182,-0.01963 z m 34.75964,0.538985 c -0.0856,0.158975 -0.11422,0.207767 -0.004,0.0832 10e-4,-0.03146 0.003,-0.05524 0.004,-0.0832 z m -37.44009,0.156062 c -0.004,0.01066 -0.007,0.02138 -0.0109,0.03204 0.0193,-0.0042 0.0373,-0.0091 0.0491,-0.01394 0.0124,-0.0051 0.0255,-0.01005 0.0382,-0.01498 -0.008,-1.38e-4 -0.0184,-0.0013 -0.0253,-0.0011 -0.0157,0.0019 -0.0336,-5.3e-4 -0.0512,-0.0021 z m -15.03319,74.540671 c 1.90217,-0.0514 2.17727,1.78234 0.0982,2.28668 -0.64968,0.15762 -1.29119,0.28441 -1.93683,0.31574 0.0163,0.32909 0.0222,0.65915 0.0305,0.98702 5.3e-4,0.60876 0.0102,1.2165 0.0481,1.82315 0.45713,-0.036 0.66308,0.4447 1.37045,1.39681 0.063,0.0848 -0.18909,0.77203 -0.24029,0.91054 -0.0495,0.18414 -0.14069,0.34833 -0.22428,0.51625 0.32401,-0.0682 0.64905,-0.1317 0.97669,-0.18294 0.14092,-0.022 0.27409,-0.0339 0.39946,-0.0367 1.88047,-0.0411 1.99601,1.96498 -0.11317,2.32389 -0.70121,0.11933 -1.39269,0.28316 -2.08567,0.44029 -0.2245,0.41079 -0.78129,0.72495 -1.65829,0.67437 -0.44951,-0.0259 -0.22142,-0.007 -0.68368,-0.0605 -1.08173,-0.27178 -0.68002,-0.0287 -0.56637,-2.30838 0.005,-0.0925 0.17183,-0.0667 0.25993,-0.0935 0.21702,-0.066 0.43987,-0.10965 0.66301,-0.15141 0.0632,-0.22412 0.12502,-0.44436 0.24339,-0.68781 0.0369,-0.0699 0.0772,-0.13821 0.11679,-0.20671 -0.19173,-0.15551 -0.36866,-0.38874 -0.52451,-0.71933 -0.30018,-1.16646 -0.26499,-2.38396 -0.28629,-3.58066 -0.0136,-0.54959 -0.034,-1.09926 -0.0858,-1.64642 -0.26293,-0.20219 -0.44359,-0.43407 -0.30748,-0.62941 0.92813,-1.33196 1.52011,-1.55596 1.99626,-1.06764 0.69765,0.12323 1.41587,-0.16346 2.10788,-0.26717 0.14106,-0.0211 0.27523,-0.0327 0.40205,-0.0362 z m -2.79622,0.20877 c -0.003,0.003 0.045,0.0294 0.0615,0.0413 0.0529,0.0167 0.10599,0.0299 0.15916,0.0413 -0.0614,-0.0344 -0.13242,-0.0621 -0.21549,-0.0822 -0.003,-7.9e-4 -0.005,-7.9e-4 -0.005,-5.3e-4 z m 1.11001,6.15053 c 0.004,0.0805 0.008,0.0895 0.0713,0.21808 -0.017,-0.0834 -0.042,-0.155 -0.0713,-0.21808 z m 40.43268,68.28576 c 0.70459,-0.0226 1.24305,0.75482 0.81235,1.92959 0.2683,0.059 0.51513,0.15362 0.72657,0.30489 0.0135,-0.0466 0.0256,-0.0937 0.0398,-0.14004 0.25191,-0.64596 0.78101,-1.45721 1.54771,-1.48415 0.10953,-0.004 0.22403,0.008 0.34313,0.0393 0.072,0.0187 0.13265,0.0676 0.19999,0.0987 0.12239,-0.0571 0.25097,-0.0863 0.37982,-0.0863 0.57633,0 1.1529,0.57097 1.1529,1.71204 v 0.0537 c 0.12688,-0.0766 0.26499,-0.0286 0.4346,0.38654 0.11783,0.28844 0.32667,0.55515 0.35347,0.86558 0.0785,0.90948 -0.87606,1.37854 -1.55908,1.61593 -0.0325,-0.002 -0.0648,-0.006 -0.0977,-0.007 -0.35172,0.11878 -0.74068,0.0128 -1.02526,-0.31781 -0.0712,-0.0577 -0.17148,-0.0828 -0.22944,-0.15296 -0.69748,1.48484 -2.05258,0.95464 -2.53111,-0.18862 -0.0669,-0.1426 -0.09,-0.20541 -0.17467,-0.33021 -0.13635,0.15669 -0.26397,0.34924 -0.21291,0.41289 -0.11982,0.10686 -0.0581,0.50172 -0.15192,0.54932 -0.29294,0.14855 -0.51383,0.25979 -0.73794,0.37052 -0.0592,0.081 -0.12715,0.11427 -0.18966,0.17725 -0.74363,1.88469 -2.58454,1.35863 -2.28048,-0.3514 -0.0759,-0.12918 -0.0254,-0.22446 0.0739,-0.30695 0.0213,-0.0698 0.0457,-0.141 0.0739,-0.21394 l 0.13901,-0.36019 c 0.15636,-0.51819 0.30851,-1.03779 0.45268,-1.55959 -0.009,-0.21421 -0.0234,-0.42777 -0.0222,-0.64286 h 5.3e-4 c 0.006,-0.91474 0.37738,-1.43521 0.81649,-1.61282 0.24978,-0.29096 0.55002,-0.42891 0.8356,-0.42943 0.0372,-7e-5 0.074,0.003 0.11059,0.007 0.24017,-0.19735 0.48628,-0.33151 0.71934,-0.33899 z m 0.63252,4.07778 c -0.004,-0.001 -0.01,-5.3e-4 -0.016,0.002 -0.0295,0.009 -0.0825,0.0534 -0.1416,0.11109 0.0584,2.7e-4 0.0885,-0.0218 0.1571,-0.0532 0.0143,-0.0377 0.0129,-0.0561 5.3e-4,-0.0594 z m 43.36169,11.51041 c -0.12208,0.23109 -0.33454,0.44121 -0.64079,0.5886 0.005,0.51897 0.0463,1.04109 0.005,1.55546 0.24495,0.13208 0.53398,0.29061 0.80099,0.45268 v -2.59674 h -5.3e-4 z m -4.38733,0.99581 c -0.0681,0.0133 -0.13552,0.0276 -0.20205,0.0444 -0.0591,0.0149 0.12088,-0.0147 0.18138,-0.0217 0.008,-0.009 0.0125,-0.0136 0.0207,-0.0227 z m 2.39417,1.53375 c 0.15298,0.4518 0.30076,0.65516 0.48008,0.0786 -0.15035,-0.0213 -0.31391,-0.0488 -0.48008,-0.0786 z m -2.11253,1.95286 v 5.3e-4 c 0.0275,0.0184 0.0625,0.0703 0.0806,0.0455 0.002,-0.003 0.004,-0.006 0.007,-0.009 -0.0357,-0.015 -0.046,-0.0197 -0.0873,-0.0372 z m -63.2163,4.21679 v 5.3e-4 c 0.28739,0.004 0.57371,0.028 0.85886,0.0765 0.27274,0.0464 0.53577,0.13886 0.80357,0.20826 1.14585,0.44539 2.07517,1.21143 2.85306,2.13062 0.23345,-0.0233 0.46731,-0.0433 0.70176,-0.0589 1.41724,-0.037 2.79595,0.21763 4.04214,0.89556 0.34462,0.22357 0.62392,0.50092 0.87849,0.7984 0.15188,-0.77668 0.6273,-1.16531 1.10278,-1.16531 0.57633,0 1.15238,0.57046 1.15238,1.71153 v 2.14974 0.0909 c 0,0.28951 -0.0375,0.54203 -0.10232,0.75809 -0.0337,0.35389 -0.0837,0.67477 -0.17931,0.76585 -0.34055,0.32457 -0.79766,0.50002 -1.19631,0.74982 -0.27878,-0.13453 -0.57927,-0.23085 -0.83613,-0.40359 -0.17738,-0.11928 -0.30773,-0.35037 -0.41651,-0.61444 -0.82301,0.0842 -2.76345,-0.22769 -3.09335,-0.26561 -0.88486,-0.0999 -1.77132,-0.17925 -2.65875,-0.2465 -0.29844,0.16966 -0.71908,0.25887 -1.25987,0.20412 -0.13367,-0.0135 -0.26692,-0.0308 -0.4005,-0.0455 -1.44786,0.5019 -2.95793,0.73372 -4.49326,0.83199 -1.15843,-0.0245 -2.64269,0.0413 -3.57084,-0.81391 -0.17829,-0.16428 -0.29821,-0.38208 -0.44752,-0.57309 0.007,-0.0457 0.008,-0.0931 0.0129,-0.13952 -0.42245,-0.0862 -0.80938,-0.22639 -1.12965,-0.44752 -0.13939,0.0804 -0.29973,0.1528 -0.50074,0.21136 -0.252,0.0734 -0.51579,-0.0523 -0.77618,-0.11886 -7.9e-4,0.003 -0.003,0.007 -0.004,0.009 -0.14047,0.89383 -0.093,1.36626 -0.94723,1.50741 -0.0909,0.56223 -0.30335,1.08677 -0.86506,1.23558 -0.40776,0.10803 -0.82918,-0.15504 -1.24384,-0.23254 -0.56677,-0.60526 -0.6631,-1.35582 -0.69558,-2.14871 -0.0319,-0.77809 0.23558,-1.29581 0.59843,-1.55029 v -1.2976 c 0,-1.14107 0.57658,-1.71152 1.1529,-1.71152 0.4404,0 0.87928,0.33426 1.06247,1.00045 1.70389,-1.64854 3.51691,-2.27214 5.89421,-2.94297 1.19956,-0.23829 2.45775,-0.57866 3.70312,-0.55914 z m -0.24443,2.31769 c -0.95064,0.009 -1.91939,0.28292 -2.83497,0.46147 -1.20263,0.33655 -2.24408,0.61835 -3.19463,1.09657 0.0523,0.12409 0.1009,0.25474 0.14469,0.39791 0.0944,0.30857 0.13623,0.2255 0.0398,0.35502 -0.17567,-0.0367 -0.37694,0.0442 0.14831,0.12712 0.33224,0.0524 0.66787,0.0794 1.00459,0.0987 0.29323,-0.14815 0.57521,-0.27612 0.72761,-0.34003 0.0375,-0.0157 0.0756,-0.0296 0.11317,-0.045 0.16482,-0.3406 0.59626,-0.53423 0.91364,-0.7612 0.94754,-0.67764 2.38842,-0.96089 3.51761,-1.11569 0.29597,-0.0193 0.58478,-0.0149 0.86868,0.002 -0.0566,-0.0305 -0.11187,-0.0627 -0.17001,-0.0909 -0.41792,-0.13909 -0.84636,-0.18962 -1.27848,-0.18552 z m -40.768567,0.56792 c 0.576326,0 1.152901,0.57046 1.152901,1.71153 v 0.68419 c 0.08268,-0.054 0.146812,-0.10363 0.49661,-0.32194 0.423506,-0.26431 0.812526,-0.37688 1.142046,-0.37879 1.17683,-0.007 1.59131,1.39721 0.0755,2.33629 -0.56589,0.35063 -0.296,0.17505 -0.81132,0.524 -1.023899,0.69339 -1.864877,0.44982 -2.139404,-0.11265 -0.547288,-0.0525 -1.069186,-0.62151 -1.069186,-1.70739 v -1.02371 c 0,-1.14107 0.576577,-1.71153 1.152903,-1.71153 z m 43.182897,2.23191 c -0.0476,0.01 -0.0951,0.0199 -0.14263,0.03 0.0872,0.005 0.1743,0.0104 0.26148,0.0155 -0.0392,-0.0166 -0.0793,-0.0305 -0.11885,-0.0455 z m -50.933847,1.13481 c 1.88e-4,0.006 -1.4e-4,0.0119 5.29e-4,0.0181 0.02302,-10e-4 0.04711,-0.005 0.07235,-0.009 -0.02479,-0.003 -0.04977,-0.008 -0.07286,-0.009 z m 40.118997,0.4129 c -0.003,0.007 -0.008,0.0168 -0.0103,0.0233 0.0453,0.008 0.0529,0.002 0.0103,-0.0233 z m -52.883074,7.38145 v 0.0987 c 0.0013,-0.0329 0.0029,-0.0658 0.0041,-0.0987 -0.0013,2.1e-4 -0.0027,0 -0.0041,0 z m 37.804924,4.59197 c 0.57633,0 1.15239,0.57047 1.15239,1.71154 v 2.63755 c 0,0.86106 0.0362,1.71969 -0.0951,2.57297 -0.22034,0.79071 -0.1754,0.97023 -1.82883,0.93742 -0.0934,-0.003 -0.16965,-0.0445 -0.23616,-0.10904 -0.52808,0.49382 -1.4958,0.28668 -1.96887,-1.00253 -0.0513,-0.13983 -0.10473,-0.27911 -0.1602,-0.41701 -0.27185,0.0542 -0.41479,-0.003 -0.49867,-0.16486 -0.005,-8e-5 -0.008,8e-5 -0.0134,0 -0.002,-3e-5 -0.014,-0.0452 -0.0305,-0.1106 -0.0128,-0.0417 -0.0244,-0.087 -0.0341,-0.13745 -2.1e-4,0 4e-5,-0.003 -5.3e-4,-0.004 -0.0446,-0.18404 -0.10315,-0.43206 -0.15452,-0.64802 -0.14856,-0.51885 -0.28208,-1.04214 -0.44441,-1.55702 -0.0183,-0.058 -0.0404,-0.11874 -0.06,-0.17311 -0.004,-0.009 -0.007,-0.0172 -0.0109,-0.0259 5.3e-4,-2.2e-4 0.001,0 0.002,0 -0.0228,-0.0629 -0.0398,-0.10959 -0.0382,-0.11007 0.32358,-0.10157 0.65023,-0.1923 0.97772,-0.28059 0.39701,-0.16608 0.79472,-0.32941 1.19941,-0.47543 0.008,-0.003 0.0403,0.0884 0.0811,0.21653 0.11487,0.25443 0.21797,0.51308 0.33434,0.76634 0.19504,-0.11422 0.43,-0.15226 0.67438,-0.0971 v -1.81797 c 0,-1.14107 0.57657,-1.71154 1.1529,-1.71154 z m 6.83938,7.74526 c -0.41708,0.47752 -0.37813,0.39743 -0.35399,0.90072 0.0252,0.30001 0.31686,0.15489 1.19321,0.27337 0.001,-0.10679 -5.3e-4,-0.21365 -0.004,-0.31935 -0.0909,0.003 -0.15359,0.003 -0.15658,-0.005 -0.10791,-0.22355 -0.21015,-0.42196 -0.30489,-0.59841 -0.12808,-0.0844 -0.25281,-0.16838 -0.37362,-0.25117 z" />
    </clipPath>
    <clipPath
       clipPathUnits="userSpaceOnUse"
       id="clipPath413">
      <path
         id="path413"
         style="fill:#ff0000;fill-opacity:1;fill-rule:nonzero;stroke:none;stroke-width:0.264583"
         d="m 7.1499513,186.19535 v 12.97906 H 32.424378 v -12.97906 z m 11.9295047,0.57619 c 0.28698,-0.006 0.577977,0.0153 0.875398,0.0579 0.882991,0.12772 1.543669,0.56819 1.624707,1.18081 0.927646,0.22563 1.716948,0.78098 1.594735,1.96991 -0.04294,0.41774 -0.360607,0.75818 -0.541052,1.13739 -0.442207,0.45524 -0.911746,0.88329 -1.401982,1.28778 0.327669,0.42607 0.62608,0.86768 0.765328,1.38596 0.04818,0.17931 0.05234,0.36758 0.07855,0.55139 -0.118054,0.30222 -0.154943,0.65017 -0.353983,0.9064 -0.02885,0.0371 -0.06079,0.0699 -0.0925,0.10284 0.08788,0.0539 0.187407,0.11896 0.361218,0.22634 0.155528,0.23997 0.409878,0.43958 0.466638,0.71986 0.25234,1.24613 -0.869436,1.85328 -1.823144,2.19418 -1.05163,0.28698 -2.059175,0.3609 -3.073714,-0.12299 -0.943924,-0.51717 -1.663048,-1.23797 -1.611788,-2.39211 0.03101,-0.11884 0.05034,-0.24226 0.07958,-0.36173 -0.829446,0.3011 -1.785813,0.44045 -2.288233,-0.59324 -0.34588,-0.71161 0.09899,-1.18648 0.42478,-1.67897 0.909436,-1.13449 1.998745,-2.1087 3.003434,-3.15588 h -1.048514 c -2.282134,0 -2.282134,-2.30529 0,-2.30529 h 0.803568 c -0.04965,-0.13308 0.04641,-0.30782 0.377755,-0.54725 0.123709,-0.0894 0.247328,-0.1788 0.371037,-0.2682 0.463495,-0.19706 0.929881,-0.28465 1.408183,-0.29508 z m -4.165121,6.74378 c -0.03897,0.005 -0.08843,0.0282 -0.06408,0.0357 0.04072,0.0126 0.09716,0.008 0.158647,-0.004 -0.02056,-0.01 -0.0424,-0.0187 -0.06253,-0.0289 -0.0076,-0.004 -0.01905,-0.004 -0.03204,-0.003 z m 5.664771,2.43241 c 1.9e-4,-0.005 -0.01149,-0.002 -0.03927,0.0119 -0.106992,0.052 -0.182713,0.11842 -0.235644,0.1943 0.138271,-0.0893 0.274284,-0.19049 0.274919,-0.20619 z m -2.445846,0.49558 c -0.01557,0.0112 -0.03178,0.0214 -0.04703,0.0331 -0.0366,0.0281 -0.137769,0.11892 -0.09612,0.0992 0.06651,-0.0315 0.111505,-0.0743 0.152962,-0.12092 -0.0034,-0.004 -0.0064,-0.008 -0.0098,-0.0114 z" />
    </clipPath>
    <clipPath
       clipPathUnits="userSpaceOnUse"
       id="clipPath418">
      <path
         id="path418"
         style="fill:#ff0000;fill-opacity:1;fill-rule:nonzero;stroke:none;stroke-width:0.264583"
         d="m 7.1499513,208.09583 v 12.97905 H 32.424378 v -12.97905 z m 9.2226927,0.52089 c 0.181262,0.001 0.423314,0.0127 0.749825,0.0135 h 3.358968 v 5.2e-4 c 2.282134,0 2.282134,2.30529 0,2.30529 h -0.734839 c 0.07152,0.0702 0.143589,0.13995 0.214974,0.21032 0.999842,0.0197 1.650908,0.84829 2.140955,1.74615 0.327532,0.78249 0.740582,1.72781 0.450102,2.59261 -0.0485,0.1444 -0.121578,0.2784 -0.196371,0.41186 0.10455,0.21628 0.182332,0.44262 0.218075,0.67851 0.03326,0.21947 0.01514,0.44373 0.02274,0.66559 -0.0694,0.30282 -0.183818,0.55667 -0.330729,0.77411 0.03095,0.16391 0.04084,0.34098 0.01964,0.53537 -0.02556,0.23434 -0.189143,0.4321 -0.283703,0.64803 -0.659207,0.81561 -1.645295,1.00041 -2.626713,1.14825 -0.485485,0.0749 -0.946553,-0.0179 -1.411284,-0.14418 -0.515354,-0.14008 -0.860941,-0.39387 -1.065568,-0.68626 -0.180004,-0.0657 -0.363982,-0.1274 -0.47749,-0.27286 -0.681681,-0.87365 -0.355301,-1.57411 0.267684,-2.05258 -0.281682,-0.10977 -0.565655,-0.27309 -0.869715,-0.51315 -0.617856,-0.77001 -0.67408,-1.39904 0.04134,-2.25361 0.115843,-0.13838 0.281482,-0.24637 0.470772,-0.33331 -0.02025,-0.34278 0.04373,-0.8564 0.162781,-1.63091 0.01076,-0.07 0.719144,-0.30056 0.764294,-0.31626 0.101442,-0.0331 0.201216,-0.0704 0.299723,-0.10956 -0.0013,-0.001 -0.0028,-0.002 -0.0041,-0.004 -0.65004,-0.45025 -1.364378,-0.77216 -2.045353,-1.16995 0.433959,-2.06131 0.07856,-2.24831 0.86403,-2.24379 z m 0.990121,6.34845 c -0.09961,0.0426 -0.01151,0.0698 0.145727,0.0863 -0.03521,-0.0396 -0.0824,-0.07 -0.145727,-0.0863 z" />
    </clipPath>
    <clipPath
       clipPathUnits="userSpaceOnUse"
       id="clipPath443">
      <path
         id="path444"
         style="fill:#ff0000;fill-opacity:1;fill-rule:nonzero;stroke:none;stroke-width:0.264583"
         d="m 7.5344237,247.28568 v 12.97957 H 33.576763 v -12.97957 z m 12.2163083,0.66663 c 1.313035,-0.0371 1.805238,0.942 1.271757,1.65003 0.651527,0.80981 1.082841,1.25728 0.706417,1.68775 0.583754,0.27942 1.040155,0.76487 1.089856,1.49706 0.02191,0.32265 -0.08346,0.64097 -0.125057,0.9617 -0.597011,1.1452 -1.432425,2.11459 -2.407088,2.93987 0.442119,-0.0768 0.881927,-0.16824 1.318783,-0.28163 0.420032,-0.10903 0.779732,-0.11522 1.072802,-0.0517 0.243077,-0.10017 0.470178,-0.14916 0.675411,-0.15503 1.182705,-0.0338 1.630611,1.341 0.13901,2.31769 -0.835137,0.54684 -1.77026,0.88843 -2.726965,1.15032 -0.42564,0.10858 -0.859728,0.17544 -1.292428,0.24804 -0.971698,0.16302 -1.593763,-0.16847 -1.807125,-0.62786 -0.02467,0.001 -0.04922,0.004 -0.0739,0.005 -1.022995,-0.0437 -2.296459,-0.24091 -2.96106,-1.13894 -0.168759,-0.22805 -0.276005,-0.49572 -0.413928,-0.74363 -0.02402,-0.34423 -0.107854,-0.68978 -0.07235,-1.03301 0.131827,-1.27418 1.200073,-2.75642 2.033984,-3.68195 0.253771,-0.20362 0.518939,-0.38835 0.792717,-0.55655 0.02789,-0.0322 0.05319,-0.0637 0.08165,-0.0961 0.238085,-0.26229 0.482999,-0.5155 0.736906,-0.75758 -0.170378,-0.10514 -0.344734,-0.23774 -0.531234,-0.40927 -0.661125,-1.19854 -0.179766,-2.04819 0.962215,-2.60915 0.36217,-0.149 0.746254,-0.21183 1.129647,-0.27543 0.140708,-0.0234 0.274144,-0.0362 0.399975,-0.0398 z m -0.987019,1.29294 c -0.01413,-0.001 -0.01914,0.005 -0.0083,0.0222 0.04236,0.0676 0.133508,0.0926 0.24288,0.0992 -0.004,-0.005 -0.0068,-0.0102 -0.01085,-0.0155 -0.05339,-0.0308 -0.181372,-0.10182 -0.22376,-0.10594 z" />
    </clipPath>
    <clipPath
       clipPathUnits="userSpaceOnUse"
       id="clipPath446">
      <path
         id="path447"
         style="fill:#ff0000;fill-opacity:1;fill-rule:nonzero;stroke:none;stroke-width:0.264583"
         d="m 17.138489,14.450281 v 30.626554 c 0.07842,-0.0088 0.154742,-0.01453 0.227893,-0.01601 1.298096,-0.02638 1.751298,1.046096 1.02526,1.773536 0.107804,0.0852 0.216193,0.169468 0.327629,0.248563 -0.08103,0.308676 -0.125578,0.630671 -0.202055,0.941028 0.134748,-2.33e-4 0.269468,5.29e-4 0.40411,0.0026 0.102835,-0.114104 0.20555,-0.228356 0.331246,-0.314711 0.39739,-0.273005 0.91661,-0.448744 1.421618,-0.451652 0.168336,-0.0011 0.33506,0.01762 0.49506,0.05788 0.280432,0.07054 0.656464,0.0735 0.806153,0.320913 0.287683,0.475486 0.247582,1.083487 0.371553,1.625222 -0.163907,0.190053 -0.300994,0.407061 -0.491442,0.570508 -0.573906,0.492535 -1.359089,0.820134 -2.121318,1.16737 0.04026,0.111956 0.0655,0.226852 0.06253,0.347266 -0.01259,0.509887 -0.419756,0.90547 -0.914672,1.227833 0.224815,0.03063 0.410197,0.09178 0.581359,0.16123 0.167009,-0.02183 0.334789,-0.04097 0.503846,-0.05581 0.07104,-0.0062 0.140555,-0.01005 0.207739,-0.01188 2.082694,-0.05656 2.301719,1.946693 0.118339,2.293919 -0.671918,0.106852 -1.40456,0.104285 -2.014347,0.439763 -0.0307,0.02572 -0.06129,0.05188 -0.09198,0.07751 -0.37244,0.311981 -0.731836,0.459211 -1.048515,0.486794 v 50.530253 c 0.01847,-0.002 0.03671,-0.004 0.05529,-0.005 0.541886,-0.01 1.121701,0.48159 1.270206,1.54099 0.12686,0.90499 0.200492,1.81588 0.258382,2.72748 0.02836,0.75334 0.194393,1.49245 0.293523,2.23862 0.07518,0.66589 0.254187,1.31313 0.361218,1.97508 0.01648,0.12587 0.03313,0.25189 0.04961,0.37775 0.296275,2.26283 -1.996749,2.55981 -2.286165,0.29611 -6.88e-4,-0.005 -0.0014,-0.0102 -0.0021,-0.0155 v 10.75946 c 0.08977,-0.0336 0.185838,-0.0647 0.289388,-0.092 0.738587,-0.0295 1.268463,0.12711 2.001946,-0.16743 v -5.3e-4 c 0.330899,-0.13286 0.626855,-0.18643 0.882632,-0.18035 1.3812,0.0329 1.586725,1.81791 -0.249596,2.39727 -0.554958,0.17508 -1.104414,0.27322 -1.675868,0.27389 0.0092,0.0544 0.01558,0.0925 0.02739,0.16071 0.07477,0.31641 0.2173,0.59917 0.393257,0.86248 0.818745,-0.2786 1.256088,-0.0606 1.491899,0.91002 0.05409,0.53377 0.100058,1.40024 -0.465606,1.73943 -0.04274,0.54801 -0.133752,1.08576 -0.25373,1.61747 0.0054,-0.002 0.01064,-0.005 0.01602,-0.007 0.330736,-0.13327 0.631155,-0.19333 0.894002,-0.19637 1.360549,-0.0158 1.701526,1.48421 0.152962,2.235 0.08799,0.32866 0.006,0.66556 -0.245979,0.90641 0.272192,0.68919 0.427829,0.96926 -0.967383,0.58549 -0.201875,-0.0555 -0.410422,-0.17759 -0.618567,-0.2837 -0.22052,8e-4 -0.414497,0.0653 -0.63407,0.13074 -0.12325,0.0367 -0.241378,0.0639 -0.3545,0.0827 -0.04844,0.34648 -0.189272,0.46472 -0.548804,0.0243 -0.04653,-0.004 -0.09162,-0.0104 -0.135392,-0.0181 v 7.244 c 0.272776,0.009 0.5842,0.0855 0.925525,0.25115 0.342245,0.16608 0.711593,0.26738 1.080554,0.37052 0.483275,-0.0831 0.963772,-0.18466 1.441256,-0.28939 0.208983,-0.0458 0.403304,-0.0681 0.581876,-0.0703 1.613995,-0.0198 1.948552,1.59582 0.340548,2.19677 1.442083,1.50599 -0.115952,2.99981 -1.742013,1.495 -0.08235,-0.0762 -0.586491,-0.46857 -0.947745,-0.67748 -0.0023,0.004 -0.0038,0.008 -0.0062,0.0119 0.122769,0.10504 0.235741,0.22156 0.354501,0.33125 0.466874,0.35377 0.171703,0.86052 0.127641,1.3007 0.06997,0.0513 0.181897,0.13175 0.376204,0.26148 0.57516,0.79735 0.268824,1.16951 0.116789,1.84743 0.0459,0.0935 0.04996,0.16526 -0.01137,0.17622 -0.01808,0.003 -0.0093,-0.0354 -0.01395,-0.0532 0.0077,-0.0423 0.01635,-0.083 0.02532,-0.12299 -0.08886,-0.18107 -0.337733,-0.44411 -0.59583,-0.5116 0.08,0.80094 0.127392,1.40959 0.155546,1.88774 0.0092,0.003 0.01601,0.006 0.01809,0.0124 0.01877,0.0562 0.03399,0.10447 0.05168,0.15813 0.0014,-0.0188 0.0027,-0.0436 0.0041,-0.0615 0.0094,0.0436 0.03395,0.10601 0.05529,0.17105 0.04531,-0.0382 0.09811,-0.0651 0.16123,-0.0734 0.05345,-0.007 -0.07383,0.0791 -0.106453,0.12196 -0.01151,0.0151 -0.02079,0.0334 -0.02894,0.0532 0.0043,0.0243 0.008,0.0483 0.0067,0.0698 0.454371,1.42218 0.453228,1.84174 -0.01602,1.87172 7.1e-5,0.002 0.0011,0.003 -5.29e-4,0.005 -0.03118,0.0502 -0.110888,0.0414 -0.166398,0.0615 -0.406035,0.0927 -0.54771,0.32789 -0.873332,0.56586 -0.0402,0.021 -0.08021,0.0419 -0.120406,0.063 -1.090166,0.56846 -0.712173,-0.39893 -0.443383,-1.24126 -0.28625,-0.22624 -0.489911,-0.49361 -0.598414,-0.81132 -0.006,0.003 -0.01206,0.007 -0.01809,0.0103 -0.04509,0.0395 -0.07993,0.0968 -0.133842,0.12093 v 15.69154 c 0.07061,-0.0536 0.141282,-0.10707 0.211873,-0.16071 0.198744,-0.15101 0.377552,-0.22026 0.537435,-0.22583 0.128074,-0.004 0.234445,0.057 0.337447,0.12609 0.128635,-0.047 0.26933,-0.087 0.42323,-0.11833 0.39051,-0.0795 0.781389,-0.15905 1.165304,-0.26717 0.274585,-0.0773 0.524533,-0.1105 0.747758,-0.10801 0.848966,0.01 1.307486,0.5341 1.242301,1.09865 0.753488,0.73227 0.375712,1.58269 -1.289327,1.58853 -0.396845,0.002 -0.831361,-0.007 -1.240234,-0.0873 -0.03343,0.007 -0.06683,0.0138 -0.100253,0.0207 0.02374,0.0412 0.06261,0.0889 0.06615,0.1266 0.28488,0.0123 0.569529,0.0301 0.851628,0.0744 0.04021,0.53947 0.12249,1.07844 0.15813,1.61799 0.192907,0.52266 0.138887,0.71647 -0.320911,1.22318 -0.09172,0.10107 -0.228374,0.20881 -0.369486,0.29042 0.01282,0.009 0.02584,0.0177 0.03876,0.0269 0.02596,-0.009 0.05211,-0.0175 0.07803,-0.0264 0.33652,-0.11793 0.642459,-0.16711 0.910539,-0.16278 0.98823,0.0159 1.413457,0.75183 1.043864,1.4366 0.05054,-0.006 0.100217,-0.0101 0.148311,-0.0109 1.057506,-0.0156 1.496868,1.28377 0.162264,2.35541 -0.02809,0.0225 -0.05699,0.0439 -0.08527,0.0661 -0.04698,0.18045 -0.08025,0.3631 -0.120406,0.54467 -0.117145,0.0295 -0.234969,0.0525 -0.353467,0.0729 0.0041,0.56767 -0.533137,1.15254 -1.64486,1.20613 -0.154271,0.007 -0.308829,-0.0195 -0.463538,-0.0165 -0.01383,0.01 -0.02806,0.0194 -0.04186,0.0294 0.08278,0.31823 0.02118,0.4618 -0.256315,0.17416 -0.389348,0.24098 -1.119031,0.62679 -1.223181,0.50021 -0.252701,-0.30703 -0.447039,-0.52752 -0.613916,-0.7157 v 6.97217 c 0.04666,-0.0411 0.09863,-0.0836 0.161747,-0.12919 0.123709,-0.0894 0.247328,-0.17879 0.371037,-0.26819 0.463495,-0.19708 0.929882,-0.28465 1.408183,-0.29508 0.28698,-0.006 0.577977,0.0153 0.875398,0.0579 0.882991,0.12772 1.543669,0.56818 1.624707,1.18082 0.927646,0.2256 1.716948,0.781 1.594735,1.9699 -0.04294,0.41775 -0.360607,0.75819 -0.541052,1.13739 -0.442207,0.45524 -0.911746,0.88329 -1.401982,1.28778 0.327669,0.42607 0.62608,0.86767 0.765328,1.38597 0.04818,0.17929 0.05234,0.36757 0.07855,0.55139 -0.118054,0.30222 -0.154943,0.65016 -0.353983,0.90639 -0.02885,0.0371 -0.06079,0.0699 -0.0925,0.10285 0.08788,0.0539 0.187407,0.11894 0.361218,0.22634 0.155528,0.23995 0.409878,0.43956 0.466638,0.71986 0.25234,1.24614 -0.869436,1.85327 -1.823144,2.19417 -1.05163,0.28698 -2.059175,0.3609 -3.073714,-0.12298 -0.146707,-0.0804 -0.287365,-0.16627 -0.421163,-0.25735 v 10.51822 h 3.342948 v 5.2e-4 c 2.282134,0 2.282134,2.30528 0,2.30528 H 19.74659 c 0.07152,0.0702 0.143589,0.13997 0.214974,0.21032 0.999842,0.0197 1.650908,0.8483 2.140955,1.74616 0.327532,0.78249 0.740582,1.72781 0.450102,2.59261 -0.0485,0.1444 -0.121578,0.27841 -0.196371,0.41185 0.10455,0.21631 0.182332,0.44263 0.218075,0.67852 0.03326,0.21946 0.01514,0.44373 0.02274,0.66559 -0.0694,0.30281 -0.183818,0.55667 -0.330729,0.77411 0.03095,0.16392 0.04084,0.34098 0.01964,0.53537 -0.02556,0.23434 -0.189143,0.4321 -0.283703,0.64803 -0.659207,0.81561 -1.645297,1.00041 -2.626712,1.14825 -0.485488,0.0749 -0.946554,-0.0179 -1.411285,-0.14418 -0.351833,-0.0956 -0.623041,-0.24498 -0.825789,-0.42271 v 29.40181 c 0.205523,-0.36412 0.579739,-0.66712 1.082621,-0.91415 0.36217,-0.149 0.746254,-0.21184 1.129647,-0.27543 0.140708,-0.0234 0.274144,-0.0362 0.399975,-0.0398 1.313035,-0.0371 1.805236,0.94199 1.271758,1.65002 0.651524,0.80983 1.08284,1.25729 0.706416,1.68776 0.583754,0.27942 1.040156,0.76488 1.089856,1.49706 0.02191,0.32264 -0.08346,0.64096 -0.125057,0.9617 -0.597011,1.1452 -1.432425,2.11458 -2.407088,2.93987 0.442119,-0.0768 0.881927,-0.16825 1.318783,-0.28164 0.410355,-0.10651 0.742116,-0.093 1.031461,-0.0341 0.258487,-0.11188 0.500071,-0.1664 0.716752,-0.17259 1.182705,-0.0338 1.630611,1.34099 0.13901,2.31769 -0.835137,0.54684 -1.77026,0.88843 -2.726965,1.15032 -0.42564,0.10858 -0.859728,0.17544 -1.292428,0.24804 -0.972879,0.16321 -1.595534,-0.16916 -1.808158,-0.62941 -0.0244,0.001 -0.04846,0.005 -0.07286,0.007 -0.146699,-0.006 -0.299253,-0.0173 -0.453719,-0.0315 v 6.38255 h 13.891145 c 0.168905,-0.7909 0.322678,-1.02907 1.045414,-1.53323 0.136903,-0.0842 0.271409,-0.17321 0.410826,-0.25322 0.06478,-0.0372 0.105458,-0.0582 0.150895,-0.0822 0.10156,-0.28893 0.227269,-0.65271 0.376721,-1.15601 0.03569,-0.12009 0.246737,0.0468 0.366387,0.0842 0.161891,0.0506 0.816677,0.35423 0.872816,0.38034 0.231587,0.10751 0.461192,0.21832 0.691946,0.32763 0.0448,0.0227 0.191376,0.0972 0.306956,0.15606 0.195607,-0.0524 0.396105,-0.0906 0.603065,-0.11214 0.35977,-0.23831 0.774446,-0.39589 1.203026,-0.48731 1.764292,-0.0968 3.516596,0.12043 5.267378,0.33538 0.570299,-0.0322 1.21439,-0.0305 1.566831,-0.0279 0.651933,0.004 1.303663,0.0205 1.955435,0.0424 1.357381,-0.16391 2.723655,-0.2568 4.083473,-0.40618 0.0868,-0.0105 0.146256,-0.0178 0.23771,-0.0289 0.15775,-0.0187 0.440549,-0.0546 0.667144,-0.0811 0.242588,-0.0331 0.484807,-0.0685 0.726572,-0.10852 0.618408,-0.0815 1.069941,-0.20031 1.39423,-0.18448 0.137221,-0.0597 0.280538,-0.13268 0.313161,-0.0248 0.01341,0.0444 0.02294,0.091 0.03565,0.13591 0.284993,0.21766 0.374356,0.79587 0.336931,2.13889 -0.0028,0.0988 -0.105936,0.11126 -0.229444,0.10491 -0.003,0.003 -0.0066,0.004 -0.0098,0.006 1.287523,0.069 2.576637,0.11023 3.865914,0.12351 0.07978,-0.003 0.09057,-0.003 0.165365,-0.004 0.583838,-1.15369 2.396696,-1.8046 3.523816,-2.24534 0.298903,-0.0993 0.620152,-0.1768 0.930175,-0.27492 -0.138274,-0.3908 -0.04234,-0.86037 0.511079,-1.49397 -0.230973,-0.44014 -0.454805,-0.88406 -0.665075,-1.3348 -0.475916,-1.21235 -0.912032,-2.78639 0.111623,-3.89692 0.224618,-0.24369 0.550926,-0.36852 0.826307,-0.55294 0.282059,-0.0557 0.559233,-0.14602 0.845941,-0.16743 0.131929,-0.01 0.265481,-0.0133 0.399976,-0.0124 2.017424,0.0135 4.297635,1.184 6.073013,1.88205 1.548548,0.72043 4.441113,1.60378 4.421952,3.83698 -0.0033,0.38875 -0.207023,0.67786 -0.5271,0.894 0.305345,0.22711 0.599485,0.4668 0.945679,0.62787 1.097288,0.1526 2.084165,0.94685 2.947109,1.59267 0.01537,0.0276 0.96134,0.7581 0.86868,0.88571 -0.246036,0.33893 -0.544756,0.63301 -0.855244,0.91675 H 96.054082 V 14.450281 Z m 2.370398,139.025109 c -0.0046,-0.0143 -0.01031,-0.0315 -0.01499,-0.046 -0.01688,0.0491 -0.02818,0.10333 -0.03979,0.14367 0.03743,-0.0202 0.05233,-0.0555 0.05478,-0.0977 z m -0.01499,-0.046 c 0.0027,-0.008 0.0052,-0.0162 0.0083,-0.0238 -0.006,-0.0333 -0.01455,-0.0674 -0.02584,-0.1018 -0.0063,0.005 -0.01213,0.0113 -0.01809,0.017 0.01155,0.0355 0.02463,0.0742 0.03566,0.10852 z m -0.03566,-0.10852 c -0.01346,-0.0414 -0.02718,-0.0837 -0.04134,-0.1266 -0.0042,0.0575 -0.0076,0.1225 -0.01137,0.18862 0.01599,-0.0229 0.03364,-0.0435 0.05271,-0.062 z M 20.616829,47.890099 c 0.06947,-0.04615 -0.141163,0.08858 -0.211873,0.132811 6.2e-5,0.0013 -6.1e-5,0.0024 0,0.0036 0.07115,-0.04455 0.141836,-0.0899 0.211873,-0.136427 z m -2.901114,80.658641 c -0.01754,-0.003 -0.03078,0.009 -0.08423,0.0496 0.06232,-0.002 0.116738,-0.0107 0.167432,-0.0222 -0.04233,-0.013 -0.06927,-0.0253 -0.0832,-0.0274 z m 1.735811,1.89343 c 0.04128,0.0414 0.08234,0.0829 0.130741,0.11524 0.04192,0.028 -0.05048,-0.11018 -0.100769,-0.11318 -0.0099,-5.3e-4 -0.02003,-0.001 -0.02997,-0.002 z m -2.313037,0.81132 v 2.91145 c 0.216249,-0.76208 0.383034,-1.53259 0.42323,-2.33268 8.73e-4,-0.007 0.0041,-0.0306 0.0052,-0.0387 -0.147714,-0.17669 -0.291238,-0.35641 -0.428397,-0.54002 z m 0.794267,3.6468 c -0.03743,-0.0153 -0.04807,0.048 -0.06718,0.0863 0.03885,-0.009 0.07782,-0.0185 0.116789,-0.0274 -0.01846,-0.0253 -0.03846,-0.0543 -0.04961,-0.0589 z m 0.573091,12.86278 c -0.035,-0.001 -0.05654,0.0117 -0.06046,0.0424 0.122179,0.0117 0.169246,0.0149 0.229443,0.0196 -0.0044,-0.005 -0.0048,-0.006 -0.0088,-0.0109 -0.0656,-0.0305 -0.121599,-0.0499 -0.160197,-0.0512 z m 0.281637,0.21291 c -0.01,0.0514 -0.0079,0.12218 0.03152,0.22324 0.06059,-0.045 0.02492,-0.13512 -0.03152,-0.22324 z m 0.503328,1.63298 c -0.0025,0.0761 0.0034,0.14959 0.02532,0.21962 0.02481,-0.0794 0.0047,-0.15694 -0.02532,-0.21962 z m -2.152323,0.86351 v 3.62717 c 0.03046,-0.0281 0.08313,-0.0694 0.107487,-0.092 0.01295,-0.012 0.02583,-0.0229 0.03876,-0.0346 -0.110942,-0.33673 -0.116365,-0.72976 0.0047,-1.19217 0.07569,-0.19447 0.155756,-0.3962 0.256833,-0.5855 -0.07322,-0.2661 -0.09106,-0.55881 -0.04754,-0.86351 0.01444,-0.0719 0.02933,-0.14326 0.04496,-0.21394 -0.175818,-0.18581 -0.307384,-0.39903 -0.405144,-0.64544 z m 2.427759,2.03088 c 0.04195,0.0878 0.03506,0.46255 -0.117306,0.56948 -0.01128,-0.001 -0.01811,0.002 -0.02325,0.007 0.0262,-0.3083 0.05753,-0.47497 0.08578,-0.54829 0.02119,-0.055 0.04079,-0.0577 0.05478,-0.0284 z m -0.19172,2.84479 c 0.0088,0.0107 0.0368,0.007 0.0646,0.001 -0.02094,7e-5 -0.04202,-2.7e-4 -0.0646,-0.001 z m -2.236039,18.57303 v 0.35811 c 0.05889,-0.10983 0.13199,-0.21472 0.201538,-0.32091 -0.06727,-0.0111 -0.134372,-0.0245 -0.201538,-0.0372 z m 1.97559,0.59479 c -0.01895,-0.001 -0.05302,0.0528 -0.03772,0.0703 0.06248,0.0717 0.131273,0.13759 0.202572,0.20102 -0.02615,-0.0673 -0.07182,-0.14409 -0.15813,-0.26716 -0.0019,-0.003 -0.004,-0.004 -0.0067,-0.004 z m -1.97559,1.13327 v 0.13849 c 0.02372,-0.007 0.04758,-0.0137 0.07131,-0.0207 -0.02054,-0.041 -0.05366,-0.0754 -0.07131,-0.11782 z m 0,14.53813 v 0.0294 c 0.0095,-0.01 0.01941,-0.0197 0.02894,-0.0294 z m 3.440617,5.76037 c 1.9e-4,-0.005 -0.01149,-0.002 -0.03927,0.0119 -0.106992,0.052 -0.182714,0.11842 -0.235645,0.1943 0.138271,-0.0893 0.274284,-0.19049 0.274919,-0.20619 z m -2.445846,0.49558 c -0.01557,0.0112 -0.03177,0.0214 -0.04703,0.0331 -0.0366,0.0281 -0.137766,0.11898 -0.09612,0.0992 0.06651,-0.0315 0.111505,-0.0743 0.152963,-0.12092 -0.0034,-0.004 -0.0064,-0.008 -0.0098,-0.0114 z m -0.994771,15.32051 v 5.3e-4 0.42116 c 0.03267,-0.011 0.113035,-0.0395 0.119889,-0.0419 0.101442,-0.0331 0.201216,-0.0704 0.299723,-0.10955 -0.0013,-0.001 -0.0028,-0.002 -0.0041,-0.004 -0.135783,-0.0941 -0.274974,-0.1814 -0.415478,-0.26613 z m 0.224275,3.20135 c -0.09961,0.0426 -0.01151,0.0698 0.145728,0.0863 -0.03521,-0.0396 -0.0824,-0.07 -0.145728,-0.0863 z m 1.400949,34.28008 c -0.01413,-0.001 -0.01914,0.005 -0.0083,0.0222 0.04236,0.0676 0.133507,0.0927 0.24288,0.0992 -0.004,-0.005 -0.0068,-0.0102 -0.01085,-0.0155 -0.05339,-0.0308 -0.181372,-0.10182 -0.22376,-0.10594 z m -1.625224,1.38596 v 1.32137 c 0.211533,-0.22954 0.42759,-0.45301 0.65164,-0.66663 -0.170378,-0.10514 -0.344734,-0.23774 -0.531234,-0.40927 -0.04614,-0.0837 -0.08523,-0.1652 -0.120406,-0.24547 z m 46.700508,6.68228 c -0.208655,0.002 -0.415829,0.0337 -0.620117,0.11524 0.04906,0.17067 0.236657,-0.057 0.29559,0.0222 0.04232,0.0569 -0.0024,0.14211 0.0026,0.21291 0.0066,0.0963 0.0109,0.19354 0.03152,0.28784 0.05603,0.25619 0.225428,0.598 0.319879,0.81493 0.22643,0.47367 0.464815,0.94211 0.71365,1.40457 0.119592,-0.0115 0.237456,-0.0243 0.351401,-0.0419 0.575503,-0.0884 2.409288,-0.12399 3.676261,-0.14522 0.210921,-0.39124 0.550347,-0.59889 0.914157,-0.56068 0.284189,0.0298 0.566033,0.21234 0.79375,0.52554 0.207999,-0.004 0.482639,-0.0124 0.64027,-0.015 -0.109146,-0.0807 -0.219361,-0.15721 -0.33538,-0.21445 -0.526291,-0.25966 -1.066269,-0.49105 -1.599385,-0.73639 -1.339411,-0.59798 -2.702791,-1.16928 -4.13515,-1.5074 -0.349324,-0.0825 -0.701272,-0.16506 -1.04903,-0.16227 z m 9.050094,2.29495 c -0.09201,-0.005 -0.438697,0.0361 -0.55087,0.11472 -0.02363,0.0166 -0.04353,0.0381 -0.06305,0.061 0.172982,-0.0405 0.362842,-0.0882 0.603062,-0.15503 0.04399,-0.0122 0.04152,-0.019 0.01085,-0.0207 z m -5.531445,2.73524 c -0.432935,0.0159 -0.8656,0.0299 -1.298628,0.0419 -0.0013,0.0697 -0.0067,0.14259 -0.01447,0.21705 0.03143,0.0468 0.06387,0.0929 0.0956,0.13952 0.402625,-0.14041 0.808342,-0.27444 1.217497,-0.39842 z m -25.571566,3.22253 c -0.02061,0.01 -0.02487,0.0369 -0.02326,0.078 h 0.09663 l 0.04496,-0.063 c -0.03943,-0.005 -0.07891,-0.01 -0.11834,-0.0151 z m 32.784044,0.032 c -0.003,0.006 -0.0075,0.0127 -0.01035,0.019 -0.01423,0.01 -0.02914,0.0183 -0.04341,0.0279 H 74.6223 c -0.01765,-0.0153 -0.03435,-0.0318 -0.05219,-0.047 z" />
    </clipPath>
  </defs>
  <g
     inkscape:label="Layer 1"
     inkscape:groupmode="layer"
     id="layer1">
    <rect
       style="fill:none;stroke:#000000;stroke-width:0.242728;stroke-miterlimit:3;paint-order:stroke fill markers"
       id="rect1"
       width="19.652355"
       height="26.952484"
       x="96.025703"
       y="0.73979914" />
    <rect
       style="fill:none;stroke:#000000;stroke-width:0.23073;stroke-miterlimit:3;paint-order:stroke fill markers"
       id="rect2"
       width="25.811832"
       height="18.511702"
       x="129.06238"
       y="23.786839" />
    <rect
       style="fill:none;stroke:#000000;stroke-width:0.3;stroke-miterlimit:3;paint-order:stroke fill markers"
       id="rect3"
       width="13.447606"
       height="8.0685635"
       x="188.26649"
       y="51.869339" />
    <rect
       style="fill:none;stroke:#000000;stroke-width:0.3;stroke-miterlimit:3;paint-order:stroke fill markers"
       id="rect4"
       width="9.9896507"
       height="18.442432"
       x="173.66624"
       y="69.159119"
       clip-path="url(#clipPath286)" />
    <rect
       style="fill:none;stroke:#000000;stroke-width:0.3;stroke-miterlimit:3;paint-order:stroke fill markers"
       id="rect5"
       width="10.373871"
       height="18.826649"
       x="135.24451"
       y="70.695992"
       clip-path="url(#clipPath256)" />
    <rect
       style="fill:none;stroke:#000000;stroke-width:0.3;stroke-miterlimit:3;paint-order:stroke fill markers"
       id="rect6"
       width="10.373868"
       height="18.442436"
       x="122.56532"
       y="70.695992"
       clip-path="url(#clipPath274)" />
    <rect
       style="fill:none;stroke:#000000;stroke-width:0.3;stroke-miterlimit:3;paint-order:stroke fill markers"
       id="rect7"
       width="23.437256"
       height="11.142301"
       x="6.9159122"
       y="106.4282"
       clip-path="url(#clipPath185)" />
    <rect
       style="fill:none;stroke:#000000;stroke-width:0.3;stroke-miterlimit:3;paint-order:stroke fill markers"
       id="rect9"
       width="23.821476"
       height="12.29495"
       x="7.3001294"
       y="125.63908"
       clip-path="url(#clipPath203)" />
    <rect
       style="fill:none;stroke:#000000;stroke-width:0.3;stroke-miterlimit:3;paint-order:stroke fill markers"
       id="rect10"
       width="24.205692"
       height="12.29495"
       x="6.9159131"
       y="144.4657"
       clip-path="url(#clipPath244)" />
    <rect
       style="fill:none;stroke:#000000;stroke-width:0.3;stroke-miterlimit:3;paint-order:stroke fill markers"
       id="rect11"
       width="24.974129"
       height="12.679185"
       x="6.5316949"
       y="168.67142"
       clip-path="url(#clipPath364)" />
    <rect
       style="fill:none;stroke:#000000;stroke-width:0.3;stroke-miterlimit:3;paint-order:stroke fill markers"
       id="rect12"
       width="24.974129"
       height="12.67917"
       x="7.3001294"
       y="208.24582"
       clip-path="url(#clipPath418)" />
    <rect
       style="fill:none;stroke:#000000;stroke-width:0.3;stroke-miterlimit:3;paint-order:stroke fill markers"
       id="rect14"
       width="25.742559"
       height="12.679165"
       x="7.6843467"
       y="247.43594"
       clip-path="url(#clipPath443)" />
    <rect
       style="fill:none;stroke:#000000;stroke-width:0.3;stroke-miterlimit:3;paint-order:stroke fill markers"
       id="rect15"
       width="24.974129"
       height="12.679181"
       x="7.3001289"
       y="186.3454"
       clip-path="url(#clipPath413)" />
    <rect
       style="fill:none;stroke:#000000;stroke-width:0.3;stroke-miterlimit:3;paint-order:stroke fill markers"
       id="rect16"
       width="23.437252"
       height="11.526527"
       x="7.300127"
       y="44.569199"
       clip-path="url(#clipPath309)" />
    <rect
       style="fill:none;stroke:#000000;stroke-width:0.3;stroke-miterlimit:3;paint-order:stroke fill markers"
       id="rect17"
       width="25.742561"
       height="12.294968"
       x="106.81242"
       y="154.07115"
       clip-path="url(#clipPath376)" />
    <rect
       style="fill:none;stroke:#000000;stroke-width:0.3;stroke-miterlimit:3;paint-order:stroke fill markers"
       id="rect18"
       width="9.9896402"
       height="18.058214"
       x="158.68176"
       y="223.9987"
       clip-path="url(#clipPath402)" />
    <rect
       style="fill:none;stroke:#000000;stroke-width:0.3;stroke-miterlimit:3;paint-order:stroke fill markers;stroke-dasharray:none"
       id="rect19"
       width="13.944714"
       height="8.565671"
       x="195.51019"
       y="242.00049"
       clip-path="url(#clipPath408)" />
    <rect
       style="fill:none;stroke:#000000;stroke-width:0.428;stroke-miterlimit:3;paint-order:stroke fill markers;stroke-dasharray:none"
       id="rect20"
       width="26.199013"
       height="18.514656"
       x="125.98719"
       y="249.32095"
       clip-path="url(#clipPath147)" />
    <rect
       style="fill:none;stroke:#000000;stroke-width:0.44514334;stroke-miterlimit:3;paint-order:stroke fill markers;stroke-dasharray:none"
       id="rect21"
       width="19.650959"
       height="26.951092"
       x="96.410606"
       y="253.55551"
       clip-path="url(#clipPath125)"
       transform="matrix(1.0001395,0,0,0.98578953,0.75362066,16.281696)" />
    <path
       style="fill:none;stroke:#000000;stroke-width:0.3;stroke-miterlimit:3;paint-order:stroke fill markers"
       d="M 72.617075,265.49417 H 19.210866 v 0 L 17.289779,27.663648 72.617076,27.279431 v 0 L 72.232859,14.600259 h 23.821475 v 0"
       id="path21"
       clip-path="url(#clipPath446)" />
    <path
       style="fill:none;stroke:#000000;stroke-width:0.3;stroke-miterlimit:3;paint-order:stroke fill markers"
       d="m 115.64942,14.600258 h 7.68434 v 21.516171 0 l 5.37905,-0.384217 v 0 0"
       id="path22" />
    <path
       style="fill:none;stroke:#000000;stroke-width:0.3;stroke-miterlimit:3;paint-order:stroke fill markers"
       d="m 196.71927,59.553686 v 19.210866 l -76.84346,-0.384217 v 0 0 l -0.38422,23.437255 v 0 l 86.83312,-0.76843 -0.38422,40.72704 -32.65847,0.38421 -0.38422,-22.2846 -51.86934,0.76843 v 57.6326 l 84.1436,-1.15265 v 38.80595 h -31.12161 l -0.38421,-23.43726 -51.48513,0.76844 0.38422,39.9586 81.45407,0.38422 0.38422,26.12678 h -81.83829 l 0.76843,36.88486 v 0 L 77.996119,297 77.611902,260.49935 97.206986,259.73092 v 0"
       id="path24"
       clip-path="url(#clipPath410)" />
    <path
       style="fill:none;stroke:#000000;stroke-width:0.4;stroke-miterlimit:3;paint-order:stroke fill markers;stroke-dasharray:none"
       d="m 30.737386,265.10996 h 48.027166 v 0"
       id="path50"
       clip-path="url(#clipPath85)" />
    <path
       style="fill:none;stroke:#000000;stroke-width:0.3;stroke-miterlimit:3;paint-order:stroke fill markers"
       d="m 142.92885,41.879689 0.38421,5.76326 v 0 l 49.56404,-1.152652 v 5.379042"
       id="path60" />
    <path
       style="fill:#ffffff;stroke:#000000;stroke-width:0.425;stroke-miterlimit:3;paint-order:stroke fill markers;stroke-dasharray:none"
       d="m 60.705464,265.11174 9.463904,-0.38411 v 0 l 0.450662,12.67539 v 0 h 26.589064 v 0"
       id="path91" />
    <path
       style="fill:#ffffff;stroke:#000000;stroke-width:0.3;stroke-miterlimit:3;paint-order:stroke fill markers"
       d="m 111.42303,276.63648 11.52652,-0.38423 v 0"
       id="path113"
       clip-path="url(#clipPath131)" />
    <text
       xml:space="preserve"
       style="font-size:4.23333px;text-align:start;writing-mode:lr-tb;direction:ltr;text-anchor:start;fill:#000000;stroke:#000000;stroke-width:0.3;stroke-miterlimit:3;stroke-dasharray:none;paint-order:stroke fill markers"
       x="131.40233"
       y="31.890039"
       id="text447"><tspan
         sodipodi:role="line"
         id="tspan447"
         style="stroke-width:0.3"
         x="131.40233"
         y="31.890039">Girls </tspan><tspan
         sodipodi:role="line"
         style="stroke-width:0.3"
         x="131.40233"
         y="37.181702"
         id="tspan448">Washroom</tspan></text>
    <text
       xml:space="preserve"
       style="font-size:4.23333px;text-align:start;writing-mode:lr-tb;direction:ltr;text-anchor:start;fill:#000000;stroke:#000000;stroke-width:0.3;stroke-miterlimit:3;stroke-dasharray:none;paint-order:stroke fill markers"
       x="82.222504"
       y="4.6106076"
       id="text449"><tspan
         sodipodi:role="line"
         id="tspan449"
         style="stroke-width:0.3"
         x="82.222504"
         y="4.6106076">Stairs</tspan></text>
    <text
       xml:space="preserve"
       style="font-size:4.23333px;text-align:start;writing-mode:lr-tb;direction:ltr;text-anchor:start;fill:#000000;stroke:#000000;stroke-width:0.3;stroke-miterlimit:3;stroke-dasharray:none;paint-order:stroke fill markers"
       x="12.679172"
       y="51.869339"
       id="text450"><tspan
         sodipodi:role="line"
         id="tspan450"
         style="stroke-width:0.3"
         x="12.679172"
         y="51.869339">A121</tspan></text>
    <text
       xml:space="preserve"
       style="font-size:4.23333px;text-align:start;writing-mode:lr-tb;direction:ltr;text-anchor:start;fill:#000000;stroke:#000000;stroke-width:0.3;stroke-miterlimit:3;stroke-dasharray:none;paint-order:stroke fill markers"
       x="14.600258"
       y="114.11255"
       id="text451"><tspan
         sodipodi:role="line"
         id="tspan451"
         style="stroke-width:0.3"
         x="14.600258"
         y="114.11255">120</tspan></text>
    <text
       xml:space="preserve"
       style="font-size:4.23333px;text-align:start;writing-mode:lr-tb;direction:ltr;text-anchor:start;fill:#000000;stroke:#000000;stroke-width:0.3;stroke-miterlimit:3;stroke-dasharray:none;paint-order:stroke fill markers"
       x="14.216042"
       y="132.93919"
       id="text452"><tspan
         sodipodi:role="line"
         id="tspan452"
         style="stroke-width:0.3"
         x="14.216042"
         y="132.93919">119</tspan></text>
    <text
       xml:space="preserve"
       style="font-size:4.23333px;text-align:start;writing-mode:lr-tb;direction:ltr;text-anchor:start;fill:#000000;stroke:#000000;stroke-width:0.3;stroke-miterlimit:3;stroke-dasharray:none;paint-order:stroke fill markers"
       x="14.216041"
       y="152.15007"
       id="text453"><tspan
         sodipodi:role="line"
         id="tspan453"
         style="stroke-width:0.3"
         x="14.216041"
         y="152.15007">118</tspan></text>
    <text
       xml:space="preserve"
       style="font-size:4.23333px;text-align:start;writing-mode:lr-tb;direction:ltr;text-anchor:start;fill:#000000;stroke:#000000;stroke-width:0.3;stroke-miterlimit:3;stroke-dasharray:none;paint-order:stroke fill markers"
       x="15.368693"
       y="176.35576"
       id="text454"><tspan
         sodipodi:role="line"
         id="tspan454"
         style="stroke-width:0.3"
         x="15.368693"
         y="176.35576">117</tspan></text>
    <text
       xml:space="preserve"
       style="font-size:4.23333px;text-align:start;writing-mode:lr-tb;direction:ltr;text-anchor:start;fill:#000000;stroke:#000000;stroke-width:0.3;stroke-miterlimit:3;stroke-dasharray:none;paint-order:stroke fill markers"
       x="14.600258"
       y="194.02975"
       id="text455"><tspan
         sodipodi:role="line"
         id="tspan455"
         style="stroke-width:0.3"
         x="14.600258"
         y="194.02975">116</tspan></text>
    <text
       xml:space="preserve"
       style="font-size:4.23333px;text-align:start;writing-mode:lr-tb;direction:ltr;text-anchor:start;fill:#000000;stroke:#000000;stroke-width:0.3;stroke-miterlimit:3;stroke-dasharray:none;paint-order:stroke fill markers"
       x="14.600259"
       y="215.93015"
       id="text456"><tspan
         sodipodi:role="line"
         id="tspan456"
         style="stroke-width:0.3"
         x="14.600259"
         y="215.93015">115</tspan></text>
    <text
       xml:space="preserve"
       style="font-size:4.23333px;text-align:start;writing-mode:lr-tb;direction:ltr;text-anchor:start;fill:#000000;stroke:#000000;stroke-width:0.3;stroke-miterlimit:3;stroke-dasharray:none;paint-order:stroke fill markers"
       x="16.521345"
       y="255.1203"
       id="text457"><tspan
         sodipodi:role="line"
         id="tspan457"
         style="stroke-width:0.3"
         x="16.521345"
         y="255.1203">113</tspan></text>
    <text
       xml:space="preserve"
       style="font-size:4.23333px;text-align:start;writing-mode:lr-tb;direction:ltr;text-anchor:start;fill:#000000;stroke:#000000;stroke-width:0.3;stroke-miterlimit:3;stroke-dasharray:none;paint-order:stroke fill markers"
       x="132.17075"
       y="247.43594"
       id="text458"><tspan
         sodipodi:role="line"
         id="tspan458"
         style="stroke-width:0.3"
         x="132.17075"
         y="247.43594">A-114</tspan></text>
    <text
       xml:space="preserve"
       style="font-size:4.23333px;text-align:start;writing-mode:lr-tb;direction:ltr;text-anchor:start;fill:#000000;stroke:#000000;stroke-width:0.3;stroke-miterlimit:3;stroke-dasharray:none;paint-order:stroke fill markers"
       x="196.71927"
       y="248.20439"
       id="text459"><tspan
         sodipodi:role="line"
         id="tspan459"
         style="stroke-width:0.3"
         x="196.71927"
         y="248.20439">A-112</tspan></text>
    <text
       xml:space="preserve"
       style="font-size:4.23333px;text-align:start;writing-mode:lr-tb;direction:ltr;text-anchor:start;fill:#000000;stroke:#000000;stroke-width:0.3;stroke-miterlimit:3;stroke-dasharray:none;paint-order:stroke fill markers"
       x="159.83441"
       y="233.98836"
       id="text460"><tspan
         sodipodi:role="line"
         id="tspan460"
         style="stroke-width:0.3"
         x="159.83441"
         y="233.98836">112</tspan></text>
    <text
       xml:space="preserve"
       style="font-size:4.23333px;text-align:start;writing-mode:lr-tb;direction:ltr;text-anchor:start;fill:#000000;stroke:#000000;stroke-width:0.3;stroke-miterlimit:3;stroke-dasharray:none;paint-order:stroke fill markers"
       x="-94.604164"
       y="-288.55139"
       id="text461"
       transform="scale(-1)"><tspan
         sodipodi:role="line"
         id="tspan461"
         style="stroke-width:0.3"
         x="-94.604164"
         y="-288.55139">Stairs</tspan></text>
    <text
       xml:space="preserve"
       style="font-size:4.23333px;text-align:start;writing-mode:lr-tb;direction:ltr;text-anchor:start;fill:#000000;stroke:#000000;stroke-width:0.3;stroke-miterlimit:3;stroke-dasharray:none;paint-order:stroke fill markers"
       x="115.64941"
       y="160.21863"
       id="text462"><tspan
         sodipodi:role="line"
         id="tspan462"
         style="stroke-width:0.3"
         x="115.64941"
         y="160.21863">121</tspan></text>
    <text
       xml:space="preserve"
       style="font-size:4.23333px;text-align:start;writing-mode:lr-tb;direction:ltr;text-anchor:start;fill:#000000;stroke:#000000;stroke-width:0.3;stroke-miterlimit:3;stroke-dasharray:none;paint-order:stroke fill markers"
       x="131.40231"
       y="95.670113"
       id="text463"><tspan
         sodipodi:role="line"
         id="tspan463"
         style="stroke-width:0.3"
         x="131.40231"
         y="95.670113">lift</tspan></text>
    <text
       xml:space="preserve"
       style="font-size:4.23333px;text-align:start;writing-mode:lr-tb;direction:ltr;text-anchor:start;fill:#000000;stroke:#000000;stroke-width:0.3;stroke-miterlimit:3;stroke-dasharray:none;paint-order:stroke fill markers"
       x="167.13454"
       y="92.980591"
       id="text464"><tspan
         sodipodi:role="line"
         id="tspan464"
         style="stroke-width:0.3"
         x="167.13454"
         y="92.980591">DLD-Studio</tspan></text>
    <text
       xml:space="preserve"
       style="font-size:4.23333px;text-align:start;writing-mode:lr-tb;direction:ltr;text-anchor:start;fill:#000000;stroke:#000000;stroke-width:0.3;stroke-miterlimit:3;stroke-dasharray:none;paint-order:stroke fill markers"
       x="-64.273994"
       y="5.5672646"
       id="text465"
       transform="rotate(-90)"><tspan
         sodipodi:role="line"
         id="tspan465"
         style="stroke-width:0.3"
         x="-64.273994"
         y="5.5672646">DLD Studio-2</tspan></text>
    <text
       xml:space="preserve"
       style="font-size:4.23333px;text-align:start;writing-mode:lr-tb;direction:ltr;text-anchor:start;fill:#000000;stroke:#000000;stroke-width:0.3;stroke-miterlimit:3;stroke-dasharray:none;paint-order:stroke fill markers"
       x="-276.95874"
       y="4.9922457"
       id="text466"
       transform="rotate(-90)"><tspan
         sodipodi:role="line"
         id="tspan466"
         style="stroke-width:0.3"
         x="-276.95874"
         y="4.9922457">Computer Network Studio</tspan></text>
    <text
       xml:space="preserve"
       style="font-size:4.23333px;text-align:start;writing-mode:lr-tb;direction:ltr;text-anchor:start;fill:#000000;stroke:#000000;stroke-width:0.3;stroke-miterlimit:3;stroke-dasharray:none;paint-order:stroke fill markers"
       x="128.3286"
       y="257.04138"
       id="text467"><tspan
         sodipodi:role="line"
         id="tspan467"
         style="stroke-width:0.3"
         x="128.3286"
         y="257.04138">Boys'</tspan><tspan
         sodipodi:role="line"
         style="stroke-width:0.3"
         x="128.3286"
         y="262.33304"
         id="tspan470">Washroom</tspan><tspan
         sodipodi:role="line"
         style="stroke-width:0.3"
         x="128.3286"
         y="267.62469"
         id="tspan469" /></text>
    <text
       xml:space="preserve"
       style="font-size:4.23333px;text-align:start;writing-mode:lr-tb;direction:ltr;text-anchor:start;fill:#000000;stroke:#000000;stroke-width:0.3;stroke-miterlimit:3;stroke-dasharray:none;paint-order:stroke fill markers"
       x="135.24451"
       y="21.516171"
       id="text468"><tspan
         sodipodi:role="line"
         id="tspan468"
         style="stroke-width:0.3"
         x="135.24451"
         y="21.516171">A-122</tspan></text>
    <text
       xml:space="preserve"
       style="font-size:4.23333px;text-align:start;writing-mode:lr-tb;direction:ltr;text-anchor:start;fill:#000000;stroke:#000000;stroke-width:0.3;stroke-miterlimit:3;stroke-dasharray:none;paint-order:stroke fill markers"
       x="177.50841"
       y="126.4075"
       id="text471"><tspan
         sodipodi:role="line"
         id="tspan471"
         style="stroke-width:0.3"
         x="177.50841"
         y="126.4075">Teachers'</tspan><tspan
         sodipodi:role="line"
         style="stroke-width:0.3"
         x="177.50841"
         y="131.69916"
         id="tspan472">Cabin</tspan></text>
    <text
       xml:space="preserve"
       style="font-size:4.23333px;text-align:start;writing-mode:lr-tb;direction:ltr;text-anchor:start;fill:#000000;stroke:#000000;stroke-width:0.3;stroke-miterlimit:3;stroke-dasharray:none;paint-order:stroke fill markers"
       x="179.04527"
       y="199.4088"
       id="text473"><tspan
         sodipodi:role="line"
         style="stroke-width:0.3"
         x="179.04527"
         y="199.4088"
         id="tspan474">Teachers'</tspan><tspan
         sodipodi:role="line"
         style="stroke-width:0.3"
         x="179.04527"
         y="204.70045"
         id="tspan475">Cabin</tspan></text>
    <path
       style="fill:#000000;stroke:#000000;stroke-width:0.3;stroke-miterlimit:3;stroke-dasharray:none;paint-order:stroke fill markers"
       d="m 97.591201,274.33116 h 19.210869 v 0 0"
       id="path475" />
    <path
       style="fill:#000000;stroke:#000000;stroke-width:0.3;stroke-miterlimit:3;stroke-dasharray:none;paint-order:stroke fill markers"
       d="m 97.206984,284.32082 19.595086,0.38423 v 0"
       id="path476" />
    <path
       style="fill:#000000;stroke:#000000;stroke-width:0.3;stroke-miterlimit:3;stroke-dasharray:none;paint-order:stroke fill markers"
       d="M 96.054332,8.4527812 H 115.2652 v 0"
       id="path477" />
    <path
       style="fill:#000000;stroke:#000000;stroke-width:0.3;stroke-miterlimit:3;stroke-dasharray:none;paint-order:stroke fill markers"
       d="m 96.054332,18.826649 19.595088,-0.384217 v 0 0"
       id="path478" />
  </g>
</svg>
